<?xml version="1.0" standalone="no"?>
<!DOCTYPE svg PUBLIC "-//W3C//DTD SVG 20010904//EN"
 "http://www.w3.org/TR/2001/REC-SVG-20010904/DTD/svg10.dtd">
<svg version="1.0" xmlns="http://www.w3.org/2000/svg"
 width="1521.000000pt" height="837.000000pt" viewBox="0 0 1521.000000 837.000000"
 preserveAspectRatio="xMidYMid meet">
<metadata>
Created by potrace 1.16, written by Peter Selinger 2001-2019
</metadata>
<g transform="translate(0.000000,837.000000) scale(0.100000,-0.100000)"
fill="#000000" stroke="none">
<path d="M5928 8253 c3 -103 1 -119 -14 -130 -28 -20 147 -18 186 2 53 28 52
93 -2 116 -19 8 -26 15 -17 17 26 8 49 35 49 57 0 42 -29 55 -121 55 l-84 0 3
-117z"/>
<path d="M7049 8319 c2 -36 0 -49 -8 -45 -14 9 -14 -7 0 -21 17 -17 7 -104
-14 -117 -43 -26 -68 93 -27 134 l20 20 -20 0 c-12 0 -32 -11 -45 -25 -34 -33
-35 -102 -2 -133 26 -25 57 -28 75 -10 10 10 14 10 21 0 5 -8 18 -10 40 -6 23
5 29 10 22 17 -7 7 -11 58 -11 124 l0 113 -27 0 c-27 0 -28 -1 -24 -51z"/>
<path d="M7749 8319 c2 -36 0 -49 -8 -45 -14 9 -14 -7 0 -21 17 -17 7 -104
-14 -117 -43 -26 -68 93 -27 134 l20 20 -20 0 c-12 0 -32 -11 -45 -25 -34 -33
-35 -102 -2 -133 26 -25 57 -28 75 -10 10 10 14 10 21 0 5 -8 18 -10 40 -6 23
5 29 10 22 17 -7 7 -11 58 -11 124 l0 113 -27 0 c-27 0 -28 -1 -24 -51z"/>
<path d="M6178 8277 c6 -7 12 -44 14 -81 4 -81 18 -98 68 -79 16 6 30 7 30 2
0 -5 17 -9 37 -9 29 0 34 3 25 12 -7 7 -12 43 -12 90 l0 78 -37 -1 c-21 0 -32
-3 -25 -6 18 -7 16 -117 -3 -133 -25 -21 -35 -1 -35 71 l0 69 -36 0 c-29 0
-34 -3 -26 -13z"/>
<path d="M6759 8272 c-26 -22 -20 -56 8 -50 13 3 17 12 15 31 -2 21 2 27 17
27 17 0 31 -18 31 -40 0 -4 -20 -20 -44 -34 -48 -28 -65 -58 -46 -81 16 -19
35 -19 64 0 21 14 24 14 29 0 8 -19 41 -19 57 0 9 10 9 15 1 15 -7 0 -11 22
-11 58 0 44 -5 63 -18 75 -25 22 -74 21 -103 -1z"/>
<path d="M7192 8283 c-19 -7 -42 -58 -42 -91 0 -41 41 -82 80 -82 43 0 90 47
90 90 0 59 -71 106 -128 83z"/>
<path d="M7894 8278 c-48 -23 -59 -104 -19 -143 37 -38 91 -30 116 18 12 21
11 21 -8 5 -26 -24 -49 -23 -67 4 -27 38 -20 48 34 48 57 0 63 11 29 54 -21
27 -49 32 -85 14z"/>
<path d="M8159 8272 c-26 -22 -20 -56 8 -50 13 3 17 12 15 31 -2 21 2 27 17
27 17 0 31 -18 31 -40 0 -4 -20 -20 -44 -34 -48 -28 -65 -58 -46 -81 16 -19
35 -19 64 0 21 14 24 14 29 0 8 -19 41 -19 57 0 9 10 9 15 1 15 -7 0 -11 22
-11 58 0 44 -5 63 -18 75 -25 22 -74 21 -103 -1z"/>
<path d="M8328 8283 c8 -3 12 -28 12 -72 0 -53 4 -72 18 -84 22 -20 53 -22 70
-5 9 9 12 9 12 0 0 -8 16 -12 43 -11 23 0 36 3 30 6 -9 3 -13 31 -13 89 l0 84
-32 0 -33 0 0 -72 c0 -61 -3 -73 -17 -76 -16 -3 -18 6 -18 72 l0 76 -42 -1
c-24 0 -37 -3 -30 -6z"/>
<path d="M8713 8266 c-22 -19 -28 -32 -28 -66 0 -34 6 -47 28 -66 60 -51 137
-14 137 66 0 80 -77 117 -137 66z"/>
<path d="M0 7160 l0 -850 7605 0 7605 0 0 850 0 850 -7605 0 -7605 0 0 -850z
m799 197 l34 -72 34 73 c31 66 36 72 64 72 28 0 29 -1 15 -16 -22 -22 -22
-146 0 -168 14 -15 11 -16 -33 -16 -37 1 -44 3 -30 11 13 8 17 23 16 72 l-1
62 -32 -67 c-17 -37 -35 -70 -39 -74 -4 -4 -22 26 -41 67 l-35 74 0 -67 c-1
-55 2 -67 17 -71 9 -3 -3 -5 -28 -6 -35 0 -41 2 -27 10 14 8 17 25 17 94 0 71
-3 84 -17 88 -10 3 -2 5 17 5 34 1 36 -1 69 -71z m2304 -21 c36 -85 60 -112
77 -86 13 20 13 66 0 90 -11 21 0 27 63 29 32 1 39 -2 47 -24 6 -15 10 -44 10
-65 0 -21 6 -41 13 -43 6 -3 -44 -6 -113 -6 -70 0 -119 3 -112 8 9 5 11 17 6
34 -5 23 -11 27 -43 27 -30 0 -40 -5 -49 -25 -9 -20 -8 -26 6 -34 13 -8 9 -10
-22 -11 -37 0 -38 1 -23 18 13 15 52 93 78 161 13 32 21 22 62 -73z m1695 78
c43 -30 16 -94 -40 -94 -26 0 -28 -3 -28 -39 0 -22 5 -42 13 -44 6 -3 -10 -6
-38 -6 -39 0 -46 2 -32 10 14 8 17 24 17 89 0 65 -3 81 -17 89 -14 8 -4 10 42
11 39 0 68 -6 83 -16z m802 -60 l35 -77 32 74 c29 70 33 74 65 76 18 1 27 0
21 -3 -9 -4 -13 -33 -13 -94 0 -61 4 -90 13 -93 6 -3 -10 -5 -38 -5 -27 0 -42
2 -32 5 14 4 17 16 16 71 l0 67 -35 -74 c-19 -41 -37 -71 -41 -67 -4 4 -22 37
-39 74 l-32 67 -1 -62 c-1 -49 3 -64 17 -72 13 -8 7 -10 -28 -10 -35 0 -41 2
-27 10 14 8 17 25 17 94 0 71 -3 84 -17 88 -10 3 -2 5 17 6 35 1 36 -1 70 -75z
m1298 60 c43 -30 16 -94 -40 -94 -26 0 -28 -3 -28 -39 0 -22 5 -42 13 -44 6
-3 -10 -6 -38 -6 -39 0 -46 2 -32 10 14 8 17 24 17 89 0 65 -3 81 -17 89 -14
8 -4 10 42 11 39 0 68 -6 83 -16z m802 -60 l35 -77 32 74 c29 70 33 74 65 76
18 1 27 0 21 -3 -9 -4 -13 -33 -13 -94 0 -61 4 -90 13 -93 6 -3 -10 -5 -38 -5
-27 0 -42 2 -32 5 14 4 17 16 16 71 l0 67 -35 -74 c-19 -41 -37 -71 -41 -67
-4 4 -22 37 -39 74 l-32 67 -1 -62 c-1 -49 3 -64 17 -72 13 -8 7 -10 -28 -10
-35 0 -41 2 -27 10 14 8 17 25 17 94 0 71 -3 84 -17 88 -10 3 -2 5 17 6 35 1
36 -1 70 -75z m1580 56 c11 -11 20 -24 20 -30 0 -5 14 -10 30 -10 l30 0 0 -60
c0 -61 11 -75 38 -48 19 19 15 85 -5 97 -15 9 -13 10 14 11 l31 0 4 -65 c2
-50 0 -66 -12 -70 -8 -4 -16 -1 -18 5 -3 8 -8 8 -17 0 -8 -7 -24 -10 -37 -8
-21 3 -23 9 -26 61 -3 65 -23 85 -48 48 -11 -14 -26 -21 -50 -21 -32 0 -34 -2
-34 -35 0 -22 6 -38 18 -44 13 -8 6 -10 -33 -10 -39 0 -46 2 -32 10 14 8 17
24 17 89 0 65 -3 81 -17 89 -14 8 -3 10 45 11 49 0 66 -4 82 -20z m-5840 -67
c35 -44 5 -113 -49 -113 -32 0 -44 8 -60 38 -39 74 58 140 109 75z m1954 11
c44 -43 19 -116 -41 -122 -23 -2 -36 3 -52 24 -26 34 -27 54 0 88 24 30 69 35
93 10z m436 -49 c0 -58 2 -65 20 -65 18 0 20 7 20 55 0 37 -4 55 -12 56 -7 0
-3 5 10 12 18 8 25 8 32 -2 5 -9 10 -10 14 -2 11 17 53 13 60 -5 3 -9 6 -35 6
-58 0 -23 5 -47 12 -54 9 -9 3 -12 -27 -11 -22 0 -34 3 -27 6 14 6 17 113 3
113 -30 0 -41 -14 -41 -54 0 -23 5 -47 12 -54 9 -9 -4 -12 -62 -12 -58 0 -71
3 -62 12 16 16 16 108 0 108 -9 0 -8 4 2 10 33 21 40 12 40 -55z m1664 49 c44
-43 19 -116 -41 -122 -23 -2 -36 3 -52 24 -26 34 -27 54 0 88 24 30 69 35 93
10z m484 -47 c2 -33 7 -55 13 -52 5 4 9 1 9 -6 0 -7 8 -5 21 7 39 35 40 48 9
82 l-29 32 33 0 c21 0 33 -5 32 -12 0 -7 4 -13 9 -13 6 0 9 6 9 13 -1 7 10 12
27 12 l28 0 -24 -25 c-32 -31 -31 -37 6 -80 l31 -35 -36 0 c-24 0 -34 4 -31
13 3 6 1 18 -4 26 -8 12 -12 13 -26 1 -9 -7 -14 -19 -11 -26 4 -10 -15 -12
-77 -11 -81 2 -82 2 -85 29 -3 23 3 31 33 45 21 10 35 23 33 32 -5 23 -29 25
-35 2 -6 -23 -33 -29 -33 -8 0 24 24 38 60 35 l35 -3 3 -58z m3777 53 c3 -5
18 -3 34 3 44 16 61 -3 61 -68 0 -33 5 -55 13 -58 6 -3 -5 -6 -27 -6 -32 -1
-37 1 -27 13 7 8 11 34 9 58 -2 35 -7 43 -23 43 -17 0 -20 -8 -23 -49 -2 -32
1 -52 10 -57 8 -6 -1 -9 -26 -9 -32 0 -37 2 -27 14 7 8 11 34 9 58 -2 35 -7
43 -23 43 -17 0 -20 -8 -23 -49 -2 -32 1 -52 10 -57 8 -6 -2 -9 -26 -9 -31 0
-37 3 -28 12 15 15 16 94 1 104 -18 11 7 21 57 22 24 0 46 -4 49 -8z m517 -7
c24 -22 24 -77 -2 -103 -44 -44 -110 -13 -110 52 0 57 70 89 112 51z m1538 -3
c42 -42 12 -120 -47 -120 -56 0 -83 67 -47 118 19 28 67 29 94 2z m240 -7 c35
-44 5 -113 -49 -113 -32 0 -44 8 -60 38 -39 74 58 140 109 75z m-12050 -203
c18 -18 20 -33 20 -155 0 -122 -2 -137 -20 -155 -20 -20 -33 -20 -920 -20
-887 0 -900 0 -920 20 -18 18 -20 33 -20 155 0 122 2 137 20 155 20 20 33 20
920 20 887 0 900 0 920 -20z m2120 0 c18 -18 20 -33 20 -155 0 -122 -2 -137
-20 -155 -20 -20 -33 -20 -915 -20 -882 0 -895 0 -915 20 -18 18 -20 33 -20
155 0 122 2 137 20 155 20 20 33 20 915 20 882 0 895 0 915 -20z m2130 0 c18
-18 20 -33 20 -155 0 -122 -2 -137 -20 -155 -20 -20 -33 -20 -920 -20 -887 0
-900 0 -920 20 -18 18 -20 33 -20 155 0 122 2 137 20 155 20 20 33 20 920 20
887 0 900 0 920 -20z m2120 0 c18 -18 20 -33 20 -155 0 -122 -2 -137 -20 -155
-20 -20 -33 -20 -915 -20 -882 0 -895 0 -915 20 -18 18 -20 33 -20 155 0 122
2 137 20 155 20 20 33 20 915 20 882 0 895 0 915 -20z m2130 0 c18 -18 20 -33
20 -155 0 -122 -2 -137 -20 -155 -20 -20 -33 -20 -920 -20 -887 0 -900 0 -920
20 -18 18 -20 33 -20 155 0 122 2 137 20 155 20 20 33 20 920 20 887 0 900 0
920 -20z m2120 0 c18 -18 20 -33 20 -155 0 -122 -2 -137 -20 -155 -20 -20 -33
-20 -915 -20 -882 0 -895 0 -915 20 -18 18 -20 33 -20 155 0 122 2 137 20 155
20 20 33 20 915 20 882 0 895 0 915 -20z m2130 0 c18 -18 20 -33 20 -155 0
-122 -2 -137 -20 -155 -20 -20 -33 -20 -920 -20 -887 0 -900 0 -920 20 -18 18
-20 33 -20 155 0 122 2 137 20 155 20 20 33 20 920 20 887 0 900 0 920 -20z"/>
<path d="M6548 6200 c21 -9 22 -15 22 -125 0 -111 -1 -116 -22 -125 -17 -6 -3
-9 52 -9 55 0 69 3 53 9 -20 8 -23 17 -23 60 0 27 4 50 9 50 6 0 29 -27 52
-60 39 -56 44 -60 82 -60 l41 0 -25 28 c-14 15 -37 43 -51 62 l-26 36 29 16
c23 14 29 24 29 51 0 58 -26 72 -144 74 -71 2 -94 0 -78 -7z"/>
<path d="M7933 6199 c12 -7 17 -23 17 -55 0 -28 -4 -43 -10 -39 -13 8 -13 -8
1 -22 17 -17 7 -104 -14 -117 -43 -26 -68 93 -27 134 l20 20 -20 0 c-12 0 -32
-11 -45 -25 -34 -33 -35 -102 -2 -133 26 -25 57 -28 75 -10 10 10 14 10 21 0
5 -8 18 -10 40 -6 23 5 29 10 22 17 -7 7 -11 59 -11 129 l0 118 -42 0 c-34 -1
-39 -3 -25 -11z"/>
<path d="M6855 6095 c-36 -35 -35 -105 1 -134 40 -32 93 -24 108 16 6 14 5 16
-5 6 -18 -18 -43 -16 -62 5 -33 36 -22 52 34 52 47 0 50 1 44 23 -17 56 -79
74 -120 32z"/>
<path d="M7171 6046 c8 -99 33 -126 90 -96 13 7 19 7 19 0 0 -5 17 -10 37 -10
29 0 34 3 25 12 -7 7 -12 43 -12 90 l0 78 -37 0 c-29 0 -34 -3 -25 -12 7 -7
12 -35 12 -63 0 -51 -12 -75 -37 -75 -10 0 -13 20 -13 75 l0 75 -33 0 -33 0 7
-74z"/>
<path d="M7659 6102 c-26 -22 -20 -56 8 -50 13 3 17 12 15 31 -2 21 2 27 17
27 17 0 31 -18 31 -40 0 -4 -20 -20 -44 -34 -48 -28 -65 -58 -46 -81 16 -19
35 -19 64 0 21 14 24 14 29 0 8 -19 41 -19 57 0 9 10 9 15 1 15 -7 0 -11 22
-11 58 0 44 -5 63 -18 75 -25 22 -74 21 -103 -1z"/>
<path d="M8092 6113 c-19 -7 -42 -58 -42 -91 0 -41 41 -82 80 -82 43 0 90 47
90 90 0 59 -71 106 -128 83z"/>
<path d="M0 5720 l0 -120 1828 -3 1827 -2 -1827 -3 -1828 -2 0 -755 0 -755 45
0 c66 0 108 -48 71 -79 -13 -11 -12 -15 5 -32 43 -43 6 -89 -71 -89 l-50 0 0
-1940 0 -1940 2060 0 2060 0 3 2563 2 2562 3 -2562 2 -2563 180 0 180 0 3
2563 2 2562 3 -2562 2 -2563 2955 0 2955 0 3 2563 2 2562 3 -2562 2 -2563 180
0 180 0 3 2563 2 2562 3 -2562 2 -2563 2210 0 2210 0 0 100 0 100 -32 1 c-18
0 -121 0 -229 0 -180 -1 -197 0 -213 18 -18 20 -49 18 -76 -5 -18 -15 -57 -8
-79 14 -8 8 -26 12 -43 10 -15 -3 -28 -1 -28 4 0 14 44 27 57 16 7 -5 17 -7
24 -3 7 5 2 15 -16 31 -30 26 -40 30 -30 14 3 -5 1 -10 -5 -10 -6 0 -9 -4 -6
-9 3 -5 -4 -11 -15 -14 -14 -4 -19 -2 -16 8 3 7 1 17 -5 23 -13 13 -44 -23
-45 -54 -1 -17 5 -21 30 -21 56 -2 87 -7 87 -15 0 -4 -50 -8 -111 -8 -85 0
-108 3 -103 13 6 9 4 9 -8 -1 -17 -14 -138 -13 -138 0 0 5 -15 8 -32 8 -25 0
-29 -3 -18 -10 12 -8 9 -10 -12 -10 -16 0 -28 5 -28 11 0 5 5 7 10 4 16 -10
11 1 -7 16 -9 8 -14 9 -10 3 15 -25 -24 -31 -195 -33 -149 0 -176 2 -172 13 4
11 0 13 -15 9 -11 -3 -18 -9 -15 -14 3 -5 -18 -9 -45 -9 -44 0 -51 3 -51 19 0
11 5 21 12 23 6 2 8 9 4 16 -12 20 -33 -8 -28 -37 l5 -25 -22 21 c-17 15 -20
27 -15 47 5 23 3 26 -18 26 -14 0 -27 -3 -31 -6 -10 -10 4 -34 20 -34 8 0 12
-4 8 -9 -3 -6 3 -14 12 -20 27 -15 7 -26 -23 -13 -14 7 -23 8 -20 3 8 -13
-266 -13 -284 0 -11 8 -12 12 -2 16 6 2 12 11 12 18 0 16 -48 26 -53 11 -6
-16 3 -37 14 -30 5 3 9 -2 9 -10 0 -23 -16 -19 -38 8 -14 19 -22 22 -31 13
-16 -16 -14 -32 2 -18 14 11 27 6 27 -10 0 -5 -99 -8 -220 -8 -153 1 -220 4
-220 12 0 7 -4 7 -12 -1 -13 -13 -79 -17 -77 -4 3 19 -2 32 -12 32 -8 0 -8 -4
0 -14 17 -20 5 -24 -71 -23 -37 0 -62 4 -56 8 7 4 15 6 19 3 4 -2 9 2 12 10 4
11 -2 13 -26 10 -18 -3 -39 -8 -47 -11 -8 -3 -23 -5 -32 -4 -10 1 -18 -3 -18
-8 0 -6 -9 -11 -20 -11 -20 0 -29 19 -10 21 6 1 15 3 20 4 6 1 18 3 27 4 15 1
15 3 -3 15 -10 8 -20 10 -22 5 -2 -5 -9 -9 -15 -9 -7 0 -23 -9 -37 -20 -33
-26 -120 -28 -120 -4 0 10 -6 14 -15 10 -10 -3 -15 1 -16 12 0 13 -2 13 -6 3
-3 -8 2 -20 13 -28 16 -12 16 -13 -9 -13 -25 0 -27 3 -27 39 0 40 10 50 53 52
21 0 21 1 -2 10 -14 5 -30 8 -36 5 -13 -5 -16 16 -9 52 2 13 8 20 13 18 5 -3
14 0 20 8 9 11 6 12 -14 8 -24 -4 -25 -2 -25 41 0 43 19 79 21 40 0 -10 5 -4
10 14 7 22 14 31 24 27 8 -4 15 -1 15 5 0 6 -4 11 -10 11 -5 0 -10 8 -10 17 0
24 -21 2 -23 -24 0 -13 -6 -19 -14 -16 -10 4 -13 45 -12 174 l0 169 26 6 26 7
-24 19 c-14 12 -17 19 -9 18 28 -4 41 0 34 11 -3 6 -17 8 -30 5 l-24 -6 2 115
c2 114 2 115 25 115 14 0 22 4 19 9 -3 5 -15 7 -26 4 -20 -5 -20 0 -20 285 0
223 3 292 13 295 9 4 9 8 -2 15 -20 14 4 25 28 12 14 -7 22 -7 26 0 4 6 15 8
26 5 10 -4 19 -2 19 4 0 15 -38 24 -76 16 -30 -5 -34 -3 -34 15 0 18 6 20 65
20 59 0 70 5 63 27 -2 4 -19 6 -38 6 -33 -2 -28 1 28 13 47 10 19 24 -48 24
l-70 0 0 71 c0 44 4 68 10 64 6 -3 10 -12 10 -20 0 -19 20 -23 60 -11 19 5 36
11 38 11 1 1 -2 13 -7 26 -10 24 -10 24 -10 2 -1 -31 -21 -29 -21 1 0 13 -3
38 -6 55 -6 29 -4 31 21 31 15 0 50 14 77 30 33 20 61 30 89 30 22 0 48 4 58
9 16 9 18 3 21 -67 2 -42 4 -93 4 -113 l0 -36 51 4 c52 5 108 30 99 45 -3 5
-9 33 -13 63 -7 47 -5 54 11 58 10 3 31 -1 46 -9 15 -8 33 -14 40 -14 10 0 10
-3 -2 -15 -8 -8 -19 -15 -25 -15 -6 0 -3 -8 7 -18 17 -18 52 -18 52 0 0 5 6 8
13 5 6 -2 28 4 47 13 82 41 326 123 470 159 85 21 148 41 140 44 -8 4 1 4 20
2 51 -7 225 18 225 32 0 6 3 15 8 19 4 4 7 0 7 -9 0 -13 9 -17 42 -17 40 0 41
0 23 20 -29 32 6 26 39 -6 l26 -27 1 24 c1 17 3 19 6 6 4 -14 16 -17 73 -17
67 0 68 1 65 25 -1 14 2 25 6 25 5 0 9 -7 9 -15 0 -10 10 -15 30 -15 17 0 30
5 30 10 0 6 4 10 9 10 5 0 7 -9 4 -20 -4 -15 -2 -19 10 -14 8 3 18 1 22 -5 9
-15 52 -14 59 2 5 9 7 9 12 -1 6 -13 24 -7 24 8 0 15 -34 17 -57 2 -30 -19
-39 2 -8 22 13 9 31 13 39 10 20 -8 44 16 39 37 -3 11 3 20 16 24 26 8 49 45
28 45 -7 0 -18 -5 -25 -12 -9 -9 -12 -9 -12 1 0 7 -6 9 -12 6 -7 -4 -3 3 10
14 13 11 21 25 18 30 -3 5 1 12 10 15 12 4 14 1 9 -14 -7 -23 10 -28 19 -5 3
9 18 15 38 15 24 0 29 -3 18 -9 -8 -6 -18 -7 -22 -5 -4 3 -8 -2 -8 -10 0 -9
-5 -16 -12 -16 -6 0 -8 -3 -5 -6 10 -10 -25 -64 -43 -65 -9 0 -10 -2 -3 -5 9
-4 9 -11 1 -29 -6 -14 -15 -22 -19 -19 -5 3 -8 -6 -7 -20 2 -21 8 -26 29 -26
83 0 335 -68 448 -121 46 -21 90 -39 97 -39 8 0 14 -4 14 -10 0 -5 9 -10 20
-10 11 0 20 4 20 9 0 15 50 19 65 5 15 -16 135 -20 150 -5 15 13 104 20 112 8
4 -6 11 -3 20 8 10 15 13 90 13 361 0 318 -1 343 -17 347 -17 4 -17 5 0 6 18
1 25 41 6 41 -5 0 -7 -4 -4 -10 3 -5 1 -10 -4 -10 -6 0 -11 4 -11 9 0 7 -25
19 -52 25 -16 3 -19 16 -4 16 17 0 17 2 2 25 -19 29 -21 41 -3 27 8 -7 16 -6
24 3 10 10 9 16 -4 27 -15 11 -16 11 -10 -6 6 -15 5 -16 -6 -8 -8 7 -18 7 -27
2 -32 -21 -36 -9 -14 44 4 12 4 17 -3 13 -5 -3 -9 3 -8 15 1 17 9 22 39 25 21
2 44 -1 52 -8 10 -8 14 -8 14 -1 0 6 7 9 15 6 13 -5 15 74 15 675 0 611 -2
684 -16 706 -21 33 -21 117 0 150 14 21 16 78 16 490 l0 465 -1977 3 -1978 2
1978 3 1977 2 0 120 0 120 -7605 0 -7605 0 0 -120z m8703 -127 c-683 -2 -1803
-2 -2490 0 -686 1 -127 2 1242 2 1370 0 1931 -1 1248 -2z m-3073 -918 c0 -69
3 -95 13 -95 9 0 8 -3 -2 -9 -23 -15 -94 -11 -113 6 -41 37 -8 123 47 123 20
0 25 5 25 25 0 14 -6 25 -12 26 -12 0 19 17 35 18 4 1 7 -42 7 -94z m1239 59
c44 -56 15 -174 -43 -174 -40 0 -61 35 -61 100 0 43 5 63 19 79 26 29 60 26
85 -5z m300 0 c44 -56 15 -174 -43 -174 -40 0 -61 35 -61 100 0 43 5 63 19 79
26 29 60 26 85 -5z m550 0 c44 -56 15 -174 -43 -174 -40 0 -61 35 -61 100 0
43 5 63 19 79 26 29 60 26 85 -5z m150 0 c44 -56 15 -174 -43 -174 -40 0 -61
35 -61 100 0 43 5 63 19 79 26 29 60 26 85 -5z m150 0 c44 -56 15 -174 -43
-174 -40 0 -61 35 -61 100 0 43 5 63 19 79 26 29 60 26 85 -5z m150 0 c44 -56
15 -174 -43 -174 -40 0 -61 35 -61 100 0 43 5 63 19 79 26 29 60 26 85 -5z
m791 -44 l55 -69 3 56 c2 46 -1 60 -14 70 -16 11 -13 13 22 12 21 0 33 -3 27
-6 -9 -3 -13 -33 -13 -100 0 -52 -4 -93 -9 -91 -5 2 -36 36 -70 76 l-61 74 0
-66 c0 -51 4 -67 18 -75 13 -8 9 -10 -23 -10 -22 0 -34 3 -27 6 8 3 12 30 12
85 0 65 -3 83 -17 94 -16 12 -15 13 12 13 25 0 39 -11 85 -69z m441 -3 c4 -5
4 -29 1 -53 -3 -27 0 -50 8 -59 11 -13 8 -15 -19 -15 -24 0 -39 -8 -58 -30
-19 -23 -33 -30 -61 -30 -53 0 -71 14 -54 40 7 11 10 25 6 31 -3 5 -1 16 6 24
7 9 8 15 0 20 -17 10 -12 63 7 74 21 11 155 9 164 -2z m173 -9 c36 -51 5 -118
-53 -118 -55 0 -82 79 -41 120 27 27 75 26 94 -2z m2576 -103 c0 -66 4 -95 12
-95 30 0 -6 -12 -49 -16 -62 -6 -87 11 -87 59 0 47 29 80 66 75 25 -4 28 -1
28 24 0 16 -5 28 -12 28 -9 0 -8 4 2 10 35 23 40 12 40 -85z m361 15 c18 -38
34 -70 38 -70 3 0 20 32 38 70 30 66 33 70 65 70 27 -1 30 -2 16 -11 -15 -8
-18 -24 -18 -89 0 -65 3 -81 18 -89 13 -8 6 -10 -33 -10 -39 0 -46 2 -32 10
14 8 17 23 16 77 l-1 67 -36 -77 c-20 -43 -39 -78 -42 -78 -3 0 -21 35 -42 78
l-36 77 -1 -67 c-1 -54 2 -69 17 -77 13 -8 9 -10 -23 -10 -32 0 -36 2 -22 10
14 8 17 24 17 89 0 65 -3 81 -17 89 -15 9 -12 10 15 11 30 0 34 -4 63 -70z
m1474 47 c22 -35 28 -81 15 -121 -13 -41 -41 -60 -76 -52 -36 9 -50 48 -46
129 4 59 77 90 107 44z m850 0 c22 -35 28 -81 15 -121 -13 -41 -41 -60 -76
-52 -36 9 -50 48 -46 129 4 59 77 90 107 44z m150 0 c22 -35 28 -81 15 -121
-13 -41 -41 -60 -76 -52 -36 9 -50 48 -46 129 4 59 77 90 107 44z m150 0 c22
-35 28 -81 15 -121 -13 -41 -41 -60 -76 -52 -36 9 -50 48 -46 129 4 59 77 90
107 44z m-3246 -63 c12 -15 21 -34 21 -44 0 -31 -39 -70 -70 -70 -38 0 -74 44
-65 80 16 63 77 81 114 34z m1551 16 c14 -4 19 -8 13 -9 -7 -1 -13 -14 -13
-29 0 -36 -16 -52 -52 -52 -15 0 -28 -4 -28 -10 0 -5 15 -10 34 -10 47 0 66
-9 66 -31 0 -24 -37 -49 -73 -49 -36 0 -70 18 -61 32 15 24 22 83 13 101 -8
13 -6 25 6 43 16 25 46 30 95 14z m-12045 -183 c22 -35 28 -81 15 -121 -13
-41 -41 -60 -76 -52 -36 9 -50 48 -46 129 4 59 77 90 107 44z m300 0 c22 -35
28 -81 15 -121 -13 -41 -41 -60 -76 -52 -36 9 -50 48 -46 129 4 59 77 90 107
44z m550 0 c22 -35 28 -81 15 -121 -13 -41 -41 -60 -76 -52 -36 9 -50 48 -46
129 4 59 77 90 107 44z m150 0 c22 -35 28 -81 15 -121 -13 -41 -41 -60 -76
-52 -36 9 -50 48 -46 129 4 59 77 90 107 44z m150 0 c22 -35 28 -81 15 -121
-13 -41 -41 -60 -76 -52 -36 9 -50 48 -46 129 4 59 77 90 107 44z m150 0 c22
-35 28 -81 15 -121 -13 -41 -41 -60 -76 -52 -36 9 -50 48 -46 129 4 59 77 90
107 44z m4584 -83 c12 -15 21 -34 21 -44 0 -31 -39 -70 -70 -70 -38 0 -74 44
-65 80 16 63 77 81 114 34z m81 16 c0 -6 8 -5 20 2 15 9 25 10 37 2 12 -7 25
-8 44 0 42 15 59 -5 59 -69 0 -33 5 -55 13 -58 6 -3 -6 -6 -28 -6 -25 0 -35 2
-27 8 9 5 12 25 10 57 -3 41 -6 49 -23 49 -17 0 -20 -8 -23 -49 -2 -32 1 -52
10 -57 8 -6 -1 -9 -26 -9 -32 0 -37 2 -27 14 7 8 11 34 9 58 -2 35 -7 43 -23
43 -17 0 -20 -8 -23 -49 -2 -32 1 -52 10 -57 8 -6 -2 -9 -26 -9 -31 0 -37 3
-28 12 16 16 16 108 0 108 -9 0 -8 4 2 10 20 13 40 13 40 0z m735 -10 c39 -43
10 -120 -44 -120 -32 0 -44 8 -60 37 -16 31 -14 47 10 77 25 32 68 35 94 6z
m4595 -40 c24 -24 24 -29 5 -57 -13 -18 -13 -22 0 -33 20 -16 19 -54 -1 -74
-11 -12 -35 -16 -92 -16 -57 1 -73 3 -59 11 14 8 17 24 17 89 0 65 -3 81 -17
89 -14 8 0 10 55 11 59 0 76 -4 92 -20z m660 -60 c42 -42 12 -120 -47 -120
-38 0 -63 27 -63 67 0 40 30 73 65 73 14 0 34 -9 45 -20z m765 0 c39 -43 10
-120 -44 -120 -32 0 -44 8 -60 37 -16 31 -14 47 10 77 25 32 68 35 94 6z m150
10 c3 -5 18 -3 34 3 44 16 61 -3 61 -68 0 -33 5 -55 13 -58 6 -3 -5 -6 -27 -6
-32 -1 -37 1 -27 13 7 8 11 34 9 58 -2 35 -7 43 -23 43 -17 0 -20 -8 -23 -49
-2 -32 1 -52 10 -57 8 -6 -1 -9 -26 -9 -32 0 -37 2 -27 14 7 8 11 34 9 58 -2
35 -7 43 -23 43 -17 0 -20 -8 -23 -49 -2 -32 1 -52 10 -57 8 -6 -2 -9 -26 -9
-31 0 -37 3 -28 12 15 15 16 94 1 104 -18 11 7 21 57 22 24 0 46 -4 49 -8z
m669 -12 c36 -51 5 -118 -53 -118 -55 0 -82 79 -41 120 27 27 75 26 94 -2z
m-14160 -230 c36 -51 5 -118 -53 -118 -55 0 -82 79 -41 120 27 27 75 26 94 -2z
m766 2 c42 -42 12 -120 -47 -120 -38 0 -63 27 -63 67 0 40 30 73 65 73 14 0
34 -9 45 -20z m80 8 c0 -9 3 -9 12 0 15 15 55 16 63 2 5 -8 11 -7 20 0 8 6 24
10 37 8 20 -3 23 -9 26 -58 2 -30 8 -60 14 -67 8 -10 2 -13 -28 -12 -22 0 -33
3 -26 6 14 6 17 113 3 113 -30 0 -41 -14 -41 -54 0 -23 5 -47 12 -54 9 -9 3
-12 -27 -11 -22 0 -34 3 -27 6 14 6 17 113 3 113 -31 0 -41 -14 -41 -60 0 -29
5 -50 13 -53 6 -3 -6 -5 -28 -5 -22 0 -34 2 -27 5 7 3 12 25 12 59 0 36 -4 54
-12 54 -9 0 -8 4 2 10 21 13 40 12 40 -2z m735 -8 c39 -43 10 -120 -44 -120
-32 0 -44 8 -60 37 -16 31 -14 47 10 77 25 32 68 35 94 6z m3565 -657 c0 -27
5 -79 10 -118 6 -38 13 -105 15 -150 3 -44 9 -120 14 -170 5 -49 14 -153 21
-230 17 -205 10 -188 83 -181 85 9 246 10 254 2 4 -4 12 -48 19 -99 l11 -92 2
70 c1 39 6 79 10 90 8 18 11 15 27 -20 11 -22 24 -43 29 -47 7 -5 7 -8 0 -8
-13 0 -7 -141 7 -157 14 -17 -1 -255 -16 -250 -6 2 -19 30 -30 63 -11 32 -20
60 -21 62 -1 1 -38 7 -81 12 -205 26 -269 37 -251 45 10 4 40 5 68 3 34 -4 48
-2 46 6 -3 7 -30 10 -78 7 -41 -2 -94 -4 -119 -5 l-45 -1 -3 46 -3 46 160 8
c132 6 159 9 154 21 -4 11 -9 12 -18 4 -8 -6 -55 -11 -107 -11 -51 0 -114 -2
-140 -6 l-48 -5 0 556 c0 488 2 556 15 556 11 0 15 -12 15 -47z m360 10 c0
-21 5 -99 10 -173 5 -74 10 -177 11 -227 l2 -93 35 0 34 0 -6 -53 c-4 -30 -9
-73 -11 -97 -2 -24 -9 -55 -15 -70 -11 -26 -14 -27 -115 -33 -126 -7 -165 4
-165 45 0 30 9 35 28 16 23 -23 12 7 -13 36 -14 16 -25 32 -26 35 -4 21 -11
159 -13 224 0 42 -3 77 -6 77 -3 0 -5 79 -5 175 l0 175 128 0 127 0 0 -37z
m2708 -3 c2 -19 1 -58 -3 -87 -6 -50 -8 -53 -40 -59 -27 -5 -34 -11 -37 -35
-3 -17 1 -34 9 -40 17 -15 17 -35 -2 -43 -8 -3 -15 -13 -15 -21 0 -9 5 -13 10
-10 6 3 10 -3 10 -14 0 -12 -6 -22 -12 -22 -7 -1 5 -5 26 -8 56 -9 57 -27 1
-23 -25 2 -46 9 -46 16 -1 6 -1 21 -2 33 0 12 -3 20 -8 17 -4 -2 -6 -11 -2
-19 7 -21 -11 -19 -29 3 -12 14 -13 48 -10 185 l4 168 72 -3 71 -3 3 -35z
m1282 -54 l0 -95 -47 -3 c-43 -3 -48 -5 -46 -25 2 -17 -2 -23 -17 -23 -27 0
-44 42 -21 51 9 4 19 5 23 3 4 -3 9 0 13 5 3 6 -22 9 -65 8 -81 -3 -105 -20
-67 -49 32 -25 15 -32 -24 -10 -19 11 -74 41 -124 67 -49 26 -132 70 -183 97
l-93 50 3 -29 c2 -23 14 -34 63 -59 52 -27 60 -35 63 -62 2 -18 -1 -32 -7 -32
-6 0 -11 -3 -11 -7 0 -5 15 -9 34 -9 19 -1 42 -9 51 -18 9 -9 24 -16 33 -17
11 0 12 -2 5 -6 -7 -2 -13 -11 -13 -18 0 -7 -5 -15 -11 -17 -5 -2 -13 -38 -16
-81 -5 -66 -4 -77 10 -77 21 0 28 13 38 74 9 61 1 -122 -11 -224 l-7 -65 -14
32 -13 32 -13 -30 c-7 -17 -10 -36 -6 -42 4 -6 -2 -8 -15 -5 -14 4 -19 2 -16
-7 3 -7 0 -16 -5 -20 -6 -3 -9 -11 -6 -16 4 -5 4 -9 0 -9 -3 0 -10 10 -15 23
-8 20 -9 21 -9 2 -1 -11 -10 -28 -20 -37 -18 -15 -21 -15 -37 3 -10 11 -24 17
-31 14 -8 -2 -11 0 -8 5 3 6 0 10 -9 10 -8 0 -16 6 -19 13 -2 6 -8 9 -12 5
-11 -10 -23 -85 -16 -97 4 -6 46 -26 95 -46 78 -31 92 -34 125 -25 31 9 234
25 381 31 25 1 55 8 68 16 l22 13 0 -90 c0 -105 10 -99 -125 -71 -142 30 -245
44 -245 32 0 -3 30 -21 67 -39 102 -50 183 -105 178 -120 -3 -7 0 -10 5 -7 6
3 30 -10 54 -29 23 -20 48 -36 55 -36 12 0 14 -206 2 -250 l-7 -25 -6 24 c-4
13 -2 32 5 42 9 14 7 29 -5 68 -9 28 -12 51 -8 51 5 0 11 -6 13 -12 3 -7 6 -3
6 8 1 13 -10 29 -25 39 -18 11 -23 20 -16 27 12 12 4 40 -9 32 -7 -4 -88 54
-119 86 -13 13 -90 60 -90 54 0 -3 -12 3 -27 13 -28 19 -40 25 -118 58 -76 33
-110 48 -185 83 -41 19 -108 48 -150 64 -41 17 -77 32 -80 35 -3 3 18 3 45 1
45 -3 50 -1 53 20 3 22 -12 31 -22 13 -3 -5 -17 -11 -31 -14 -24 -4 -26 -2
-23 31 3 32 7 37 37 43 42 9 59 31 43 56 -12 18 -62 4 -62 -18 0 -11 -4 -19
-9 -19 -5 0 -6 12 -2 26 5 22 17 30 61 43 l55 17 3 79 c3 67 1 81 -15 93 -17
14 -17 14 5 9 19 -5 22 -1 21 26 -1 24 -3 26 -6 10 -7 -38 -21 -26 -18 15 1
20 0 25 -2 9 -2 -15 -9 -25 -14 -22 -5 4 -9 1 -9 -5 0 -6 -4 -9 -8 -6 -5 3 -9
54 -11 113 -1 82 1 104 10 93 9 -12 10 -11 4 5 -8 25 -8 19 -6 88 l1 57 365 0
365 0 0 -94z m-2168 54 c113 -6 226 -15 250 -20 28 -5 4 -6 -72 -2 -63 4 -302
7 -530 6 -515 0 -625 -13 -647 -72 -10 -24 30 -496 52 -624 4 -26 2 -28 -28
-28 -38 0 -52 8 -60 35 -12 37 -37 389 -37 507 0 111 1 117 24 135 68 54 600
86 1048 63z m2158 -181 c-11 -8 -12 -12 -2 -16 9 -3 12 -58 12 -224 l0 -220
-32 5 c-18 3 -73 8 -122 11 -49 3 -94 9 -99 12 -5 3 -7 26 -5 52 3 25 2 57 -2
71 -7 22 -8 19 -9 -15 -2 -42 -15 -67 -43 -78 -21 -8 -24 5 -20 103 3 65 6 79
21 83 24 6 40 129 21 152 -9 11 -9 15 -1 15 6 0 11 -4 11 -10 0 -5 10 -11 23
-11 15 -1 17 -3 5 -6 -13 -3 -17 -19 -20 -70 -3 -73 4 -95 21 -67 11 17 12 16
6 -8 -3 -16 -1 -28 5 -28 5 0 10 13 10 29 0 36 19 93 30 86 4 -2 27 1 51 9
l44 13 -29 8 c-19 5 -36 4 -49 -4 -15 -10 -18 -10 -15 1 3 7 21 14 41 16 29 3
37 7 37 23 0 14 -7 19 -27 20 -30 1 -27 2 65 20 30 6 50 15 46 20 -3 6 -12 8
-20 5 -7 -3 -16 -1 -19 4 -3 5 12 10 32 12 45 4 53 0 33 -13z m3160 -70 c0 -7
5 -8 13 -2 17 13 71 17 63 5 -3 -6 -2 -21 3 -34 7 -17 10 -18 10 -5 1 10 9 17
21 17 21 0 27 -15 10 -25 -5 -3 -7 -11 -5 -18 7 -17 -11 -41 -24 -33 -6 4 -9
12 -6 17 4 5 2 9 -3 9 -5 0 -15 11 -22 25 -7 14 -15 23 -17 21 -3 -2 0 -14 7
-25 9 -17 8 -21 -5 -21 -13 0 -14 -4 -4 -21 8 -16 13 -18 19 -9 12 20 44 -37
46 -84 2 -39 -7 -56 -33 -56 -7 0 -15 11 -19 25 -6 23 -24 36 -24 16 0 -5 -6
-11 -13 -14 -10 -4 -14 9 -16 50 -2 47 0 55 13 50 21 -8 16 13 -9 38 -21 20
-25 28 -25 45 0 6 -7 10 -15 10 -8 0 -15 -4 -15 -10 0 -5 -4 -10 -9 -10 -5 0
-8 11 -8 25 0 22 4 25 33 25 19 0 34 -5 34 -11z m590 1 c25 0 107 2 183 6 130
5 139 4 156 -15 17 -20 18 -20 31 0 15 20 60 27 60 9 0 -5 -6 -10 -12 -10 -8
-1 -5 -6 5 -15 13 -9 20 -32 24 -74 6 -65 -6 -94 -36 -89 -10 2 -17 -6 -19
-22 -3 -20 -1 -22 10 -12 11 9 19 8 34 -3 15 -11 16 -15 4 -16 -8 -1 -19 -1
-23 0 -4 1 -13 -12 -18 -29 -10 -28 -29 -42 -29 -20 0 6 5 10 10 10 6 0 10 9
10 21 0 14 -5 19 -14 16 -10 -4 -13 -1 -9 9 4 10 0 12 -13 7 -23 -8 -34 -22
-34 -45 0 -11 5 -15 15 -12 8 4 15 1 15 -5 0 -6 -3 -10 -7 -10 -20 3 -24 -2
-13 -16 11 -13 10 -14 -2 -10 -9 4 -20 -8 -32 -35 -10 -23 -24 -44 -32 -47
-18 -7 0 -33 23 -33 8 0 11 -5 8 -11 -5 -7 -13 -5 -24 5 -10 9 -21 16 -25 16
-15 0 -33 -25 -28 -42 6 -25 -13 -45 -40 -43 -29 2 -25 20 4 20 23 0 35 19 19
30 -6 3 -11 1 -11 -6 0 -8 -10 -9 -30 -5 -28 5 -31 3 -36 -24 -4 -16 -12 -35
-20 -41 -11 -9 -13 -4 -11 23 1 18 7 36 12 40 6 5 3 8 -7 8 -9 0 -20 -5 -23
-10 -4 -6 -11 -8 -16 -5 -5 4 -9 2 -9 -3 0 -5 -11 -21 -25 -36 -14 -15 -23
-32 -20 -37 8 -13 2 -11 -31 6 -27 14 -27 15 -6 15 19 0 22 5 22 39 0 22 -6
42 -12 45 -7 3 2 3 19 0 44 -8 96 13 119 47 10 16 26 30 34 33 12 3 11 4 -2 5
-9 0 -24 -9 -32 -21 -9 -12 -16 -19 -16 -15 0 4 -10 3 -21 -4 -12 -6 -19 -7
-15 -1 8 13 -35 24 -48 13 -6 -5 -22 -11 -36 -13 -14 -1 -29 -13 -35 -25 -5
-13 -17 -23 -25 -23 -12 0 -12 2 -1 9 10 6 10 10 2 16 -7 4 -21 -3 -32 -16
-19 -22 -19 -24 -2 -30 16 -5 15 -7 -5 -18 -24 -13 -26 -10 -22 42 1 15 -3 27
-9 27 -6 0 -11 8 -12 18 0 14 -2 13 -11 -4 -5 -12 -21 -27 -34 -33 -13 -6 -24
-15 -24 -21 0 -15 -26 -12 -43 5 -8 8 -18 11 -21 7 -4 -3 -10 -1 -14 5 -5 7
-15 7 -32 1 -24 -10 -24 -11 -5 -18 17 -7 17 -9 3 -9 -10 -1 -18 -5 -18 -10 0
-14 27 -20 38 -9 8 8 10 4 6 -13 -4 -24 -4 -24 7 -2 6 12 20 24 31 26 17 5 19
2 13 -20 -15 -61 -17 -83 -7 -83 5 0 10 -6 9 -12 -1 -48 3 -55 33 -50 17 2 30
8 30 12 0 5 8 6 18 3 25 -6 22 -61 -3 -80 -17 -12 -17 -13 -2 -13 9 0 17 -4
17 -10 0 -15 -16 -12 -29 4 -10 11 -8 16 5 24 15 8 14 11 -10 27 -15 10 -30
14 -34 10 -4 -4 -1 -10 6 -12 20 -8 13 -26 -8 -20 -11 3 -22 1 -25 -3 -4 -7
-27 -7 -83 -1 -7 0 -10 6 -7 11 4 6 12 10 18 9 7 -1 22 2 34 6 17 5 20 12 16
33 -3 15 -5 35 -5 45 0 10 -6 17 -17 17 -10 0 -22 13 -30 35 -8 23 -17 33 -24
28 -26 -16 -36 -9 -46 35 -10 44 -30 167 -37 222 -1 14 -7 47 -12 73 -10 51
-6 87 9 87 5 0 6 18 3 40 -4 26 -3 40 4 40 18 0 24 -20 12 -35 -8 -10 -9 -15
-2 -15 6 0 19 16 28 35 9 19 21 35 28 35 6 0 4 5 -4 10 -10 7 40 9 160 5 96
-3 195 -5 220 -5z m605 1 c-3 -5 -1 -13 5 -16 6 -4 9 -1 8 7 -2 9 12 14 47 16
l50 2 -27 -17 c-33 -20 -37 -37 -8 -28 11 4 20 2 20 -4 0 -6 -6 -11 -14 -11
-10 0 -13 -8 -10 -27 3 -22 2 -25 -6 -13 -9 13 -13 12 -29 -7 -10 -12 -22 -19
-26 -15 -5 4 -6 0 -3 -8 6 -18 -28 -54 -38 -39 -3 6 -11 3 -20 -8 -7 -10 -14
-16 -15 -13 -4 19 -10 65 -15 123 l-6 67 47 0 c26 0 44 -4 40 -9z m360 -21
c-3 -4 0 -10 6 -12 9 -3 9 -9 1 -24 -11 -21 -52 -30 -63 -12 -4 6 -12 7 -20 2
-8 -5 -21 -9 -29 -9 -9 0 -16 -11 -18 -27 -3 -21 0 -27 11 -22 10 3 18 -2 22
-15 3 -12 13 -21 20 -21 9 0 12 6 9 15 -4 8 -2 15 4 15 5 0 12 -9 15 -20 3
-13 14 -20 29 -20 14 0 27 -3 30 -6 8 -8 -3 -45 -12 -39 -4 3 -22 -2 -39 -11
-18 -9 -41 -14 -52 -11 -20 5 -58 -25 -60 -47 -1 -6 -2 -17 -3 -25 0 -8 -7
-15 -14 -17 -7 -1 -8 0 -2 3 8 3 7 9 -1 19 -9 11 -9 14 1 14 10 0 10 3 0 15
-7 8 -18 15 -24 15 -6 0 -4 -5 4 -10 13 -9 12 -13 -7 -29 -23 -20 -30 -41 -14
-41 5 0 8 -6 7 -12 -4 -27 -18 -38 -49 -35 -29 2 -32 -1 -29 -22 1 -14 -3 -28
-10 -33 -9 -5 -8 -8 5 -8 10 0 17 -5 15 -11 -2 -6 -8 -10 -13 -10 -14 0 -26
-35 -19 -57 5 -13 4 -14 -4 -3 -7 10 -14 11 -28 3 -18 -10 -17 -11 6 -21 28
-11 28 -11 -17 -17 -29 -5 -33 -2 -41 28 -7 24 -5 37 4 49 8 8 16 30 18 48 2
19 9 37 15 41 7 4 14 27 17 51 8 67 9 73 18 87 10 16 46 16 46 0 0 -9 3 -9 9
1 5 8 16 11 26 7 9 -3 23 1 31 9 14 13 12 15 -18 15 -32 0 -32 0 -10 16 12 8
27 12 32 9 6 -3 10 -1 10 4 0 6 -7 11 -15 11 -13 0 -13 3 -3 20 7 11 18 18 25
16 7 -3 15 0 19 6 5 8 -2 9 -24 5 -20 -4 -32 -2 -35 6 -4 9 -7 9 -17 0 -10 -9
-10 -15 -1 -26 9 -12 8 -16 -4 -21 -11 -4 -15 2 -15 24 0 40 31 57 73 37 11
-5 17 -3 17 5 1 24 38 58 64 58 13 0 27 4 31 10 3 5 11 7 19 4 7 -3 18 7 24
21 7 14 17 23 22 20 6 -4 8 -10 5 -15z m-1765 -46 c0 -8 4 -13 9 -10 26 16 36
-6 37 -79 1 -71 0 -76 -22 -81 -13 -3 -21 -10 -18 -15 3 -5 0 -9 -6 -9 -7 0
-23 -9 -37 -20 -23 -18 -23 -20 -6 -20 10 0 24 -5 31 -12 9 -9 16 -7 32 7 11
10 23 15 28 11 4 -4 8 -43 8 -87 1 -64 -1 -81 -15 -89 -15 -9 -15 -11 2 -24
13 -10 15 -21 11 -45 -7 -34 -20 -41 -27 -13 -3 10 -5 5 -7 -13 -1 -16 -4 -24
-7 -17 -7 18 -32 -15 -33 -43 -1 -18 -1 -19 -11 -2 -5 9 -21 17 -34 17 -14 0
-25 5 -25 11 0 5 -4 8 -9 4 -6 -3 -15 4 -21 15 -6 11 -15 18 -20 15 -13 -8 -1
-35 16 -35 8 0 14 -5 14 -11 0 -5 5 -7 11 -3 7 4 10 1 7 -7 -6 -18 -59 -31
-74 -18 -8 7 -14 6 -17 -3 -4 -8 -8 -9 -14 -3 -4 6 -19 11 -31 11 -19 1 -23
-2 -18 -20 5 -19 4 -20 -8 -3 -20 26 -26 21 -16 -15 9 -30 8 -31 -5 -14 -9 12
-15 14 -15 7 0 -7 9 -24 20 -38 21 -27 20 -41 -2 -27 -7 5 -28 10 -47 11 -32
2 -33 1 -16 -17 10 -11 13 -20 8 -20 -6 0 -16 7 -23 15 -7 8 -18 15 -24 14 -7
0 -6 -2 2 -6 6 -2 9 -9 6 -15 -4 -6 0 -14 7 -19 11 -7 11 -9 -3 -9 -9 0 -20 9
-23 20 -3 11 -10 20 -15 20 -4 0 -10 13 -12 29 l-4 28 47 -12 c26 -7 52 -16
58 -19 15 -10 14 17 -1 32 -9 9 -9 12 0 12 20 0 13 17 -10 25 -22 8 -22 8 4
12 14 2 29 11 32 18 3 8 0 14 -7 12 -7 -1 -12 10 -12 28 0 19 -5 29 -12 27 -7
-1 -13 5 -13 13 0 13 12 19 32 16 4 0 5 5 3 12 -7 19 21 50 37 41 7 -5 17 -9
22 -9 5 0 11 -6 14 -12 2 -7 -1 -13 -7 -13 -6 0 -11 -4 -11 -10 0 -5 12 -10
28 -10 15 0 22 4 16 8 -6 4 -14 17 -18 29 -4 11 -18 24 -31 27 -15 4 -25 14
-25 24 0 10 3 13 8 6 4 -6 15 -11 25 -11 15 0 16 2 3 23 -14 20 -13 22 7 28
17 5 19 8 8 15 -25 16 -1 33 40 28 30 -3 39 -1 39 10 0 11 7 14 24 11 20 -4
27 1 37 26 7 17 21 39 31 49 10 10 18 23 18 29 0 9 -3 9 -12 0 -7 -7 -18 -12
-26 -12 -11 0 -12 3 -3 14 8 10 9 16 1 21 -5 3 -13 -1 -16 -9 -10 -25 -23 -19
-37 17 l-14 32 -5 -33 c-3 -22 -1 -31 7 -28 6 2 22 -5 36 -15 22 -17 23 -19 4
-20 -11 -1 -26 -1 -33 0 -8 1 -20 -3 -28 -10 -8 -6 -14 -8 -14 -4 0 4 -7 2
-15 -5 -9 -8 -15 -9 -15 -2 0 6 5 14 10 17 6 3 10 24 10 45 0 21 5 42 10 45 6
4 8 10 5 15 -3 5 13 15 36 22 23 6 37 14 30 16 -6 2 -11 7 -11 12 0 11 46 18
61 9 7 -4 17 -5 24 -3 16 7 15 34 -2 34 -8 0 -11 5 -8 10 10 16 35 12 35 -6z
m-360 -164 c-16 -21 -30 -42 -30 -47 0 -5 -5 -14 -12 -21 -7 -7 -12 -24 -13
-40 0 -16 -5 -26 -12 -24 -7 1 -13 -5 -13 -13 0 -8 9 -15 20 -15 22 0 26 -20
8 -38 -9 -9 -7 -12 11 -12 17 0 21 4 16 19 -3 12 0 21 10 25 12 4 15 -2 15
-30 0 -21 4 -33 10 -29 6 4 8 10 5 15 -6 10 11 48 29 65 13 12 56 15 56 4 0
-4 -9 -17 -21 -30 -11 -13 -17 -18 -13 -10 4 9 2 12 -7 9 -8 -3 -13 -11 -11
-17 1 -7 -2 -10 -8 -6 -5 3 -10 1 -10 -5 0 -7 9 -14 20 -17 11 -3 20 -11 20
-18 0 -17 -25 -37 -34 -27 -4 4 -7 2 -6 -3 5 -22 -1 -26 -15 -11 -8 8 -15 19
-15 25 0 6 -4 11 -10 11 -5 0 -10 -4 -10 -10 0 -19 -18 -10 -24 13 -6 21 -7
21 -20 4 -8 -10 -23 -19 -35 -20 -12 -1 -21 -5 -21 -11 0 -5 -10 2 -22 15 -18
20 -20 21 -14 4 10 -25 14 -43 9 -32 -8 13 -33 7 -33 -9 0 -9 -6 -14 -12 -11
-15 5 -14 57 1 66 6 4 7 12 0 21 -8 13 -10 13 -18 0 -9 -12 -11 -12 -16 2 -9
23 -1 54 13 51 7 -2 12 2 12 7 0 6 -4 10 -10 10 -5 0 -10 8 -10 18 0 10 3 13
8 6 4 -6 16 -14 27 -18 13 -5 16 -9 8 -14 -12 -8 -3 -32 13 -35 5 -1 8 -5 7
-9 -2 -5 1 -8 6 -8 5 0 11 9 14 21 5 17 9 19 26 10 32 -18 36 -13 7 10 -28 22
-26 39 4 39 10 0 22 5 26 11 4 8 -3 9 -26 4 -24 -5 -31 -4 -28 6 2 7 12 13 22
15 34 5 48 14 42 29 -3 8 6 27 19 41 14 15 25 33 25 40 0 13 28 24 43 16 4 -2
-6 -21 -23 -42z m-5962 4 c15 -4 22 -14 22 -30 0 -15 -5 -22 -13 -18 -7 2 -40
-2 -72 -11 -67 -17 -171 -20 -180 -5 -15 24 7 48 53 58 55 11 157 14 190 6z
m6593 -18 c9 -4 20 -6 25 -5 25 4 33 -5 38 -43 4 -24 12 -72 18 -106 9 -55 8
-66 -6 -80 -15 -15 -16 -15 -16 1 0 9 -5 17 -11 17 -8 0 -8 4 -1 13 16 19 -22
51 -46 39 -9 -5 -23 -7 -31 -4 -18 6 47 36 72 33 9 -1 17 3 17 9 0 6 -5 8 -10
5 -6 -4 -17 -1 -25 5 -12 10 -16 9 -20 -2 -8 -21 -35 -18 -35 3 0 28 -17 31
-39 7 -25 -27 -31 -22 -38 33 -5 34 -8 39 -14 24 -6 -17 -8 -17 -8 -3 -1 10
15 28 35 41 37 23 65 27 95 13z m-7007 -321 c15 -8 32 -15 37 -15 5 0 89 -40
188 -89 98 -49 185 -91 192 -93 8 -3 12 -8 9 -11 -3 -3 -23 3 -45 13 -201 91
-235 103 -235 79 0 -5 4 -8 9 -5 5 4 22 1 37 -5 23 -8 25 -12 14 -20 -13 -8
-13 -10 0 -20 12 -8 12 -9 -5 -6 -11 2 -19 8 -18 14 1 6 -9 13 -22 15 -15 3
-22 1 -18 -5 4 -6 -2 -8 -13 -5 -11 3 -25 -1 -31 -7 -21 -22 7 -41 92 -63 97
-25 131 -37 140 -51 3 -6 19 -11 34 -11 26 0 51 -16 51 -32 0 -5 -11 -6 -25
-4 -42 8 -65 17 -65 26 0 5 -16 12 -35 16 -19 3 -37 10 -40 13 -2 4 -28 6 -58
3 -47 -4 -57 -1 -86 23 -18 16 -30 34 -27 41 3 9 -2 14 -13 14 -10 0 -39 23
-66 51 -41 43 -49 58 -53 100 -5 55 2 60 52 34z m5996 -29 c0 -15 -14 -35 -21
-30 -5 3 -9 -1 -9 -10 0 -8 -3 -23 -7 -33 -7 -17 -6 -17 11 0 21 20 28 21 44
5 19 -19 15 -48 -8 -48 -11 0 -20 -4 -20 -10 0 -5 3 -9 8 -9 33 6 47 -33 16
-45 -13 -5 -15 -2 -11 15 4 16 3 19 -5 11 -6 -6 -16 -8 -23 -6 -9 4 -11 -3 -7
-22 4 -20 2 -25 -8 -19 -9 5 -11 3 -6 -6 3 -8 9 -22 12 -31 4 -10 13 -18 20
-18 8 0 14 -5 14 -11 0 -6 -10 -9 -22 -7 -15 2 -22 9 -20 19 1 10 -6 19 -19
22 -15 4 -20 11 -15 23 4 12 2 15 -9 10 -8 -3 -14 -2 -13 2 1 4 -3 17 -10 29
-14 24 -4 37 18 22 13 -7 13 -10 1 -18 -15 -10 -5 -18 24 -17 16 1 19 7 17 33
-3 28 -1 32 15 28 10 -3 4 1 -13 9 -40 19 -47 39 -23 64 10 12 19 28 19 37 0
9 9 15 25 15 14 0 25 -2 25 -4z m-4960 -307 c22 -12 43 -25 46 -30 3 -5 13 -9
24 -9 10 0 21 -7 24 -16 4 -10 13 -13 27 -9 22 7 69 -11 69 -27 0 -4 -8 -8
-17 -9 -14 0 -15 -2 -3 -6 8 -3 18 -10 21 -15 3 -5 19 -11 35 -14 16 -3 63
-17 104 -31 41 -14 81 -26 88 -26 6 0 12 -5 12 -10 0 -6 3 -7 6 -4 8 7 44 -36
44 -52 0 -6 -12 -9 -27 -6 -90 14 -186 14 -219 0 -18 -7 -34 -19 -34 -26 0 -9
3 -9 14 0 20 17 59 22 67 10 5 -8 21 -8 59 0 37 8 57 8 64 1 5 -5 24 -10 41
-10 19 0 35 -7 42 -19 8 -13 19 -17 37 -14 14 3 24 9 21 13 -3 5 4 6 15 3 11
-3 20 -9 20 -14 0 -5 16 -1 35 8 32 15 36 15 48 1 9 -13 21 -15 59 -9 51 8 75
1 63 -19 -5 -8 -4 -11 3 -6 6 3 13 -3 17 -13 7 -24 -4 -89 -16 -97 -5 -3 -9
-10 -9 -16 0 -7 5 -6 15 2 21 17 30 76 17 116 -5 19 -6 34 -1 34 4 0 13 -17
19 -38 7 -29 7 -50 -4 -85 l-14 -46 22 16 c12 9 22 26 22 37 -1 22 4 23 41 12
18 -6 24 -2 29 18 4 16 18 29 42 39 43 16 112 11 112 -8 0 -16 -38 -16 -58 -2
-9 8 -12 6 -10 -4 2 -8 -3 -13 -10 -11 -8 1 -11 -2 -7 -7 3 -6 19 -8 35 -6 27
3 30 1 30 -26 0 -27 -3 -30 -22 -23 -21 6 -21 6 -4 -11 16 -17 16 -19 -5 -41
-19 -20 -20 -24 -6 -24 23 0 22 -20 0 -21 -10 -1 -29 -3 -43 -5 -14 -1 -32 0
-40 3 -33 13 -59 11 -64 -4 -4 -9 -5 -17 -4 -18 2 -1 12 -7 23 -14 19 -11 19
-12 -2 -6 -14 4 -23 2 -23 -4 0 -6 21 -11 48 -12 40 0 43 -2 23 -10 -15 -6
-21 -15 -17 -24 4 -10 -1 -15 -15 -15 -11 0 -18 4 -15 8 2 4 -7 8 -22 7 -18 0
-30 8 -38 24 -10 20 -13 21 -21 7 -11 -20 -84 -11 -76 10 5 15 49 45 69 48 20
3 30 16 13 17 -8 1 -20 1 -26 0 -18 -3 -16 9 5 26 13 12 12 12 -8 0 -14 -9
-24 -20 -23 -26 2 -6 -4 -8 -12 -5 -8 4 -15 1 -15 -5 0 -19 -60 -12 -111 14
-27 13 -49 20 -49 15 0 -13 42 -40 63 -40 13 0 17 -5 13 -15 -4 -12 0 -14 22
-10 15 3 21 2 15 -1 -18 -8 -16 -24 2 -24 8 0 15 -4 15 -10 0 -14 -8 -13 -44
9 -17 10 -67 24 -111 31 -78 13 -223 50 -276 71 -24 9 -28 19 -40 90 -7 43
-16 79 -20 79 -5 0 -6 -30 -4 -67 4 -55 3 -61 -5 -33 -5 19 -10 58 -11 85 -3
63 -8 73 -71 133 -52 50 -52 51 -34 71 17 19 18 21 2 21 -9 0 -14 5 -11 10 3
6 -1 10 -10 10 -11 0 -15 5 -11 15 3 9 0 15 -9 15 -7 0 -20 6 -27 13 -7 7 -20
16 -29 19 -20 8 -64 68 -50 68 6 0 29 -9 51 -21z m-220 -110 c0 -5 4 -8 9 -5
14 9 60 -18 73 -44 7 -14 17 -32 24 -40 6 -8 17 -33 24 -55 7 -22 17 -49 23
-60 6 -11 12 -47 14 -80 3 -33 11 -83 19 -111 12 -41 12 -57 3 -78 -13 -28
-49 -36 -49 -11 0 8 -4 15 -9 15 -6 0 -18 26 -28 58 -10 31 -21 59 -25 60 -5
2 -8 8 -8 14 0 14 -90 207 -112 239 -17 26 -17 26 7 39 30 16 33 34 5 25 -15
-5 -20 -2 -20 13 0 10 3 22 7 25 10 11 43 8 43 -4z m-4730 -98 c140 -32 341
-120 381 -167 7 -9 -8 -2 -33 15 -83 56 -254 121 -372 142 -73 12 -109 2 -177
-53 -43 -34 -139 -144 -139 -158 0 -4 16 -11 36 -15 20 -3 33 -9 30 -12 -10
-10 15 -33 36 -33 14 0 18 5 14 15 -7 20 10 19 164 -5 166 -25 372 -66 492
-96 53 -13 99 -24 102 -24 3 0 6 13 6 28 0 34 -33 81 -98 141 l-47 43 53 -43
c30 -23 77 -69 105 -101 29 -33 75 -77 104 -99 33 -24 50 -44 47 -53 -3 -8 -1
-17 5 -21 16 -10 13 -35 -3 -29 -16 6 -41 -30 -31 -45 3 -5 -8 -5 -23 1 -43
16 -77 3 -111 -44 -35 -48 -37 -47 -16 12 8 23 15 45 15 49 0 4 -35 12 -77 18
-43 7 -98 16 -123 22 -25 5 -65 12 -90 15 -227 28 -554 81 -573 93 -7 4 -19 6
-29 5 -25 -4 -30 14 -13 47 21 42 19 51 -15 51 -44 0 -94 -70 -86 -120 5 -29
4 -31 -4 -12 -5 13 -14 20 -20 17 -6 -4 -36 21 -68 54 -35 36 -79 70 -108 83
-67 30 -154 29 -217 -1 -57 -27 -133 -109 -172 -184 -16 -31 -36 -58 -45 -62
-55 -20 -73 -23 -105 -14 -29 8 -36 16 -47 56 -8 29 -23 54 -41 67 -27 20 -40
21 -254 20 -181 -1 -227 -4 -234 -15 -5 -8 -9 20 -11 76 l-3 90 -50 6 c-38 4
-57 1 -80 -13 -16 -10 -30 -22 -30 -28 0 -5 -4 -10 -10 -11 -5 0 -15 -5 -21
-10 -8 -6 -11 0 -10 20 1 29 5 31 99 61 53 18 104 29 113 26 8 -3 12 -2 9 4
-3 6 -3 10 2 10 4 0 44 7 88 15 231 44 437 53 720 35 190 -13 515 -51 515 -60
0 -5 18 -3 39 4 26 7 54 28 81 58 22 26 71 70 108 97 77 59 92 61 222 32z
m3832 -38 c21 -45 65 -62 169 -69 52 -4 100 -10 107 -14 7 -3 -42 -14 -110
-24 -121 -17 -196 -30 -270 -46 -41 -9 -45 -5 -23 24 8 10 12 23 9 28 -3 5 2
16 12 23 17 13 13 14 -36 15 -50 1 -53 2 -36 15 27 20 83 30 99 17 10 -9 17
-3 32 23 22 42 30 43 47 8z m3794 -36 c21 -18 29 -39 40 -97 14 -83 17 -218 4
-295 l-7 -50 -3 50 c-1 28 -1 57 0 65 1 8 -1 71 -5 139 -7 119 -9 126 -35 153
-32 31 -19 31 -235 2 -204 -28 -326 -48 -645 -105 -58 -10 -112 -19 -120 -18
-29 1 74 28 169 44 53 9 141 25 196 35 55 11 132 24 170 30 39 5 108 16 154
24 72 13 161 22 259 25 13 1 20 6 17 11 -11 18 13 10 41 -13z m-3484 -81 c7
-8 37 -40 66 -72 29 -33 69 -76 88 -96 19 -21 34 -42 34 -48 0 -5 6 -10 14
-10 8 0 19 -15 26 -32 10 -29 12 -31 21 -15 6 9 14 17 19 17 11 0 41 -67 39
-84 -1 -6 7 -31 19 -56 27 -59 41 -170 20 -170 -8 0 -23 -7 -34 -16 -18 -15
-18 -15 3 -5 43 21 47 15 76 -117 15 -70 28 -134 27 -143 0 -9 7 -22 15 -29 8
-7 15 -16 15 -20 0 -11 -81 -30 -132 -31 -24 0 -52 -5 -63 -10 -20 -9 -13 -8
127 6 62 7 57 12 74 -79 3 -16 7 -33 10 -38 7 -11 34 -10 34 2 0 5 -6 9 -12 7
-18 -3 -22 39 -4 46 10 4 23 -5 36 -23 12 -17 26 -30 32 -30 5 0 22 -8 36 -18
28 -19 127 -52 155 -52 24 0 21 -17 -3 -25 -24 -7 -26 -23 -5 -31 22 -9 18
-18 -15 -32 -17 -8 -35 -23 -41 -34 -10 -18 -8 -19 13 -13 26 8 67 53 68 74 0
8 7 23 17 33 14 16 33 18 152 18 75 0 186 7 246 15 61 8 110 15 111 15 1 0
-10 -23 -23 -50 -18 -39 -21 -54 -13 -68 8 -12 10 -13 8 -2 -3 18 27 96 41
104 13 8 91 -4 91 -14 0 -4 -18 -10 -39 -14 -51 -8 -64 -26 -19 -26 19 0 74
-20 128 -45 145 -70 160 -79 160 -92 0 -8 13 -13 33 -13 17 0 59 -9 91 -20 75
-25 237 -58 328 -67 54 -5 72 -10 84 -27 14 -20 16 -20 25 -3 7 12 23 17 54
17 52 0 66 -15 30 -32 -21 -9 -31 -9 -46 0 -23 15 -32 15 -24 2 3 -5 1 -10 -4
-10 -6 0 -11 -8 -11 -19 0 -12 -12 -23 -32 -31 -18 -7 -60 -25 -93 -40 -161
-74 -191 -83 -235 -70 -23 7 -36 7 -38 0 -2 -5 -13 -10 -25 -10 -20 0 -20 0
-1 -14 25 -18 20 -22 -41 -33 -60 -10 -106 -6 -84 8 11 7 10 9 -4 9 -25 0 -16
24 11 28 28 4 48 30 35 43 -8 8 -14 5 -22 -10 -7 -12 -17 -18 -26 -15 -9 4
-15 0 -15 -10 0 -9 -5 -16 -10 -16 -7 0 -7 -6 0 -19 14 -27 13 -42 -4 -39 -14
3 -16 0 -16 -22 0 -6 52 -10 141 -9 131 0 171 7 189 31 3 4 35 15 70 24 49 12
68 14 82 5 15 -9 24 -8 41 4 24 17 67 20 67 5 0 -5 -11 -10 -25 -10 -14 0 -25
-4 -25 -10 0 -5 -10 -18 -22 -30 l-22 -20 22 0 c12 0 21 3 21 7 -3 21 2 32 14
27 17 -6 61 32 52 45 -5 10 39 16 93 14 7 -1 11 5 8 13 -3 9 1 14 12 15 12 0
9 4 -8 11 l-25 10 22 10 c12 6 23 19 26 29 3 10 18 24 34 30 15 5 71 31 123
56 81 39 111 48 203 60 59 8 128 23 153 33 25 11 109 35 187 54 78 20 207 56
287 81 173 55 241 75 258 75 9 0 12 -44 12 -189 0 -217 13 -196 -120 -200 -47
-1 -87 -5 -90 -7 -2 -3 43 -4 100 -3 l105 2 3 -92 3 -91 -2191 0 -2190 0 0
115 0 115 38 1 c20 0 46 5 57 10 14 7 3 8 -37 5 l-58 -5 0 70 0 69 48 -7 c26
-3 53 -11 61 -17 11 -9 13 -8 9 4 -2 8 -29 21 -59 29 -64 17 -66 18 -51 33 15
15 16 32 2 23 -6 -4 -10 25 -10 80 0 81 2 87 28 112 l27 25 -27 -16 -28 -16 0
95 c0 77 3 95 15 96 35 3 40 5 38 17 -2 7 3 12 11 12 21 0 116 50 116 61 0 5
8 9 18 9 10 0 22 4 28 9 5 5 18 11 29 13 17 4 16 6 -7 12 -21 6 -48 -3 -131
-43 -57 -28 -107 -51 -111 -51 -3 0 -6 126 -6 280 l0 280 43 27 c92 58 141 93
185 134 26 23 57 51 68 61 25 22 151 50 333 73 69 9 133 20 141 25 21 12 27
12 42 -4z m480 -13 c29 -33 39 -63 42 -124 2 -36 8 -64 16 -69 7 -4 10 -14 7
-22 -3 -8 -1 -21 4 -29 8 -12 10 -12 18 0 6 9 13 -8 24 -55 28 -129 29 -134
17 -149 -8 -10 -8 -19 -1 -34 6 -11 11 -39 11 -63 0 -24 4 -59 8 -78 11 -46
-4 -221 -22 -264 -22 -52 -48 -62 -84 -31 -143 120 -220 790 -105 917 20 23
46 23 65 1z m1500 -26 c20 -10 49 -34 65 -55 36 -46 92 -168 100 -216 l6 -36
-79 1 c-164 1 -300 21 -256 36 6 3 12 11 12 19 0 17 -5 17 -30 4 -10 -5 -26
-7 -35 -4 -14 6 -14 8 2 19 47 31 80 23 75 -20 -2 -19 -1 -19 17 3 11 13 22
18 26 12 3 -5 1 -10 -4 -10 -6 0 -11 -4 -11 -10 0 -12 60 -13 79 -1 8 5 10 14
6 21 -5 7 -4 11 1 8 5 -3 14 0 21 7 10 10 9 14 -2 19 -18 6 -20 36 -3 36 6 0
4 7 -5 18 -22 24 -22 62 -1 62 13 0 11 8 -10 44 -25 44 -33 71 -18 63 4 -2 24
-11 44 -20z m1182 -97 c11 -30 16 -63 13 -80 -5 -23 -2 -30 15 -36 12 -3 24
-1 28 6 5 8 10 9 14 1 10 -15 -41 -26 -58 -12 -10 8 -18 6 -32 -10 -14 -16
-26 -20 -53 -15 -23 3 -38 0 -49 -10 -11 -11 -26 -14 -50 -10 -22 3 -42 0 -57
-10 -24 -15 -24 -15 -13 14 10 25 9 38 -6 70 -14 32 -16 44 -7 61 7 12 9 26 6
31 -3 6 2 10 12 10 24 0 56 -83 51 -132 -2 -27 1 -34 17 -36 34 -5 46 28 28
81 -9 27 -12 54 -7 64 4 10 8 22 8 27 1 5 6 11 11 13 17 5 47 -78 43 -119 -2
-25 1 -39 10 -43 23 -9 31 -6 42 15 8 15 7 27 -5 49 -8 17 -15 38 -15 49 0 20
22 72 31 72 3 0 13 -23 23 -50z m-1929 -75 c77 -19 146 -35 154 -35 8 0 48
-16 87 -35 40 -20 108 -43 151 -52 43 -9 83 -21 88 -26 7 -7 6 -8 -2 -3 -7 4
-23 4 -37 0 -25 -6 -25 -6 -5 -27 34 -37 9 -41 -138 -23 -197 24 -288 50 -335
96 -30 29 -38 45 -38 73 0 31 -4 37 -37 50 -21 9 -36 16 -33 16 3 1 68 -15
145 -34z m-6813 -117 c89 -43 121 -68 113 -88 -14 -32 -99 -83 -145 -88 l-45
-4 -31 86 c-17 47 -27 83 -23 80 18 -11 8 17 -12 37 l-22 22 46 -5 c26 -3 79
-21 119 -40z m8023 -183 c2 -16 9 -52 15 -79 6 -27 8 -51 5 -54 -2 -3 0 -11 5
-18 6 -6 21 -76 34 -155 29 -171 31 -177 64 -186 73 -18 652 134 776 204 40
23 106 153 141 278 14 50 22 72 19 50 -10 -66 -62 -216 -94 -272 -34 -59 -53
-71 -201 -126 -154 -58 -556 -157 -635 -157 -25 0 -38 6 -50 25 -9 14 -14 32
-10 40 3 8 2 15 -3 15 -4 0 -15 46 -25 103 -27 164 -67 379 -77 413 -5 17 -9
39 -8 50 1 23 38 -88 44 -131z m935 -24 c0 -28 -646 -191 -755 -191 -22 0 -25
4 -24 38 1 36 2 36 8 7 7 -35 28 -42 74 -25 18 7 57 18 87 25 30 8 81 20 112
28 32 8 60 12 63 8 3 -3 9 0 14 7 4 7 42 16 84 22 43 5 86 14 97 20 11 6 63
22 116 35 53 14 99 27 102 30 9 8 22 6 22 -4z m-2375 -351 c55 -34 132 -59
143 -48 10 10 42 -26 42 -49 0 -7 12 -16 28 -19 15 -4 32 -10 37 -15 24 -18
176 -67 260 -84 50 -9 92 -20 95 -23 10 -10 -140 8 -217 27 -43 10 -109 31
-148 47 -80 32 -307 165 -313 184 -5 15 30 5 73 -20z"/>
<path d="M8197 1850 c-34 -27 -54 -85 -36 -106 7 -9 15 -11 18 -5 4 6 17 8 29
4 20 -5 21 -7 6 -18 -16 -11 -16 -12 0 -18 28 -11 46 3 46 37 0 39 8 50 27 35
25 -21 15 40 -12 66 -29 30 -45 31 -78 5z"/>
<path d="M1135 1776 c-115 -16 -247 -45 -261 -57 -18 -15 -6 -44 26 -62 73
-43 498 2 655 69 l40 17 -45 21 c-38 17 -67 21 -185 22 -77 2 -180 -3 -230
-10z"/>
<path d="M6630 695 c-8 -10 -48 -40 -90 -68 -41 -28 -100 -70 -130 -94 -30
-23 -68 -52 -83 -64 -26 -20 -27 -23 -12 -38 19 -22 19 -31 0 -31 -8 0 -12 6
-9 14 3 8 1 17 -5 20 -14 9 -49 -14 -54 -35 -3 -9 -14 -22 -25 -28 -18 -9 -19
-8 -15 12 l5 22 -19 -22 c-10 -12 -29 -24 -43 -26 -14 -3 43 -3 125 0 83 2
162 9 176 14 15 6 33 9 40 7 15 -3 59 31 59 45 0 5 -8 6 -17 3 -9 -4 -20 -1
-25 6 -6 11 -8 10 -8 0 0 -8 -5 -10 -12 -5 -17 10 -69 13 -63 3 6 -9 -53 -25
-62 -17 -3 3 9 13 26 22 37 19 39 28 9 42 l-23 10 23 7 c12 4 22 14 22 23 0
13 3 13 15 3 8 -7 12 -16 9 -21 -3 -5 0 -9 7 -9 8 0 9 11 5 33 -4 21 -3 27 3
18 8 -12 12 -13 25 -2 9 8 15 20 14 29 -2 8 3 17 10 19 8 3 10 -1 6 -14 -4
-11 9 -3 32 20 22 21 54 47 72 57 17 11 32 27 32 35 0 18 17 20 22 4 3 -9 12
-9 34 -1 28 10 28 11 4 10 -14 0 -34 3 -46 7 -13 4 -25 1 -34 -10z"/>
<path d="M14400 2246 c0 -2 28 -14 63 -27 72 -27 234 -112 327 -174 77 -51
190 -108 197 -101 3 3 -18 20 -46 37 -28 18 -49 34 -46 37 3 3 11 0 17 -6 15
-15 32 -16 23 -2 -3 5 -31 21 -61 35 -30 14 -54 30 -54 37 0 10 -2 10 -8 0 -6
-9 -16 -5 -40 16 -17 16 -42 33 -54 40 -69 34 -196 82 -228 86 -8 1 -28 8 -43
14 -28 12 -47 15 -47 8z"/>
<path d="M13365 2195 c-162 -29 -424 -116 -433 -144 -2 -7 -1 -23 2 -36 7 -27
34 -38 149 -60 84 -16 183 -25 452 -41 75 -5 124 -12 130 -19 6 -7 49 -16 100
-20 126 -9 145 -14 145 -36 0 -20 24 -26 35 -9 3 6 17 10 30 10 30 0 55 10 55
22 0 5 -4 7 -8 4 -4 -3 -26 0 -48 6 -21 6 -100 15 -174 22 -125 10 -135 13
-138 32 -6 44 26 63 118 70 l85 6 43 -46 c24 -26 40 -51 37 -56 -3 -6 -1 -10
4 -10 6 0 11 6 11 13 0 9 2 9 9 -1 5 -9 24 -12 55 -10 l48 3 -34 30 -33 30 25
-30 c22 -27 21 -27 -13 4 -37 35 -52 56 -20 30 9 -8 14 -9 12 -3 -7 20 -180
174 -224 200 -25 14 -68 32 -97 40 -65 17 -228 17 -323 -1z"/>
<path d="M12598 1680 c-122 -38 -181 -204 -142 -397 4 -19 0 -23 -20 -23 -14
0 -28 5 -32 12 -4 7 -3 8 4 4 7 -4 12 -3 12 3 0 6 -25 26 -55 46 -30 19 -55
41 -55 48 0 7 -6 22 -14 33 -13 17 -13 14 -6 -26 5 -25 12 -53 15 -62 8 -19
137 -88 165 -88 12 0 20 -11 24 -32 7 -34 0 -50 -13 -29 -7 11 -10 11 -14 0
-4 -10 -6 -10 -6 -1 -1 15 -33 16 -49 0 -6 -6 -24 -12 -39 -13 -16 -1 -38 -7
-50 -13 -13 -7 -23 -8 -25 -2 -2 5 -13 7 -26 3 -13 -3 -21 -10 -19 -16 4 -12
46 -15 64 -4 6 4 14 3 17 -2 4 -5 25 -12 49 -16 65 -10 77 -15 77 -32 0 -12
-3 -13 -14 -4 -11 9 -16 9 -21 0 -5 -8 -10 -8 -14 0 -5 7 -16 6 -36 -5 -28
-14 -28 -14 -12 4 21 23 22 39 1 18 -18 -19 -41 -21 -46 -4 -2 6 -12 12 -21
14 -14 2 -16 -2 -11 -19 3 -12 11 -26 17 -32 7 -7 8 -4 4 8 -8 23 10 22 22 -1
7 -13 6 -23 -1 -30 -8 -8 -8 -12 -1 -12 6 0 16 7 23 15 15 19 75 21 64 3 -6
-10 -4 -10 7 0 7 6 21 12 31 12 11 0 18 7 18 19 0 10 7 21 15 25 17 6 21 -9 5
-19 -13 -8 -13 -45 1 -45 5 0 7 5 4 11 -4 6 0 9 11 7 12 -2 20 5 25 22 6 23 7
22 8 -8 1 -29 3 -32 20 -23 15 8 20 7 26 -6 5 -15 7 -15 16 -3 8 13 10 13 19
0 6 -10 10 -11 10 -2 0 6 4 12 8 12 4 0 8 -9 8 -20 0 -11 -4 -20 -9 -20 -4 0
-5 -4 -2 -10 10 -17 22 -11 28 12 4 12 9 19 13 15 4 -3 15 -2 24 3 15 8 17 6
13 -10 -4 -16 -2 -19 13 -14 18 6 18 6 0 -8 -19 -15 -19 -16 1 -22 46 -15 83
-15 83 0 0 8 -7 14 -15 14 -8 0 -15 4 -15 9 0 16 38 23 59 12 11 -6 44 -8 77
-5 48 5 60 3 71 -12 11 -15 13 -15 13 -2 0 19 22 29 39 18 7 -4 28 -5 47 -3
24 3 34 1 34 -9 0 -10 3 -9 10 2 7 12 10 12 10 1 0 -7 6 -11 14 -8 10 4 12 -1
9 -16 -10 -47 -10 -47 -42 -31 -17 9 -31 19 -31 22 0 4 -11 12 -25 19 -14 6
-25 7 -25 2 0 -5 5 -9 10 -9 6 0 2 -10 -9 -22 -11 -11 -17 -26 -13 -32 4 -7 8
-6 10 4 1 9 11 21 21 27 15 10 22 9 31 -2 10 -12 9 -15 -6 -15 -15 0 -16 -2
-5 -9 9 -6 22 -6 32 0 11 6 20 5 24 -1 3 -5 0 -10 -7 -10 -9 0 -9 -3 2 -10 20
-13 33 -12 24 1 -5 8 1 10 20 7 28 -6 45 6 22 15 -7 3 -16 15 -19 27 -5 20 -4
21 12 6 10 -9 25 -16 35 -16 11 0 14 -4 9 -12 -4 -7 -9 -22 -10 -33 -2 -15 -1
-16 6 -6 5 7 13 11 19 7 13 -8 43 4 37 15 -3 4 -12 6 -20 2 -9 -3 -15 1 -15
11 0 9 6 13 14 10 7 -3 16 1 19 9 4 11 -3 14 -29 12 -39 -2 -51 7 -31 24 9 7
24 8 43 2 16 -4 35 -6 42 -3 11 3 12 0 3 -15 -5 -11 -9 -28 -9 -39 1 -10 -2
-29 -6 -40 -5 -18 -3 -21 16 -20 13 1 27 -3 31 -9 5 -6 7 -4 4 5 -2 8 -10 14
-16 13 -24 -6 -9 9 19 18 17 6 30 18 30 26 0 8 5 11 11 8 5 -4 19 1 29 10 18
17 38 5 25 -15 -3 -6 1 -7 9 -4 9 3 16 10 16 14 0 12 36 18 51 9 9 -5 10 -9 3
-9 -7 0 -14 -6 -17 -13 -4 -10 12 -13 67 -12 39 1 79 5 89 9 23 11 22 4 -8
-30 -14 -16 -24 -36 -24 -44 1 -13 2 -13 5 0 3 9 19 21 37 28 26 10 29 14 17
22 -12 7 -12 12 -2 22 9 9 12 9 12 0 0 -10 5 -10 21 -2 17 9 25 8 42 -7 33
-27 37 -37 21 -46 -8 -5 -12 -12 -9 -18 10 -16 40 -10 53 11 7 12 23 20 38 20
14 0 23 -4 19 -10 -8 -13 26 -13 45 1 12 9 12 10 -4 5 -16 -6 -17 -4 -6 9 15
19 22 14 24 -17 1 -18 7 -22 26 -20 19 2 22 0 13 -9 -15 -15 11 -44 32 -35 8
3 19 -3 24 -12 9 -15 10 -15 11 -1 0 14 7 15 43 8 23 -4 43 -4 45 0 3 10 71 1
78 -10 3 -5 2 -14 -2 -20 -4 -8 -9 -7 -15 2 -7 11 -9 12 -9 1 0 -8 -10 -13
-27 -12 -16 1 -31 1 -35 0 -19 -6 -30 -8 -58 -9 -16 0 -30 -5 -30 -10 0 -5 12
-7 28 -4 49 10 77 8 74 -5 -1 -7 5 -12 14 -12 9 0 12 -5 8 -12 -4 -8 -3 -10 2
-5 5 5 9 14 9 20 0 7 19 13 47 13 41 2 45 0 33 -13 -11 -11 -19 -11 -36 -3
-11 7 -23 9 -26 6 -3 -3 6 -11 21 -17 16 -8 25 -18 22 -26 -4 -9 -1 -11 6 -7
8 5 9 2 5 -10 -6 -14 -3 -17 9 -12 8 3 18 6 20 6 2 0 -2 10 -11 23 -18 28 -10
40 18 25 17 -9 19 -8 13 8 -6 17 -6 17 14 -1 16 -14 18 -21 8 -27 -8 -6 -5 -7
10 -3 21 6 30 -9 22 -40 -1 -5 -3 -17 -3 -25 0 -17 -16 -40 -27 -40 -5 0 -7
15 -5 34 3 32 2 33 -23 26 -18 -5 -26 -13 -25 -26 1 -18 1 -18 -13 0 -8 11
-14 14 -14 8 0 -7 -5 -12 -11 -12 -5 0 -7 5 -3 11 4 7 -1 10 -11 7 -11 -1 -19
-13 -20 -25 -1 -18 3 -22 19 -18 12 2 21 4 21 5 0 1 12 4 27 6 19 2 32 -4 41
-17 14 -19 14 -19 33 2 10 11 26 18 36 16 10 -3 16 -1 13 3 -3 5 7 13 22 19
l28 10 -30 -2 c-25 -2 -30 2 -33 23 -2 15 0 20 5 13 9 -12 25 -16 66 -14 19 1
27 6 26 19 0 10 -3 12 -6 5 -7 -18 -21 -16 -26 5 -4 16 -5 16 -6 -1 -1 -17 -3
-17 -23 -3 -12 9 -30 16 -40 16 -18 0 -33 33 -23 50 4 6 -1 7 -11 3 -11 -4
-15 -2 -11 4 4 6 0 13 -8 17 -9 3 -15 0 -15 -9 0 -9 -6 -12 -15 -9 -8 4 -13
10 -10 14 3 5 -3 6 -14 3 -10 -3 -22 0 -25 6 -5 7 2 11 16 11 13 0 30 5 38 10
11 7 19 4 32 -12 14 -19 18 -20 32 -9 11 9 13 17 6 25 -6 8 -3 18 11 30 26 22
36 15 13 -9 -12 -12 -14 -19 -6 -24 17 -11 11 -61 -8 -62 -13 0 -13 -1 0 -6 8
-4 20 -13 26 -21 7 -9 16 -12 24 -7 10 6 8 11 -7 19 -15 8 -18 16 -13 31 7 18
9 18 15 3 6 -15 10 -14 31 10 18 20 22 22 17 8 -5 -15 -3 -18 10 -13 9 3 19 2
22 -2 3 -5 -2 -12 -11 -15 -8 -3 -13 -10 -10 -15 4 -5 0 -12 -6 -14 -8 -3 -6
-6 5 -6 9 -1 17 4 17 10 0 5 5 7 10 4 6 -4 18 2 28 13 9 10 31 24 47 31 l30
12 -24 -19 c-22 -18 -22 -19 -5 -26 11 -4 20 -3 22 3 2 6 9 8 15 4 7 -4 8 0 4
11 -6 14 -3 17 9 12 8 -3 21 -6 28 -6 22 0 14 -30 -8 -32 -12 0 -25 -2 -31 -3
-5 -2 -16 -3 -23 -4 -8 0 -12 -7 -9 -13 5 -17 48 -17 65 0 8 7 18 10 23 6 5
-3 9 -2 8 3 -3 20 2 34 11 28 5 -3 6 -13 3 -21 -3 -9 7 -4 22 10 20 18 32 23
40 16 6 -5 14 -7 17 -4 3 2 8 -3 12 -12 5 -12 2 -15 -10 -10 -23 9 -84 -22
-77 -40 3 -9 15 -12 33 -9 24 4 27 2 23 -15 -3 -11 -9 -20 -14 -20 -5 0 -9 -5
-9 -12 0 -6 8 -3 20 7 11 10 18 20 16 24 -6 10 13 53 22 47 4 -2 12 7 19 20 8
18 8 23 0 18 -7 -3 -3 2 7 10 39 31 48 14 16 -27 -11 -14 -20 -30 -20 -35 0
-5 -7 -13 -16 -16 -9 -4 -14 -9 -10 -13 3 -4 -2 -16 -11 -28 -10 -11 -6 -8 9
7 29 30 44 36 33 16 -4 -7 2 -2 13 12 18 22 20 22 19 5 -2 -15 4 -20 21 -19
12 1 22 -4 22 -10 0 -6 4 -4 10 4 8 12 10 12 16 -3 3 -9 10 -17 16 -17 5 0 7
4 3 9 -3 6 4 15 15 21 11 6 20 7 20 3 0 -4 7 1 15 12 14 17 13 21 -11 42 -15
13 -22 23 -16 23 6 0 17 -7 26 -15 13 -13 16 -13 23 -1 7 12 10 12 22 -1 11
-12 11 -14 -2 -11 -9 2 -15 -1 -14 -7 1 -5 6 -9 11 -7 4 1 15 -3 22 -9 12 -10
18 -8 29 7 14 18 14 18 15 1 0 -10 4 -16 8 -13 4 2 13 -4 20 -14 10 -17 8 -18
-33 -15 -35 3 -45 0 -45 -11 0 -11 4 -12 19 -5 14 8 20 7 25 -4 8 -21 32 -19
49 5 8 11 16 17 19 14 3 -3 17 -2 32 2 l26 6 -4 177 c-3 189 -25 336 -65 442
-48 126 -145 238 -247 285 -222 103 -436 -9 -484 -253 -13 -63 -10 -253 4
-285 6 -14 3 -15 -26 -9 -18 4 -52 18 -75 29 -23 12 -53 22 -65 23 -23 1 -23
1 -1 7 19 6 20 9 8 25 -15 21 -93 24 -155 8 l-35 -10 45 1 c25 0 52 -2 60 -5
8 -3 24 -8 35 -11 31 -8 -77 2 -212 21 -67 9 -120 20 -117 24 3 5 -16 6 -42 2
-32 -4 -45 -3 -41 4 5 8 -7 10 -35 6 -33 -3 -40 -2 -28 7 11 8 4 9 -32 4 -31
-4 -48 -3 -48 4 0 7 -14 8 -37 5 -24 -4 -34 -3 -30 4 5 8 -6 9 -33 6 -27 -4
-40 -2 -40 6 0 7 -4 10 -10 6 -12 -7 -141 6 -135 14 2 4 -13 5 -33 3 -26 -2
-33 0 -23 6 9 7 -46 9 -162 7 l-177 -3 -15 51 c-8 28 -15 57 -15 64 0 25 -60
187 -86 231 -70 119 -171 179 -256 152z m128 -131 c34 -21 81 -85 70 -96 -3
-4 -6 -2 -6 3 0 5 -9 20 -19 33 l-19 25 -21 -42 c-23 -45 -27 -87 -10 -97 6
-4 8 -13 5 -20 -3 -8 0 -16 7 -19 9 -3 8 -7 -3 -15 -11 -8 -16 -6 -22 8 -4 12
-21 21 -49 25 -54 9 -139 45 -139 60 0 6 11 35 25 63 40 86 112 115 181 72z
m2107 -141 c60 -18 139 -96 173 -170 38 -84 40 -205 5 -284 -37 -85 -116 -147
-196 -155 -99 -10 -221 81 -264 196 -22 57 -34 196 -19 211 10 9 78 -8 72 -18
-4 -6 1 -8 12 -4 11 3 26 1 34 -5 12 -8 9 -9 -10 -4 l-25 6 25 -15 c14 -8 49
-21 78 -27 28 -7 52 -17 52 -23 0 -6 -48 -26 -105 -45 -58 -18 -108 -37 -111
-42 -7 -12 44 -109 61 -116 8 -3 15 -11 15 -19 0 -8 4 -14 9 -14 14 0 23 32
11 44 -5 5 -10 15 -10 20 0 6 5 3 11 -7 9 -15 13 -16 27 -5 12 9 10 3 -5 -21
l-21 -35 50 -23 c27 -13 54 -23 59 -23 5 0 9 31 9 70 0 56 -3 71 -17 78 -10 5
-25 7 -33 4 -16 -5 24 46 48 61 6 4 12 15 12 22 0 8 6 15 14 15 15 0 13 -40
-5 -87 -5 -13 -9 -60 -9 -103 l0 -80 48 7 c43 5 102 30 102 43 0 3 -15 30 -34
61 -19 31 -37 66 -40 78 -3 11 -8 29 -11 40 -8 26 20 34 56 16 39 -21 79 -36
79 -30 0 3 -18 14 -40 25 -22 11 -40 23 -40 25 0 3 22 -6 49 -19 27 -14 51
-22 55 -19 3 4 6 -2 7 -13 0 -15 2 -14 11 6 9 23 4 143 -8 161 -2 4 -19 2 -37
-5 -17 -7 -54 -21 -80 -30 -31 -12 -47 -23 -43 -31 7 -18 -18 -13 -38 8 -10 9
-22 17 -27 17 -5 0 -9 4 -9 10 0 5 -20 28 -44 51 -25 22 -59 63 -76 90 -18 27
-36 49 -40 49 -5 0 -18 -16 -30 -35 -20 -32 -40 -51 -24 -22 27 47 64 82 108
103 57 27 99 30 159 12z"/>
<path d="M12613 1545 c-36 -15 -41 -26 -19 -45 8 -6 12 -19 9 -27 -4 -10 -2
-14 5 -9 6 3 14 1 18 -5 4 -8 3 -9 -4 -5 -21 13 -13 -11 14 -43 14 -17 31 -30
37 -28 7 1 11 -4 10 -10 -2 -7 1 -13 5 -13 19 0 19 14 1 47 -19 34 -19 36 -2
48 10 7 21 11 24 9 4 -2 12 10 20 27 11 28 10 33 -6 45 -26 19 -53 17 -58 -3
-4 -14 -5 -12 -6 5 -1 26 -5 26 -48 7z"/>
<path d="M14764 1401 c4 -6 2 -19 -3 -28 -9 -16 -10 -15 -11 6 0 21 -3 23 -32
17 -18 -3 -43 -13 -55 -22 l-24 -15 22 -37 c13 -20 28 -45 33 -54 13 -21 26
-23 26 -4 0 7 9 16 19 19 12 3 21 16 24 33 2 17 5 4 7 -31 2 -33 4 -68 5 -77
0 -9 13 -26 28 -38 l27 -21 10 26 c5 14 10 32 10 39 0 7 13 37 30 67 16 30 30
59 30 66 0 13 -71 48 -119 58 -23 5 -31 4 -27 -4z"/>
<path d="M13140 1231 c19 -5 28 -9 21 -10 -36 -3 9 -19 67 -24 56 -5 61 -4 45
9 -16 13 -15 13 12 3 26 -9 783 -119 821 -119 10 0 14 14 12 53 -1 50 -2 51
-5 9 -4 -42 -5 -43 -36 -37 -18 3 -117 16 -222 30 -104 14 -269 37 -365 50
-96 14 -198 27 -225 29 -28 2 -75 7 -105 10 -41 4 -46 3 -20 -3z"/>
</g>
</svg>
