<?xml version="1.0" standalone="no"?>
<!DOCTYPE svg PUBLIC "-//W3C//DTD SVG 20010904//EN"
 "http://www.w3.org/TR/2001/REC-SVG-20010904/DTD/svg10.dtd">
<svg version="1.0" xmlns="http://www.w3.org/2000/svg"
 width="1102.000000pt" height="770.000000pt" viewBox="0 0 1102.000000 770.000000"
 preserveAspectRatio="xMidYMid meet">
<metadata>
Created by potrace 1.16, written by Peter Selinger 2001-2019
</metadata>
<g transform="translate(0.000000,770.000000) scale(0.100000,-0.100000)"
fill="#000000" stroke="none">
<path d="M0 3850 l0 -3850 5510 0 5510 0 0 3850 0 3850 -5510 0 -5510 0 0
-3850z m4470 3095 c0 -48 -14 -61 -24 -22 -6 27 -44 47 -86 47 -30 0 -30 0
-30 -60 0 -33 2 -60 4 -60 19 0 40 18 52 44 12 29 13 26 13 -54 0 -82 0 -84
-14 -52 -8 17 -16 32 -19 32 -2 0 -12 3 -21 6 -14 6 -16 -2 -13 -57 3 -64 3
-64 35 -67 39 -4 89 21 98 48 11 35 20 22 17 -25 l-4 -45 -137 1 c-91 0 -129
3 -113 9 21 9 22 14 22 145 0 131 -1 136 -22 145 -16 6 20 9 110 9 l132 1 0
-45z m1440 0 c0 -48 -14 -61 -24 -22 -6 27 -44 47 -86 47 -30 0 -30 0 -30 -60
0 -33 2 -60 4 -60 19 0 40 18 52 44 12 29 13 26 13 -54 0 -82 0 -84 -14 -52
-8 17 -16 32 -19 32 -2 0 -12 3 -21 6 -14 6 -16 -2 -13 -57 3 -64 3 -64 35
-67 39 -4 89 21 98 48 11 35 20 22 17 -25 l-4 -45 -137 1 c-91 0 -129 3 -113
9 21 9 22 14 22 145 0 131 -1 136 -22 145 -16 6 20 9 110 9 l132 1 0 -45z
m860 -100 c0 -127 2 -145 18 -154 13 -8 1 -10 -48 -10 -36 0 -59 3 -52 6 9 3
12 43 12 148 0 105 -3 145 -12 148 -7 3 8 6 35 6 l47 1 0 -145z m-2053 15 c7
-14 13 -57 13 -97 0 -48 4 -73 13 -76 6 -3 -15 -6 -47 -6 -47 -1 -57 2 -48 11
16 16 16 154 0 164 -6 4 -17 -1 -25 -11 -16 -23 -18 -136 -1 -153 9 -9 -1 -12
-47 -11 -33 0 -54 3 -47 6 8 3 12 32 12 93 0 61 -4 90 -12 93 -7 3 8 6 35 6
31 1 47 -3 47 -11 0 -8 7 -6 18 5 25 26 73 18 89 -13z m565 13 c14 -13 18 -31
18 -95 0 -45 4 -78 10 -78 6 0 10 -4 10 -10 0 -16 -51 -24 -71 -12 -14 9 -25
9 -43 1 -13 -7 -36 -9 -50 -5 -55 14 -17 99 54 121 14 4 20 15 20 35 0 32 -13
45 -37 36 -12 -5 -13 -9 -3 -21 16 -19 6 -45 -18 -45 -30 0 -46 24 -33 49 6
11 19 25 29 30 27 16 93 13 114 -6z m246 -11 c4 -27 -23 -40 -49 -24 -15 10
-20 8 -29 -7 -14 -27 -13 -124 2 -139 9 -9 -1 -12 -47 -12 -46 0 -56 3 -47 12
17 17 16 175 0 181 -7 3 8 6 35 6 31 1 47 -3 47 -11 0 -8 7 -6 18 5 24 25 66
18 70 -11z m622 13 c12 -14 15 -14 36 0 30 20 63 19 86 -2 14 -13 18 -31 18
-93 0 -46 5 -81 12 -88 9 -9 -1 -12 -47 -11 -33 0 -54 3 -47 6 18 7 17 173 -1
173 -27 0 -37 -25 -37 -90 0 -38 5 -71 12 -78 9 -9 -1 -12 -47 -11 -33 0 -54
3 -47 6 15 6 17 159 2 168 -6 4 -17 1 -25 -5 -19 -16 -21 -156 -2 -163 6 -3
-15 -5 -48 -5 -33 0 -54 2 -47 5 8 3 12 32 12 93 0 61 -4 90 -12 94 -7 3 13 5
44 4 32 -1 61 2 65 5 12 13 60 7 73 -8z m342 -2 c14 -13 18 -31 18 -90 0 -59
3 -75 16 -80 15 -6 15 -8 -2 -20 -21 -15 -56 -17 -70 -3 -6 6 -21 6 -42 -2
-39 -15 -65 -3 -70 31 -4 28 21 57 71 82 40 21 48 47 22 69 -19 16 -30 6 -30
-28 0 -20 -6 -28 -21 -30 -30 -4 -48 21 -34 48 21 40 108 54 142 23z m-1630
-6 c-8 -9 -5 -26 11 -62 l23 -49 17 45 c20 53 21 66 5 72 -7 3 5 6 26 6 36 1
38 0 24 -16 -9 -10 -33 -57 -53 -105 -21 -49 -41 -88 -46 -88 -5 0 -22 28 -37
63 -14 34 -36 81 -48 105 l-21 42 55 0 c43 0 52 -3 44 -13z m5545 -419 l23
-21 0 -2821 0 -2820 -22 -23 -21 -23 -4886 0 -4885 0 -23 22 -23 21 0 2821 0
2820 22 23 21 23 4886 0 4885 0 23 -22z"/>
<path d="M600 3605 l0 -2835 4900 0 4900 0 0 2835 0 2835 -4900 0 -4900 0 0
-2835z m565 2425 c3 -5 18 -3 34 3 44 16 61 -3 61 -68 0 -33 5 -55 13 -58 6
-3 -5 -6 -27 -6 -32 -1 -37 1 -27 13 7 8 11 34 9 58 -2 35 -7 43 -23 43 -17 0
-20 -8 -23 -49 -2 -32 1 -52 10 -57 8 -6 -1 -9 -26 -9 -32 0 -37 2 -27 14 7 8
11 34 9 58 -2 35 -7 43 -23 43 -17 0 -20 -8 -23 -49 -2 -32 1 -52 10 -57 8 -6
-2 -9 -26 -9 -31 0 -37 3 -28 12 15 15 16 94 1 104 -18 11 7 21 57 22 24 0 46
-4 49 -8z m8975 -410 l0 -210 -4640 0 -4640 0 0 210 0 210 4640 0 4640 0 0
-210z m0 -1025 l0 -215 -4640 0 -4640 0 0 215 0 215 4640 0 4640 0 0 -215z
m-8898 -662 c3 -50 6 -58 23 -58 17 0 20 8 23 49 2 32 -1 52 -10 57 -9 6 -4 9
15 9 26 0 27 -2 27 -54 0 -54 17 -85 40 -71 13 8 13 70 0 95 -7 14 -6 20 7 25
10 3 19 2 21 -4 2 -7 11 -6 27 1 41 19 55 5 55 -55 0 -29 5 -58 12 -65 10 -10
-16 -12 -121 -10 -130 2 -133 3 -142 26 -5 13 -9 41 -9 62 0 21 -6 41 -12 43
-7 3 -1 6 14 6 26 1 27 -1 30 -56z m458 37 c42 -42 12 -120 -47 -120 -38 0
-63 27 -63 67 0 40 30 73 65 73 14 0 34 -9 45 -20z m8440 -400 l0 -210 -4640
0 -4640 0 0 210 0 210 4640 0 4640 0 0 -210z m-9181 -616 l34 -76 35 76 c32
69 37 76 64 76 27 0 28 -1 14 -16 -22 -22 -22 -146 0 -168 14 -15 11 -16 -33
-15 -26 1 -40 3 -30 6 14 4 17 16 16 71 l-1 67 -32 -70 c-18 -38 -36 -70 -39
-70 -4 0 -22 32 -41 70 l-35 70 0 -62 c-1 -49 3 -64 17 -72 13 -8 7 -10 -28
-10 -35 0 -41 2 -27 10 14 8 17 25 17 94 0 71 -3 84 -17 88 -10 3 -2 5 17 6
34 1 36 -1 69 -75z m9181 -694 l0 -500 -4640 0 -4640 0 0 500 0 500 4640 0
4640 0 0 -500z m-1556 -762 c86 -26 166 -136 166 -228 0 -92 -80 -202 -166
-228 -60 -17 -2728 -17 -2788 0 -55 16 -138 99 -154 154 -28 94 -8 169 63 239
27 28 66 56 85 62 53 17 2738 17 2794 1z"/>
<path d="M880 5620 l0 -190 4620 0 4620 0 0 190 0 190 -4620 0 -4620 0 0 -190z
m970 -3 l0 -114 -49 -1 c-62 -1 -81 13 -88 65 -5 36 -2 45 21 68 21 20 34 26
57 23 28 -4 29 -3 29 34 0 27 4 38 15 38 12 0 15 -19 15 -113z m-800 88 c0
-11 -12 -15 -50 -15 -49 0 -50 -1 -50 -30 0 -29 1 -30 51 -30 66 0 62 -24 -4
-28 -46 -3 -47 -4 -47 -38 l0 -34 50 0 c38 0 50 -4 50 -15 0 -12 -14 -15 -70
-15 l-70 0 0 110 0 110 70 0 c56 0 70 -3 70 -15z m3364 5 c52 -19 80 -101 57
-164 -9 -23 -15 -24 -76 -24 -55 0 -68 4 -80 21 -38 55 -3 117 65 117 l40 0 0
-61 c0 -52 2 -60 18 -57 14 3 17 14 17 57 -1 46 -5 57 -29 77 -65 57 -156 9
-156 -81 0 -38 5 -52 30 -77 26 -25 37 -29 70 -26 30 3 40 0 40 -11 0 -23 -95
-9 -125 19 -100 94 2 259 129 210z m-3304 -62 c0 -9 3 -9 12 0 7 7 21 12 33
12 12 0 26 -5 33 -12 9 -9 15 -9 24 0 7 7 21 12 33 12 35 0 45 -20 45 -92 0
-54 -3 -68 -15 -68 -12 0 -15 14 -15 66 l0 65 -27 -3 c-27 -3 -28 -6 -31 -65
-2 -47 -7 -63 -17 -63 -12 0 -15 15 -15 66 l0 65 -27 -3 c-27 -3 -28 -6 -31
-65 -2 -47 -7 -63 -17 -63 -12 0 -15 17 -15 80 0 64 3 80 15 80 8 0 15 -5 15
-12z m321 2 c16 -9 19 -22 19 -79 l0 -68 -42 -1 c-58 -1 -76 5 -83 28 -10 33
12 59 55 66 40 7 53 27 25 38 -8 3 -27 1 -41 -4 -33 -13 -34 -13 -34 4 0 25
64 35 101 16z m1198 -16 c60 -77 -26 -175 -100 -115 -33 27 -33 95 0 122 34
27 75 24 100 -7z m1068 14 c8 -6 19 -6 32 1 54 29 81 1 81 -85 0 -49 -3 -64
-15 -64 -10 0 -15 16 -17 63 -3 59 -4 62 -28 62 -24 0 -25 -3 -28 -62 -2 -47
-7 -63 -17 -63 -12 0 -15 14 -15 60 0 47 -4 62 -16 67 -32 12 -49 -11 -52 -71
-2 -41 -7 -56 -17 -56 -12 0 -15 17 -15 78 l0 79 48 1 c26 0 52 -4 59 -10z
m255 6 c22 -6 41 -64 32 -99 -8 -33 -47 -59 -79 -53 -23 5 -25 2 -25 -28 0
-24 -5 -34 -15 -34 -12 0 -15 19 -15 109 l0 108 43 1 c23 0 50 -2 59 -4z m247
-20 c43 -55 11 -134 -54 -134 -24 0 -39 7 -54 26 -43 55 -11 134 54 134 24 0
39 -7 54 -26z m578 14 c8 -6 19 -6 32 1 54 29 81 1 81 -85 0 -49 -3 -64 -15
-64 -10 0 -15 16 -17 63 -3 59 -4 62 -28 62 -24 0 -25 -3 -28 -62 -2 -47 -7
-63 -17 -63 -12 0 -15 14 -15 60 0 47 -4 62 -16 67 -32 12 -49 -11 -52 -71 -2
-41 -7 -56 -17 -56 -12 0 -15 17 -15 78 l0 79 48 1 c26 0 52 -4 59 -10z m255
6 c22 -6 41 -64 32 -99 -8 -33 -47 -59 -79 -53 -23 5 -25 2 -25 -28 0 -24 -5
-34 -15 -34 -12 0 -15 19 -15 109 l0 108 43 1 c23 0 50 -2 59 -4z m559 -4 c16
-9 19 -22 19 -79 l0 -68 -42 -1 c-58 -1 -76 5 -83 28 -10 33 12 59 55 66 40 7
53 27 25 38 -8 3 -27 1 -41 -4 -33 -13 -34 -13 -34 4 0 25 64 35 101 16z m399
-10 c13 -13 20 -33 20 -60 0 -49 -27 -80 -70 -80 -43 0 -70 31 -70 80 0 49 27
80 70 80 17 0 39 -9 50 -20z m80 8 c0 -9 3 -9 12 0 7 7 21 12 33 12 12 0 26
-5 33 -12 9 -9 15 -9 24 0 7 7 21 12 33 12 35 0 45 -20 45 -92 0 -54 -3 -68
-15 -68 -12 0 -15 14 -15 66 l0 65 -27 -3 c-27 -3 -28 -6 -31 -65 -2 -47 -7
-63 -17 -63 -12 0 -15 15 -15 66 l0 65 -27 -3 c-27 -3 -28 -6 -31 -65 -2 -47
-7 -63 -17 -63 -12 0 -15 17 -15 80 0 64 3 80 15 80 8 0 15 -5 15 -12z"/>
<path d="M880 4595 l0 -195 4620 0 4620 0 0 195 0 195 -4620 0 -4620 0 0 -195z
m1740 0 c0 -96 -3 -115 -15 -115 -8 0 -15 5 -15 12 0 9 -3 9 -12 0 -20 -20
-65 -14 -82 10 -41 59 -1 145 63 136 30 -4 31 -3 31 34 0 27 4 38 15 38 12 0
15 -19 15 -115z m-1459 76 c25 -25 29 -37 29 -81 0 -44 -4 -56 -29 -81 -22
-21 -39 -29 -66 -29 -27 0 -44 8 -66 29 -25 25 -29 37 -29 81 0 44 4 56 29 81
22 21 39 29 66 29 27 0 44 -8 66 -29z m659 14 c0 -11 -12 -15 -50 -15 -49 0
-50 -1 -50 -30 0 -29 1 -30 51 -30 66 0 62 -24 -4 -28 -46 -3 -47 -4 -47 -38
l0 -34 50 0 c38 0 50 -4 50 -15 0 -12 -14 -15 -70 -15 l-70 0 0 110 0 110 70
0 c56 0 70 -3 70 -15z m3507 -5 c40 -24 61 -84 47 -138 l-9 -37 -65 -2 c-75
-2 -100 13 -100 61 0 52 24 76 76 76 l44 0 0 -60 c0 -46 3 -60 15 -60 21 0 29
46 16 90 -14 46 -29 59 -75 67 -45 7 -82 -16 -102 -62 -30 -73 23 -150 98
-143 26 2 38 0 38 -9 0 -9 -15 -13 -44 -13 -104 0 -160 122 -94 205 37 48 101
58 155 25z m-3788 -66 c60 -77 -26 -175 -100 -115 -33 27 -33 95 0 122 34 27
75 24 100 -7z m341 14 c0 -9 3 -9 12 0 15 15 51 15 66 0 9 -9 15 -9 24 0 7 7
21 12 33 12 35 0 45 -20 45 -92 0 -54 -3 -68 -15 -68 -12 0 -15 14 -15 66 l0
65 -27 -3 c-27 -3 -28 -6 -31 -65 -2 -47 -7 -63 -17 -63 -12 0 -15 15 -15 66
l0 65 -27 -3 c-27 -3 -28 -6 -31 -65 -2 -47 -7 -63 -17 -63 -12 0 -15 17 -15
80 0 64 3 80 15 80 8 0 15 -5 15 -12z m321 2 c16 -9 19 -22 19 -79 l0 -68 -42
-1 c-58 -1 -76 5 -83 28 -10 33 12 59 55 66 40 7 53 27 25 38 -8 3 -27 1 -41
-4 -33 -13 -34 -13 -34 4 0 25 64 35 101 16z m1198 -16 c60 -77 -26 -175 -100
-115 -18 14 -24 29 -24 61 0 32 6 47 24 61 34 27 75 24 100 -7z m2201 14 c0
-9 3 -9 12 0 15 15 50 16 65 1 8 -8 17 -8 31 0 55 29 82 1 82 -85 0 -50 -3
-64 -15 -64 -12 0 -15 13 -15 60 0 47 -4 62 -16 67 -32 12 -49 -11 -52 -71 -4
-74 -18 -72 -24 4 -2 33 -7 62 -11 66 -3 4 -18 4 -32 0 -23 -6 -25 -10 -25
-66 0 -47 -3 -60 -15 -60 -12 0 -15 16 -15 80 0 64 3 80 15 80 8 0 15 -5 15
-12z m343 -6 c11 -10 17 -30 17 -59 0 -57 -28 -87 -76 -81 -33 4 -34 3 -34
-29 0 -23 -5 -33 -15 -33 -12 0 -15 19 -15 108 l0 108 53 1 c34 1 58 -4 70
-15z m551 2 c22 -22 23 -144 1 -144 -8 0 -15 5 -15 12 0 9 -3 9 -12 0 -7 -7
-24 -12 -38 -12 -32 0 -50 17 -50 46 0 28 20 44 64 51 20 3 36 11 36 18 0 17
-37 26 -66 15 -18 -7 -24 -6 -24 4 0 7 3 16 7 19 13 13 82 7 97 -9z m395 -10
c60 -77 -26 -175 -100 -115 -18 14 -24 29 -24 61 0 32 6 47 24 61 34 27 75 24
100 -7z m81 14 c0 -9 3 -9 12 0 15 15 51 15 66 0 9 -9 15 -9 24 0 7 7 21 12
33 12 35 0 45 -20 45 -92 0 -54 -3 -68 -15 -68 -12 0 -15 14 -15 66 l0 65 -27
-3 c-27 -3 -28 -6 -31 -65 -2 -47 -7 -63 -17 -63 -12 0 -15 15 -15 66 l0 65
-27 -3 c-27 -3 -28 -6 -31 -65 -2 -47 -7 -63 -17 -63 -12 0 -15 17 -15 80 0
64 3 80 15 80 8 0 15 -5 15 -12z"/>
<path d="M1046 4648 c-9 -12 -16 -38 -16 -58 0 -51 24 -80 65 -80 41 0 65 29
65 80 0 51 -24 80 -65 80 -24 0 -39 -7 -49 -22z"/>
<path d="M880 3570 l0 -190 4620 0 4620 0 0 190 0 190 -4620 0 -4620 0 0 -190z
m157 -5 c38 -113 38 -115 19 -115 -8 0 -17 14 -21 30 -6 28 -10 30 -50 30 -39
0 -44 -3 -54 -30 -5 -16 -17 -30 -25 -30 -11 0 -7 23 22 110 31 94 40 110 56
108 15 -2 27 -26 53 -103z m1023 90 c0 -12 -13 -15 -55 -15 -54 0 -55 0 -55
-30 0 -29 1 -30 50 -30 38 0 50 -4 50 -15 0 -11 -12 -15 -50 -15 l-50 0 0 -35
0 -35 55 0 c42 0 55 -3 55 -15 0 -12 -14 -15 -70 -15 l-70 0 0 110 0 110 70 0
c56 0 70 -3 70 -15z m-281 -71 c43 -55 11 -134 -54 -134 -24 0 -39 7 -54 26
-43 55 -11 134 54 134 24 0 39 -7 54 -26z m415 14 c12 -7 22 -6 29 1 15 15 50
14 65 -1 7 -7 12 -40 12 -80 0 -54 -3 -68 -15 -68 -12 0 -15 14 -15 66 l0 65
-27 -3 c-27 -3 -28 -6 -31 -65 -2 -46 -7 -63 -17 -63 -10 0 -15 17 -17 63 -3
59 -4 62 -28 62 -24 0 -25 -3 -28 -62 -2 -47 -7 -63 -17 -63 -12 0 -15 17 -15
79 l0 78 43 0 c23 1 50 -4 61 -9z m248 -5 c24 -22 27 -143 3 -143 -8 0 -15 4
-15 9 0 5 -14 4 -30 -2 -38 -14 -64 -1 -68 36 -4 30 29 57 70 57 32 0 37 15 9
30 -13 7 -28 7 -45 0 -20 -7 -26 -6 -26 4 0 7 3 16 7 19 13 13 77 7 95 -10z"/>
<path d="M880 2260 l0 -480 4620 0 4620 0 0 480 0 480 -4620 0 -4620 0 0 -480z
m1470 295 c0 -63 -4 -105 -10 -105 -5 0 -10 4 -10 9 0 5 -13 4 -29 -2 -42 -15
-71 11 -71 65 0 47 28 78 70 78 27 0 30 3 30 30 0 17 5 30 10 30 6 0 10 -42
10 -105z m-1392 35 c16 -48 16 -47 42 23 14 39 36 34 44 -10 12 -73 7 -153 -9
-153 -11 0 -15 17 -17 73 l-3 72 -14 -42 c-8 -24 -19 -43 -26 -43 -6 0 -18 19
-27 43 l-17 42 0 -72 c-1 -58 -4 -73 -16 -73 -17 0 -19 30 -9 129 8 75 29 80
52 11z"/>
</g>
</svg>
