<?xml version="1.0" encoding="UTF-8"?>
<svg version="1.1" xmlns="http://www.w3.org/2000/svg" width="810" height="625">
<path d="M0 0 C267.3 0 534.6 0 810 0 C810 206.25 810 412.5 810 625 C542.7 625 275.4 625 0 625 C0 418.75 0 212.5 0 0 Z " fill="#350000" transform="translate(0,0)"/>
<path d="M0 0 C0.67228815 -0.00465992 1.34457629 -0.00931984 2.03723681 -0.01412097 C4.28232276 -0.0260395 6.5268 -0.01668813 8.77189064 -0.00736332 C10.40081767 -0.01153763 12.0297418 -0.01701568 13.65866053 -0.02368313 C18.12914923 -0.03814382 22.59945367 -0.03389106 27.06995249 -0.02651632 C31.89351351 -0.02178848 36.71703445 -0.03429112 41.54058266 -0.04453373 C50.9882412 -0.06173479 60.43583328 -0.062559 69.88350342 -0.05732083 C77.56251925 -0.05328021 85.24151543 -0.0547214 92.92053032 -0.06006908 C94.55961145 -0.06119172 94.55961145 -0.06119172 96.23180533 -0.06233703 C98.45163802 -0.0638685 100.6714707 -0.06540685 102.89130338 -0.066952 C123.71133769 -0.08068185 144.53133444 -0.07523601 165.35136791 -0.06376678 C184.39850037 -0.0538346 203.44553569 -0.06677398 222.49265318 -0.09070098 C242.05005298 -0.11508389 261.60740752 -0.12470179 281.16482222 -0.11804825 C292.14489035 -0.11455415 303.12488377 -0.11680069 314.10494041 -0.13429928 C323.45236727 -0.14901116 332.7996668 -0.14966996 342.14709114 -0.13222837 C346.91581199 -0.12370755 351.6843053 -0.12159525 356.45301437 -0.13687992 C360.82035327 -0.15070476 365.18726921 -0.14599227 369.5545835 -0.12664068 C371.13258462 -0.12287359 372.71061944 -0.12582312 374.2885906 -0.13625234 C384.4691079 -0.19874142 391.66483876 0.89524817 400.24494362 6.50531673 C405.94163551 12.46094916 408.29863554 18.17880692 408.55744362 26.44281673 C408.20939497 35.34706129 405.36351627 42.15648437 398.99494362 48.38031673 C393.23952554 51.90127838 388.25815482 53.5041028 381.48487186 53.51733112 C380.4838121 53.52130886 380.4838121 53.52130886 379.46252891 53.52536696 C377.21025317 53.53306999 374.95803184 53.53361952 372.70574379 53.53421688 C371.08098434 53.53823085 369.45622588 53.54266897 367.83146864 53.54749644 C363.35393189 53.55947523 358.87640592 53.56511342 354.39885628 53.56967759 C349.5745346 53.57562879 344.75022583 53.58723989 339.92591286 53.5979681 C328.26813772 53.62250395 316.6103583 53.63712139 304.95256528 53.65002817 C301.66047622 53.65373937 298.36838759 53.65771266 295.07629895 53.66178083 C274.63815591 53.6870176 254.20001222 53.70907338 233.76185703 53.72150898 C229.02648287 53.72443874 224.29110874 53.72740039 219.55573463 53.73041439 C218.37876141 53.73116044 217.20178818 53.73190649 215.9891491 53.73267515 C196.92303008 53.74532866 177.85700432 53.77855088 158.79092889 53.82021622 C139.22123025 53.86263192 119.65157935 53.88620364 100.08183485 53.89142954 C89.0921389 53.89484417 78.10258866 53.9066054 67.11293793 53.93953228 C57.75336306 53.96752896 48.39396376 53.97853378 39.03435027 53.96733682 C34.25939693 53.96214914 29.4848113 53.96504414 24.70991135 53.98980236 C20.33551789 54.01229441 15.96175627 54.01155543 11.58735175 53.99259849 C10.00785747 53.9897984 8.42832035 53.99539757 6.84889495 54.01041143 C-2.94575521 54.09779874 -11.31698191 53.50869593 -18.90035683 46.6715101 C-24.59469687 40.7501134 -26.17277776 34.57618958 -26.50505638 26.50531673 C-26.31742149 18.88570856 -24.4658169 13.25209394 -19.36052513 7.54047298 C-13.65431808 2.2722141 -7.73011238 0.00667177 0 0 Z " fill="#FEFEFE" transform="translate(98.00505638122559,338.61968326568604)"/>
<path d="M0 0 C0.64891571 -0.00538554 1.29783141 -0.01077108 1.96641123 -0.01631981 C4.12116696 -0.03052378 6.27530175 -0.02351491 8.43008423 -0.01637268 C9.98300161 -0.02208029 11.53591479 -0.02904606 13.08882141 -0.03717041 C17.29348333 -0.0550752 21.49793624 -0.05393835 25.7026248 -0.04822803 C29.21888238 -0.04513186 32.73510006 -0.05123348 36.25135195 -0.05726677 C44.55038388 -0.071302 52.84931284 -0.06975946 61.14834595 -0.05836487 C69.6956876 -0.0468883 78.2427153 -0.06095377 86.79001558 -0.08776134 C94.14142668 -0.10995062 101.49273946 -0.11654835 108.84418166 -0.11068493 C113.22911767 -0.10732141 117.61385253 -0.10968985 121.99876022 -0.12693596 C126.12426078 -0.14245429 130.24929807 -0.1383958 134.37478065 -0.11963081 C135.8835841 -0.1159582 137.39242225 -0.11901449 138.90119362 -0.1295166 C148.92142529 -0.19390649 155.99072474 0.99304101 164.43252563 6.51268005 C170.12921752 12.46831248 172.48621755 18.18617024 172.74502563 26.45018005 C172.39697699 35.35442461 169.55109829 42.16384769 163.18252563 48.38768005 C157.50259544 51.86246088 152.5375383 53.50937893 145.85279846 53.5415802 C145.20800602 53.54596245 144.56321358 53.55034471 143.89888197 53.55485976 C141.73423092 53.56823393 139.56962058 53.57442357 137.40493774 53.58055115 C135.85423601 53.58845343 134.30353611 53.59672246 132.75283813 53.60533142 C127.65519973 53.63154469 122.55755316 53.64686189 117.45986938 53.66111755 C115.70335955 53.66647819 113.94684977 53.6718557 112.19034004 53.67724991 C104.88062597 53.69888076 97.57091409 53.71761517 90.26117611 53.7288723 C79.79637288 53.74509541 69.3319419 53.77823088 58.86727899 53.83527315 C51.50406583 53.87403571 44.14095194 53.89351266 36.77763945 53.89879286 C32.38301772 53.9024387 27.98879308 53.91437715 23.59428215 53.9468956 C19.45485595 53.97708645 15.31606479 53.98324923 11.17655182 53.97151184 C9.66330911 53.971292 8.150036 53.97952272 6.63689613 53.99716568 C-3.02334321 54.10360324 -11.24088402 53.41070482 -18.71470737 46.67877769 C-24.40567238 40.75381916 -25.98513724 34.58497398 -26.31747437 26.51268005 C-26.12983947 18.89307188 -24.27823489 13.25945726 -19.17294312 7.5478363 C-13.54309648 2.35007722 -7.63456508 0.01607028 0 0 Z " fill="#E7E7EB" transform="translate(544.8174743652344,338.61231994628906)"/>
<path d="M0 0 C0.67228815 -0.00465992 1.34457629 -0.00931984 2.03723681 -0.01412097 C4.28232276 -0.0260395 6.5268 -0.01668813 8.77189064 -0.00736332 C10.40081767 -0.01153763 12.0297418 -0.01701568 13.65866053 -0.02368313 C18.12914923 -0.03814382 22.59945367 -0.03389106 27.06995249 -0.02651632 C31.89351351 -0.02178848 36.71703445 -0.03429112 41.54058266 -0.04453373 C50.9882412 -0.06173479 60.43583328 -0.062559 69.88350342 -0.05732083 C77.56251925 -0.05328021 85.24151543 -0.0547214 92.92053032 -0.06006908 C94.55961145 -0.06119172 94.55961145 -0.06119172 96.23180533 -0.06233703 C98.45163802 -0.0638685 100.6714707 -0.06540685 102.89130338 -0.066952 C123.71133769 -0.08068185 144.53133444 -0.07523601 165.35136791 -0.06376678 C184.39850037 -0.0538346 203.44553569 -0.06677398 222.49265318 -0.09070098 C242.05005298 -0.11508389 261.60740752 -0.12470179 281.16482222 -0.11804825 C292.14489035 -0.11455415 303.12488377 -0.11680069 314.10494041 -0.13429928 C323.45236727 -0.14901116 332.7996668 -0.14966996 342.14709114 -0.13222837 C346.91581199 -0.12370755 351.6843053 -0.12159525 356.45301437 -0.13687992 C360.82035327 -0.15070476 365.18726921 -0.14599227 369.5545835 -0.12664068 C371.13258462 -0.12287359 372.71061944 -0.12582312 374.2885906 -0.13625234 C384.4691079 -0.19874142 391.66483876 0.89524817 400.24494362 6.50531673 C405.94163551 12.46094916 408.29863554 18.17880692 408.55744362 26.44281673 C408.20939497 35.34706129 405.36351627 42.15648437 398.99494362 48.38031673 C393.23952554 51.90127838 388.25815482 53.5041028 381.48487186 53.51733112 C380.4838121 53.52130886 380.4838121 53.52130886 379.46252891 53.52536696 C377.21025317 53.53306999 374.95803184 53.53361952 372.70574379 53.53421688 C371.08098434 53.53823085 369.45622588 53.54266897 367.83146864 53.54749644 C363.35393189 53.55947523 358.87640592 53.56511342 354.39885628 53.56967759 C349.5745346 53.57562879 344.75022583 53.58723989 339.92591286 53.5979681 C328.26813772 53.62250395 316.6103583 53.63712139 304.95256528 53.65002817 C301.66047622 53.65373937 298.36838759 53.65771266 295.07629895 53.66178083 C274.63815591 53.6870176 254.20001222 53.70907338 233.76185703 53.72150898 C229.02648287 53.72443874 224.29110874 53.72740039 219.55573463 53.73041439 C218.37876141 53.73116044 217.20178818 53.73190649 215.9891491 53.73267515 C196.92303008 53.74532866 177.85700432 53.77855088 158.79092889 53.82021622 C139.22123025 53.86263192 119.65157935 53.88620364 100.08183485 53.89142954 C89.0921389 53.89484417 78.10258866 53.9066054 67.11293793 53.93953228 C57.75336306 53.96752896 48.39396376 53.97853378 39.03435027 53.96733682 C34.25939693 53.96214914 29.4848113 53.96504414 24.70991135 53.98980236 C20.33551789 54.01229441 15.96175627 54.01155543 11.58735175 53.99259849 C10.00785747 53.9897984 8.42832035 53.99539757 6.84889495 54.01041143 C-2.94575521 54.09779874 -11.31698191 53.50869593 -18.90035683 46.6715101 C-24.59469687 40.7501134 -26.17277776 34.57618958 -26.50505638 26.50531673 C-26.31742149 18.88570856 -24.4658169 13.25209394 -19.36052513 7.54047298 C-13.65431808 2.2722141 -7.73011238 0.00667177 0 0 Z M-18.88005638 10.31781673 C-19.43435326 10.96621517 -19.98865013 11.61461361 -20.55974388 12.28266048 C-24.87426215 18.5445424 -24.68090089 25.02302208 -24.00505638 32.38031673 C-22.5829948 38.61354475 -20.09804726 43.04578222 -15.17693138 47.12641048 C-6.73821752 51.99840176 1.38561285 51.80994838 10.85418129 51.77472591 C12.47984712 51.77961792 14.10550948 51.78580916 15.73116595 51.7931838 C20.18798818 51.80956692 24.64463332 51.80726873 29.10147512 51.80180883 C33.91207123 51.79913667 38.72262035 51.81367385 43.5331974 51.82590389 C52.95330858 51.84695136 62.37335819 51.85149917 71.7934901 51.84971601 C79.45007619 51.84840817 87.10664308 51.85221362 94.76322556 51.85964108 C96.969018 51.86174027 99.17481045 51.86383787 101.3806029 51.8659339 C102.47849288 51.86697742 103.57638287 51.86802095 104.70754225 51.8690961 C125.46796665 51.88799532 146.22835571 51.88694909 166.98878516 51.88012677 C185.98090665 51.87455009 204.9728933 51.89538268 223.96498328 51.92848724 C243.46817565 51.96221879 262.97130342 51.97739334 282.47452551 51.97277021 C293.42330074 51.97052518 304.37195129 51.97577398 315.3207016 52.0006628 C324.64067429 52.02166882 333.96045394 52.02527468 343.28043454 52.00636321 C348.03503504 51.99720158 352.78927552 51.99607558 357.54384804 52.01671886 C361.89827164 52.0354157 366.25204003 52.03094006 370.60643858 52.00817305 C372.17970141 52.00398406 373.75301434 52.00819745 375.3262242 52.02176899 C384.73023864 52.09735485 392.38461814 51.65403108 399.52966541 44.93767595 C405.6519338 38.10929563 406.54747857 31.8990953 406.33869362 23.01703548 C405.64238648 15.65042246 402.66787078 11.45668203 397.16681862 6.70453548 C388.84694197 1.63180494 380.55576232 1.95332158 371.12897682 1.99263668 C369.50259884 1.98846127 367.87622377 1.98298261 366.24985409 1.97631687 C361.79109545 1.96187102 357.3325218 1.96610428 352.87375307 1.97348368 C348.06113547 1.97821511 343.2485579 1.96570579 338.43595314 1.95546627 C329.01216222 1.9382731 319.58843796 1.93743925 310.16463542 1.94267917 C302.50565779 1.94672074 294.84669985 1.94527747 287.18772316 1.93993092 C286.09762453 1.93918249 285.00752591 1.93843407 283.88439399 1.93766297 C281.66987411 1.9361315 279.45535423 1.93459315 277.24083436 1.933048 C256.47566858 1.91932136 235.71054048 1.92476206 214.94537556 1.93623322 C195.94612997 1.9461682 176.94698174 1.93322061 157.94775116 1.90929902 C138.43891504 1.88492082 118.93012428 1.87529686 99.42127323 1.88195175 C88.46863855 1.8854465 77.51607876 1.88319489 66.56345558 1.86570072 C57.24091076 1.85099486 47.91849359 1.85032229 38.59595132 1.86777163 C33.83949879 1.87629684 29.08327448 1.87839401 24.32683372 1.86312008 C19.97192265 1.84930859 15.61743606 1.8539904 11.26254976 1.87335932 C9.68796105 1.87713049 8.11333862 1.87416522 6.53877985 1.86374766 C-3.52992468 1.80187303 -11.9705728 1.9702349 -18.88005638 10.31781673 Z " fill="#E2E2E2" transform="translate(98.00505638122559,338.61968326568604)"/>
<path d="M0 0 C0.67228815 -0.00465992 1.34457629 -0.00931984 2.03723681 -0.01412097 C4.28232276 -0.0260395 6.5268 -0.01668813 8.77189064 -0.00736332 C10.40081767 -0.01153763 12.0297418 -0.01701568 13.65866053 -0.02368313 C18.12914923 -0.03814382 22.59945367 -0.03389106 27.06995249 -0.02651632 C31.89351351 -0.02178848 36.71703445 -0.03429112 41.54058266 -0.04453373 C50.9882412 -0.06173479 60.43583328 -0.062559 69.88350342 -0.05732083 C77.56251925 -0.05328021 85.24151543 -0.0547214 92.92053032 -0.06006908 C94.55961145 -0.06119172 94.55961145 -0.06119172 96.23180533 -0.06233703 C98.45163802 -0.0638685 100.6714707 -0.06540685 102.89130338 -0.066952 C123.71133769 -0.08068185 144.53133444 -0.07523601 165.35136791 -0.06376678 C184.39850037 -0.0538346 203.44553569 -0.06677398 222.49265318 -0.09070098 C242.05005298 -0.11508389 261.60740752 -0.12470179 281.16482222 -0.11804825 C292.14489035 -0.11455415 303.12488377 -0.11680069 314.10494041 -0.13429928 C323.45236727 -0.14901116 332.7996668 -0.14966996 342.14709114 -0.13222837 C346.91581199 -0.12370755 351.6843053 -0.12159525 356.45301437 -0.13687992 C360.82035327 -0.15070476 365.18726921 -0.14599227 369.5545835 -0.12664068 C371.13258462 -0.12287359 372.71061944 -0.12582312 374.2885906 -0.13625234 C383.88678523 -0.19516707 392.05752784 0.04502483 399.55744362 6.63031673 C400.03181862 7.20781673 400.50619362 7.78531673 400.99494362 8.38031673 C397.98843352 7.73374753 395.51340171 6.68123391 392.75159836 5.34956264 C385.65029893 2.49130024 378.40892645 2.8258416 370.88846779 2.87238216 C369.26036177 2.86776796 367.63225993 2.86141156 366.00416672 2.85347319 C361.54987064 2.83682844 357.09591889 2.84500401 352.64162183 2.85741806 C347.83039702 2.86648601 343.0192305 2.85249027 338.20801735 2.84149837 C328.79116232 2.82372801 319.37443494 2.82754631 309.95757495 2.83914894 C302.30436221 2.84818774 294.65118522 2.84940533 286.99796867 2.84505367 C285.90814103 2.84444074 284.81831338 2.84382781 283.69546065 2.8431963 C281.48142383 2.84191739 279.26738702 2.84062053 277.05335023 2.83930594 C256.30151402 2.82790476 235.54974854 2.84100717 214.79792394 2.8625074 C196.99328182 2.88038298 179.18874401 2.87726957 161.38410378 2.85883236 C140.7026959 2.83742617 120.02134996 2.82899806 99.33993256 2.84128141 C97.13471739 2.8425556 94.92950222 2.84381308 92.72428703 2.84505367 C91.63930316 2.84567077 90.55431929 2.84628788 89.43645712 2.84692368 C81.7917313 2.85037695 74.14704479 2.84454881 66.50232506 2.83513546 C57.18714159 2.82391714 47.87209295 2.82695228 38.55692492 2.84825844 C33.80451353 2.85877026 29.05232694 2.86288828 24.29991722 2.84966183 C19.94877913 2.83773525 15.59807405 2.8443048 11.2469752 2.86557204 C9.67379524 2.87003691 8.10057865 2.86777437 6.52742229 2.85806888 C-2.59707383 2.80609768 -9.80303603 2.89131462 -17.02849388 9.12641048 C-17.47450951 9.68457455 -17.92052513 10.24273861 -18.38005638 10.81781673 C-18.84154076 11.37340267 -19.30302513 11.92898861 -19.77849388 12.50141048 C-23.8381867 18.7202393 -23.71524659 25.17815248 -23.00505638 32.38031673 C-22.18947354 35.14813181 -21.2046704 37.65138801 -19.97771263 40.25922298 C-19.04461535 42.2940496 -18.47527555 44.19750985 -18.00505638 46.38031673 C-23.37093023 41.73956097 -25.59534705 37.15774675 -26.36052513 30.10297298 C-26.71994645 21.15629627 -25.42704981 14.32748753 -19.36052513 7.54047298 C-13.65431808 2.2722141 -7.73011238 0.00667177 0 0 Z " fill="#969696" transform="translate(98.00505638122559,338.61968326568604)"/>
<path d="M0 0 C4.95 0 9.9 0 15 0 C14.01 0.66 13.02 1.32 12 2 C11.41651248 4.6556728 11.41651248 4.6556728 11.3125 7.625 C11.24675781 8.62789062 11.18101562 9.63078125 11.11328125 10.6640625 C11.07589844 11.43492187 11.03851563 12.20578125 11 13 C13.97 13 16.94 13 20 13 C19.91306859 11.20741442 19.80489496 9.41584856 19.6875 7.625 C19.62949219 6.62726563 19.57148438 5.62953125 19.51171875 4.6015625 C19.34285156 3.74304688 19.17398437 2.88453125 19 2 C18.01 1.34 17.02 0.68 16 0 C21.28 0 26.56 0 32 0 C31.01 0.66 30.02 1.32 29 2 C28.53353538 4.5812685 28.53353538 4.5812685 28.6015625 7.59375 C28.59769531 8.70621094 28.59382813 9.81867188 28.58984375 10.96484375 C28.60144531 12.13144531 28.61304688 13.29804688 28.625 14.5 C28.61339844 15.66660156 28.60179687 16.83320313 28.58984375 18.03515625 C28.59564453 19.70384766 28.59564453 19.70384766 28.6015625 21.40625 C28.60494629 22.43041016 28.60833008 23.45457031 28.61181641 24.50976562 C28.80396729 25.74243164 28.80396729 25.74243164 29 27 C29.99 27.66 30.98 28.32 32 29 C26.72 29 21.44 29 16 29 C16.99 28.34 17.98 27.68 19 27 C19.58481121 24.11404054 19.58481121 24.11404054 19.6875 20.875 C19.75324219 19.77929688 19.81898438 18.68359375 19.88671875 17.5546875 C19.92410156 16.71164063 19.96148437 15.86859375 20 15 C17.03 15 14.06 15 11 15 C11.0868748 16.95917659 11.19504512 18.91741871 11.3125 20.875 C11.39951172 22.51082031 11.39951172 22.51082031 11.48828125 24.1796875 C11.65714844 25.11039063 11.82601562 26.04109375 12 27 C12.99 27.66 13.98 28.32 15 29 C10.05 29 5.1 29 0 29 C1.32 28.34 2.64 27.68 4 27 C3.9192614 23.06165122 3.80640623 19.12486673 3.6875 15.1875 C3.66494141 14.06794922 3.64238281 12.94839844 3.61914062 11.79492188 C3.58369141 10.72177734 3.54824219 9.64863281 3.51171875 8.54296875 C3.48553467 7.55321045 3.45935059 6.56345215 3.43237305 5.54370117 C3.18558494 2.60696999 3.18558494 2.60696999 0 0 Z " fill="#F6D9B5" transform="translate(241,140)"/>
<path d="M0 0 C2.64 0 5.28 0 8 0 C8.01981934 0.80743652 8.03963867 1.61487305 8.06005859 2.44677734 C8.15505899 6.08985875 8.26483912 9.73234686 8.375 13.375 C8.4059375 14.64601562 8.436875 15.91703125 8.46875 17.2265625 C8.50742187 18.43828125 8.54609375 19.65 8.5859375 20.8984375 C8.63306885 22.57945557 8.63306885 22.57945557 8.68115234 24.29443359 C8.73411203 27.14710412 8.73411203 27.14710412 11 29 C9.54182203 29.16802051 8.0834516 29.33437143 6.625 29.5 C5.81289063 29.5928125 5.00078125 29.685625 4.1640625 29.78125 C2 30 2 30 0 30 C-0.94875 30.103125 -1.8975 30.20625 -2.875 30.3125 C-6 30 -6 30 -8.3125 27.625 C-11.04498052 23.37447474 -11.6525095 20.02432319 -11 15 C-9.4375 11.5625 -9.4375 11.5625 -7 9 C-3.3125 8.0625 -3.3125 8.0625 0 8 C0.33 8.33 0.66 8.66 1 9 C1.33 6.36 1.66 3.72 2 1 C1.34 0.67 0.68 0.34 0 0 Z " fill="#E7CFAF" transform="translate(498,140)"/>
<path d="M0 0 C7.92 0 15.84 0 24 0 C24 2.97 24 5.94 24 9 C23.34 9 22.68 9 22 9 C21.855625 8.21625 21.71125 7.4325 21.5625 6.625 C20.28463143 3.84843237 20.28463143 3.84843237 17.86328125 3.22265625 C15.59145103 2.73405226 13.29560761 2.36073834 11 2 C11 5.63 11 9.26 11 13 C12.32 12.67 13.64 12.34 15 12 C15.33 10.02 15.66 8.04 16 6 C16.33 6 16.66 6 17 6 C17 11.28 17 16.56 17 22 C15 18 15 18 15 16 C13.68 15.67 12.36 15.34 11 15 C11.33 18.63 11.66 22.26 12 26 C16.86076494 26.3456686 16.86076494 26.3456686 21.3125 24.6875 C23.20428764 22.90602769 23.20428764 22.90602769 25 20 C25 22.97 25 25.94 25 29 C16.75 29 8.5 29 0 29 C1.32 28.34 2.64 27.68 4 27 C4 18.42 4 9.84 4 1 C2.68 0.67 1.36 0.34 0 0 Z " fill="#F5DBB8" transform="translate(339,140)"/>
<path d="M0 0 C2.875 2.4375 2.875 2.4375 5 5 C5.33 5.33 5.66 5.66 6 6 C6.61676323 10.8026645 6.43376712 14.19030137 4.125 18.5 C1.46121182 21.63386845 0.77549161 21.9122085 -3.3125 22.375 C-7 22 -7 22 -9.875 19.6875 C-13.17851707 15.50952253 -13.44323771 12.23020495 -13 7 C-9.48241444 0.66834599 -7.27268764 -0.73959535 0 0 Z " fill="#E6D5BC" transform="translate(287,148)"/>
<path d="M0 0 C3.44703711 0.66521769 5.85720439 1.43073547 8.45703125 3.86328125 C10.83632121 7.78953006 10.35025555 12.3154567 9.5625 16.6875 C7.76131522 19.68947464 6.65917268 21.13916366 3.5625 22.6875 C-2.68009681 23.26551822 -2.68009681 23.26551822 -5.8125 20.875 C-8.61538525 17.10188523 -8.84428105 13.53611131 -8.77734375 8.984375 C-8.0063654 3.77362475 -5.21153622 1.04230724 0 0 Z " fill="#EFD8B7" transform="translate(519.4375,147.3125)"/>
<path d="M0 0 C1.79133978 -0.05391993 3.58313899 -0.09275571 5.375 -0.125 C6.37273437 -0.14820313 7.37046875 -0.17140625 8.3984375 -0.1953125 C11 0 11 0 13 2 C13.99 1.34 14.98 0.68 16 0 C19.5625 -0.25 19.5625 -0.25 23 0 C25.58926331 2.58926331 25.37398043 4.02705279 25.625 7.625 C25.69976562 8.62789063 25.77453125 9.63078125 25.8515625 10.6640625 C25.92503906 11.82035156 25.92503906 11.82035156 26 13 C22.23871405 13.80963274 18.85271069 14.08375458 15 14 C14.01 14 13.02 14 12 14 C7.66666667 14 3.33333333 14 -1 14 C0.98 10.04 2.96 6.08 5 2 C4.01 2 3.02 2 2 2 C1.34 2.66 0.68 3.32 0 4 C0 2.68 0 1.36 0 0 Z " fill="#50160C" transform="translate(383,287)"/>
<path d="M0 0 C3.33247562 3.03464567 3.41921648 6.14159954 3.61914062 10.39453125 C3.64169922 11.17183594 3.66425781 11.94914063 3.6875 12.75 C3.73874023 13.93916016 3.73874023 13.93916016 3.79101562 15.15234375 C3.87319104 17.10107504 3.93828045 19.05051362 4 21 C0.7 21 -2.6 21 -6 21 C-5.34 20.67 -4.68 20.34 -4 20 C-4 14.39 -4 8.78 -4 3 C-8.21582418 6.41760736 -8.21582418 6.41760736 -8.42578125 9.9453125 C-8.38839844 10.99460938 -8.35101563 12.04390625 -8.3125 13.125 C-8.28800781 14.17945313 -8.26351563 15.23390625 -8.23828125 16.3203125 C-8.16751144 18.9701729 -8.16751144 18.9701729 -7 21 C-10.3 21 -13.6 21 -17 21 C-16.34 20.67 -15.68 20.34 -15 20 C-15 14.06 -15 8.12 -15 2 C-15.66 1.67 -16.32 1.34 -17 1 C-15.95199219 1.01740234 -15.95199219 1.01740234 -14.8828125 1.03515625 C-13.97273438 1.04417969 -13.06265625 1.05320313 -12.125 1.0625 C-10.76761719 1.07990234 -10.76761719 1.07990234 -9.3828125 1.09765625 C-5.92464178 0.95592794 -3.63401628 -0.44317272 0 0 Z " fill="#EBCFAB" transform="translate(459,148)"/>
<path d="M0 0 C2.234375 1.01171875 2.234375 1.01171875 4 3 C4.29561076 5.87038052 4.37943016 8.33754745 4.25 11.1875 C4.23195313 11.93708984 4.21390625 12.68667969 4.1953125 13.45898438 C4.14824109 15.3065371 4.07649766 17.15343159 4 19 C4.66 19.33 5.32 19.66 6 20 C4 22 4 22 1.5625 22.1875 C-1 22 -1 22 -4 21 C-6.33491639 21.32205743 -8.66842508 21.65458149 -11 22 C-12 21 -12 21 -12.5 17.75 C-12 14 -12 14 -10.5078125 12.42578125 C-5.7765043 9 -5.7765043 9 -3 9 C-3.33 6.69 -3.66 4.38 -4 2 C-4.66 2 -5.32 2 -6 2 C-6 3.65 -6 5.3 -6 7 C-7.65 7.33 -9.3 7.66 -11 8 C-11.33 6.35 -11.66 4.7 -12 3 C-8.51819329 -0.48180671 -4.70000351 -0.93632882 0 0 Z " fill="#FCDAB1" transform="translate(479,148)"/>
<path d="M0 0 C1.73046875 1.015625 1.73046875 1.015625 3 3 C3.21714241 5.81127043 3.28284276 8.3883345 3.1875 11.1875 C3.16719727 12.31188477 3.16719727 12.31188477 3.14648438 13.45898438 C3.11118539 15.30629767 3.05737917 17.15324066 3 19 C3.66 19.33 4.32 19.66 5 20 C3 22 3 22 0.5625 22.1875 C-2 22 -2 22 -5 21 C-7.33491639 21.32205743 -9.66842508 21.65458149 -12 22 C-13 21 -13 21 -13.3125 18.1875 C-13 15 -13 15 -11.3125 12.8125 C-9 11 -9 11 -6.25 9.625 C-5.5075 9.08875 -4.765 8.5525 -4 8 C-3.58253392 4.87364791 -3.58253392 4.87364791 -4 2 C-4.99 2 -5.98 2 -7 2 C-7 3.65 -7 5.3 -7 7 C-8.65 7.33 -10.3 7.66 -12 8 C-12.33 6.68 -12.66 5.36 -13 4 C-8.63746709 -0.36253291 -5.90603152 -0.66681001 0 0 Z " fill="#F7E1BA" transform="translate(321,148)"/>
<path d="M0 0 C2.625 0.25 2.625 0.25 4.27075195 1.51489258 C5.9175722 3.62485319 5.97763797 4.61638329 5.91796875 7.26171875 C5.90830078 8.01904297 5.89863281 8.77636719 5.88867188 9.55664062 C5.86353516 10.34232422 5.83839844 11.12800781 5.8125 11.9375 C5.79219727 13.13342773 5.79219727 13.13342773 5.77148438 14.35351562 C5.73617089 16.31929967 5.68236447 18.28473582 5.625 20.25 C6.285 20.58 6.945 20.91 7.625 21.25 C4.325 21.25 1.025 21.25 -2.375 21.25 C-2.045 20.59 -1.715 19.93 -1.375 19.25 C-1.3033265 16.69842345 -1.28191558 14.17527029 -1.3125 11.625 C-1.31701172 10.91859375 -1.32152344 10.2121875 -1.32617188 9.484375 C-1.33796125 7.73954725 -1.35589676 5.994763 -1.375 4.25 C-2.365 4.58 -3.355 4.91 -4.375 5.25 C-4.705 10.2 -5.035 15.15 -5.375 20.25 C-4.715 20.58 -4.055 20.91 -3.375 21.25 C-6.675 21.25 -9.975 21.25 -13.375 21.25 C-13.045 20.59 -12.715 19.93 -12.375 19.25 C-12.27690142 16.57248582 -12.2359603 13.92690283 -12.25 11.25 C-12.24419922 10.14398438 -12.24419922 10.14398438 -12.23828125 9.015625 C-12.16082588 5.00278359 -12.16082588 5.00278359 -13.375 1.25 C-10.04166667 1.25 -6.70833333 1.25 -3.375 1.25 C-2.375 0.25 -2.375 0.25 0 0 Z " fill="#FBDAB1" transform="translate(381.375,147.75)"/>
<path d="M0 0 C3.96 0 7.92 0 12 0 C12.33 0.66 12.66 1.32 13 2 C13.99 1.34 14.98 0.68 16 0 C19.125 -0.1875 19.125 -0.1875 22 0 C23 1 23 1 23.09765625 3.50390625 C23.08605469 4.51324219 23.07445312 5.52257812 23.0625 6.5625 C23.05347656 7.57441406 23.04445313 8.58632813 23.03515625 9.62890625 C23.02355469 10.41136719 23.01195312 11.19382812 23 12 C23.66 12.33 24.32 12.66 25 13 C20.92306087 14.08718377 18.12994007 13.95306309 14 13 C13.67 12.67 13.34 12.34 13 12 C12.67 12.66 12.34 13.32 12 14 C8.04 14 4.08 14 0 14 C1.94627839 9.13430402 3.92084239 6.13255363 7 2 C4.58354218 1.83312552 4.58354218 1.83312552 2 2 C1.34 2.66 0.68 3.32 0 4 C0 2.68 0 1.36 0 0 Z " fill="#D4DDE4" transform="translate(644,362)"/>
<path d="M0 0 C3.70573409 0.77202794 5.44156936 1.84082548 8 4.625 C8 6.275 8 7.925 8 9.625 C4.7 9.625 1.4 9.625 -2 9.625 C-1.01 12.595 -0.02 15.565 1 18.625 C4.60992379 17.96914811 4.60992379 17.96914811 8 16.625 C7.75 18.5 7.75 18.5 7 20.625 C3.83489882 22.96951939 0.83665065 23.17309295 -3 22.625 C-5.875 20.8125 -5.875 20.8125 -8 17.625 C-8.84633617 13.13395804 -8.98226006 8.80595031 -7.078125 4.578125 C-5.03333724 1.78977806 -3.3657013 0.70118777 0 0 Z " fill="#F3D7B2" transform="translate(432,147.375)"/>
<path d="M0 0 C5.33333333 0 10.66666667 0 16 0 C17.2684375 -0.061875 17.2684375 -0.061875 18.5625 -0.125 C21 0 21 0 23 2 C23.4140625 4.8203125 23.4140625 4.8203125 23.625 8.125 C23.69976563 9.22070312 23.77453125 10.31640625 23.8515625 11.4453125 C23.92503906 12.70988281 23.92503906 12.70988281 24 14 C21.69 14 19.38 14 17 14 C17.33 10.04 17.66 6.08 18 2 C17.01 2.495 17.01 2.495 16 3 C16 6.63 16 10.26 16 14 C13.69 14 11.38 14 9 14 C9.33 10.04 9.66 6.08 10 2 C8.68 2.33 7.36 2.66 6 3 C6 6.3 6 9.6 6 13 C6.66 13.33 7.32 13.66 8 14 C5.36 14 2.72 14 0 14 C0.66 13.67 1.32 13.34 2 13 C1.85915204 11.20793453 1.71216299 9.41635083 1.5625 7.625 C1.48128906 6.62726563 1.40007813 5.62953125 1.31640625 4.6015625 C1.15034374 2.02072387 1.15034374 2.02072387 0 0 Z " fill="#F1DBBA" transform="translate(575,287)"/>
<path d="M0 0 C1.98 0 3.96 0 6 0 C6.33 1.98 6.66 3.96 7 6 C7.763125 5.938125 8.52625 5.87625 9.3125 5.8125 C12 6 12 6 13.8125 7.125 C15.58705868 9.92693476 15.45583783 11.74401548 15 15 C13.625 17.875 13.625 17.875 11 20 C7.7 20 4.4 20 1 20 C0.67 13.4 0.34 6.8 0 0 Z " fill="#E9CCA4" transform="translate(600,281)"/>
<path d="M0 0 C1.93875 -0.020625 3.8775 -0.04125 5.875 -0.0625 C6.96554687 -0.07410156 8.05609375 -0.08570313 9.1796875 -0.09765625 C12 0 12 0 14 1 C16.33414529 0.67240066 18.66752239 0.33926947 21 0 C22 1 22 1 22.09765625 3.72265625 C22.08605469 4.82480469 22.07445312 5.92695313 22.0625 7.0625 C22.05347656 8.16722656 22.04445313 9.27195312 22.03515625 10.41015625 C22.02355469 11.26480469 22.01195312 12.11945313 22 13 C22.66 13.33 23.32 13.66 24 14 C21.36 14 18.72 14 16 14 C16.33 13.34 16.66 12.68 17 12 C17.06950541 10.45976004 17.08452357 8.91665012 17.0625 7.375 C17.05347656 6.55773437 17.04445313 5.74046875 17.03515625 4.8984375 C17.02355469 4.27195312 17.01195312 3.64546875 17 3 C16.01 3 15.02 3 14 3 C14.33 6.63 14.66 10.26 15 14 C12.69 14 10.38 14 8 14 C8.33 13.34 8.66 12.68 9 12 C9.06950541 10.45976004 9.08452357 8.91665012 9.0625 7.375 C9.05347656 6.55773437 9.04445313 5.74046875 9.03515625 4.8984375 C9.02355469 4.27195312 9.01195312 3.64546875 9 3 C8.34 3 7.68 3 7 3 C7 6.63 7 10.26 7 14 C4.69 14 2.38 14 0 14 C0 9.38 0 4.76 0 0 Z " fill="#F1D8B3" transform="translate(464,287)"/>
<path d="M0 0 C1.93875 -0.020625 3.8775 -0.04125 5.875 -0.0625 C6.96554687 -0.07410156 8.05609375 -0.08570313 9.1796875 -0.09765625 C12 0 12 0 14 1 C16.33414529 0.67240066 18.66752239 0.33926947 21 0 C22 1 22 1 22.09765625 3.72265625 C22.08605469 4.82480469 22.07445312 5.92695313 22.0625 7.0625 C22.05347656 8.16722656 22.04445313 9.27195312 22.03515625 10.41015625 C22.02355469 11.26480469 22.01195312 12.11945313 22 13 C22.66 13.33 23.32 13.66 24 14 C21.36 14 18.72 14 16 14 C16.33 13.34 16.66 12.68 17 12 C17.06950541 10.45976004 17.08452357 8.91665012 17.0625 7.375 C17.05347656 6.55773437 17.04445313 5.74046875 17.03515625 4.8984375 C17.02355469 4.27195312 17.01195312 3.64546875 17 3 C16.01 3 15.02 3 14 3 C14.33 6.63 14.66 10.26 15 14 C12.69 14 10.38 14 8 14 C8.33 13.34 8.66 12.68 9 12 C9.06950541 10.45976004 9.08452357 8.91665012 9.0625 7.375 C9.05347656 6.55773437 9.04445313 5.74046875 9.03515625 4.8984375 C9.02355469 4.27195312 9.01195312 3.64546875 9 3 C8.34 3 7.68 3 7 3 C7 6.63 7 10.26 7 14 C4.69 14 2.38 14 0 14 C0 9.38 0 4.76 0 0 Z " fill="#F1D8B3" transform="translate(328,287)"/>
<path d="M0 0 C10.625 -0.25 10.625 -0.25 14 2 C14.3984375 4.05859375 14.3984375 4.05859375 14.375 6.4375 C14.38273438 7.21996094 14.39046875 8.00242187 14.3984375 8.80859375 C13.90566676 11.51883283 13.24234128 12.42224403 11 14 C9.68 14 8.36 14 7 14 C6.67 15.65 6.34 17.3 6 19 C6.66 19.33 7.32 19.66 8 20 C5.36 20 2.72 20 0 20 C0 13.4 0 6.8 0 0 Z " fill="#F1D5AF" transform="translate(217,287)"/>
<path d="M0 0 C2.24940295 -0.08119503 4.49964871 -0.13927819 6.75 -0.1875 C8.00296875 -0.22230469 9.2559375 -0.25710938 10.546875 -0.29296875 C14.14109357 0.01197061 15.44725126 0.54394629 18 3 C17.6875 5.875 17.6875 5.875 17 9 C13.5647952 11.29013653 12.014669 11.17842973 8 11 C8 13.64 8 16.28 8 19 C8.99 19.33 9.98 19.66 11 20 C7.37 20 3.74 20 0 20 C0.99 19.67 1.98 19.34 3 19 C3 13.06 3 7.12 3 1 C2.01 0.67 1.02 0.34 0 0 Z " fill="#EFDBBB" transform="translate(147,281)"/>
<path d="M0 0 C2.66692781 0.6095835 4.53725923 0.05794542 7.1875 -0.5 C7.8475 -0.17 8.5075 0.16 9.1875 0.5 C10.1775 0.314375 11.1675 0.12875 12.1875 -0.0625 C13.6725 -0.2790625 13.6725 -0.2790625 15.1875 -0.5 C17.1875 1.5 17.1875 1.5 17.3828125 4.1015625 C17.35960937 5.09929687 17.33640625 6.09703125 17.3125 7.125 C17.29445313 8.12789063 17.27640625 9.13078125 17.2578125 10.1640625 C17.23460937 10.93492187 17.21140625 11.70578125 17.1875 12.5 C17.8475 12.83 18.5075 13.16 19.1875 13.5 C16.8775 13.5 14.5675 13.5 12.1875 13.5 C12.8475 13.17 13.5075 12.84 14.1875 12.5 C14.1875 8.87 14.1875 5.24 14.1875 1.5 C12.2075 1.83 10.2275 2.16 8.1875 2.5 C8.30159593 3.95922693 8.42915544 5.41740598 8.5625 6.875 C8.63210938 7.68710937 8.70171875 8.49921875 8.7734375 9.3359375 C9.01642588 11.70334191 9.01642588 11.70334191 11.1875 13.5 C6.2375 13.5 1.2875 13.5 -3.8125 13.5 C-3.1525 13.17 -2.4925 12.84 -1.8125 12.5 C-1.8125 8.87 -1.8125 5.24 -1.8125 1.5 C-2.4725 1.17 -3.1325 0.84 -3.8125 0.5 C-1.8125 -0.5 -1.8125 -0.5 0 0 Z " fill="#C3D0D7" transform="translate(595.8125,362.5)"/>
<path d="M0 0 C1.98 0 3.96 0 6 0 C6 5.94 6 11.88 6 18 C6.66 18.33 7.32 18.66 8 19 C-2.22368421 20.94736842 -2.22368421 20.94736842 -5.875 19 C-7.68324933 15.78533453 -7.54662881 12.59427161 -7 9 C-5.8125 7 -5.8125 7 -4 6 C-1.3125 5.8125 -1.3125 5.8125 1 6 C1.33 4.35 1.66 2.7 2 1 C1.34 0.67 0.68 0.34 0 0 Z " fill="#E9D4B5" transform="translate(256,281)"/>
<path d="M0 0 C1.98 0 3.96 0 6 0 C6 5.94 6 11.88 6 18 C6.66 18.33 7.32 18.66 8 19 C6.26780072 20.73219928 3.97973192 20.21291761 1.625 20.25 C0.64789063 20.27578125 -0.32921875 20.3015625 -1.3359375 20.328125 C-4 20 -4 20 -5.828125 18.734375 C-7.88888146 15.68445545 -7.53768214 12.53544421 -7 9 C-5.8125 7 -5.8125 7 -4 6 C-1.3125 5.8125 -1.3125 5.8125 1 6 C1.33 4.35 1.66 2.7 2 1 C1.34 0.67 0.68 0.34 0 0 Z " fill="#F3D6B2" transform="translate(439,281)"/>
<path d="M0 0 C2.64 0 5.28 0 8 0 C8.01981934 0.80743652 8.03963867 1.61487305 8.06005859 2.44677734 C8.15505899 6.08985875 8.26483912 9.73234686 8.375 13.375 C8.4059375 14.64601562 8.436875 15.91703125 8.46875 17.2265625 C8.50742187 18.43828125 8.54609375 19.65 8.5859375 20.8984375 C8.6173584 22.01911621 8.6487793 23.13979492 8.68115234 24.29443359 C8.73411203 27.14710412 8.73411203 27.14710412 11 29 C7.04 29.495 7.04 29.495 3 30 C1.83173678 26.49521035 1.64984464 23.15511273 1.4375 19.5 C1.39431641 18.82324219 1.35113281 18.14648438 1.30664062 17.44921875 C0.95314271 11.75958558 1.26151775 6.63092715 2 1 C1.34 0.67 0.68 0.34 0 0 Z " fill="#EED9BF" transform="translate(498,140)"/>
<path d="M0 0 C1.67542976 0.28604898 3.34385343 0.61781233 5 1 C4.67 2.65 4.34 4.3 4 6 C3.195625 5.814375 2.39125 5.62875 1.5625 5.4375 C0.716875 5.293125 -0.12875 5.14875 -1 5 C-2.94090826 6.94090826 -2.39919435 10.47293902 -2.5625 13.0625 C-2.64628906 14.35285156 -2.73007812 15.64320313 -2.81640625 16.97265625 C-2.87699219 17.97167969 -2.93757812 18.97070312 -3 20 C-2.34 20.33 -1.68 20.66 -1 21 C-4.63 21 -8.26 21 -12 21 C-11.34 20.67 -10.68 20.34 -10 20 C-10 14.06 -10 8.12 -10 2 C-10.66 1.67 -11.32 1.34 -12 1 C-8.33333333 1 -4.66666667 1 -1 1 C-0.67 0.67 -0.34 0.34 0 0 Z " fill="#F4E0C1" transform="translate(544,148)"/>
<path d="M0 0 C2.64 0 5.28 0 8 0 C8.01981934 0.80743652 8.03963867 1.61487305 8.06005859 2.44677734 C8.15505899 6.08985875 8.26483912 9.73234686 8.375 13.375 C8.4059375 14.64601562 8.436875 15.91703125 8.46875 17.2265625 C8.50742187 18.43828125 8.54609375 19.65 8.5859375 20.8984375 C8.6173584 22.01911621 8.6487793 23.13979492 8.68115234 24.29443359 C8.73411203 27.14710412 8.73411203 27.14710412 11 29 C7.37 29 3.74 29 0 29 C0.66 28.67 1.32 28.34 2 28 C2 19.09 2 10.18 2 1 C1.34 0.67 0.68 0.34 0 0 Z " fill="#F1DDC2" transform="translate(295,140)"/>
<path d="M0 0 C1.2065625 0.0309375 1.2065625 0.0309375 2.4375 0.0625 C2.4375 1.7125 2.4375 3.3625 2.4375 5.0625 C-0.05314888 5.74957555 -1.94136292 6.0625 -4.5625 6.0625 C-4.8925 10.6825 -5.2225 15.3025 -5.5625 20.0625 C-4.9025 20.3925 -4.2425 20.7225 -3.5625 21.0625 C-6.8625 21.0625 -10.1625 21.0625 -13.5625 21.0625 C-13.5625 14.4625 -13.5625 7.8625 -13.5625 1.0625 C-10.22916667 1.0625 -6.89583333 1.0625 -3.5625 1.0625 C-2.5625 0.0625 -2.5625 0.0625 0 0 Z " fill="#EDDAC0" transform="translate(419.5625,147.9375)"/>
<path d="M0 0 C0.33 0 0.66 0 1 0 C1 2.31 1 4.62 1 7 C2.65 7 4.3 7 6 7 C6 7.66 6 8.32 6 9 C4.35 9 2.7 9 1 9 C1.33 13.95 1.66 18.9 2 24 C3.32 23.67 4.64 23.34 6 23 C4.125 26.875 4.125 26.875 3 28 C-0.5 27.6875 -0.5 27.6875 -4 27 C-5.59412284 23.81175432 -5.10174735 20.37103338 -5.0625 16.875 C-5.05798828 16.12089844 -5.05347656 15.36679688 -5.04882812 14.58984375 C-5.03703499 12.72652873 -5.01909942 10.86325445 -5 9 C-5.99 8.67 -6.98 8.34 -8 8 C-6.50260417 6.79557292 -5.00520833 5.59114583 -3.5078125 4.38671875 C-1.74707893 2.87729455 -1.74707893 2.87729455 0 0 Z " fill="#F1DBBA" transform="translate(398,142)"/>
<path d="M0 0 C9.27734375 -0.09765625 9.27734375 -0.09765625 12 0 C13 1 13 1 13.09765625 3.72265625 C13.08605469 4.82480469 13.07445312 5.92695313 13.0625 7.0625 C13.05347656 8.16722656 13.04445313 9.27195312 13.03515625 10.41015625 C13.02355469 11.26480469 13.01195312 12.11945313 13 13 C13.66 13.33 14.32 13.66 15 14 C10.05 14 5.1 14 0 14 C0 9.38 0 4.76 0 0 Z " fill="#EDD3B2" transform="translate(544,287)"/>
<path d="M0 0 C1.95803507 -0.05389087 3.91648909 -0.09274217 5.875 -0.125 C7.51082031 -0.15980469 7.51082031 -0.15980469 9.1796875 -0.1953125 C12 0 12 0 14 2 C14.58569979 5.98938913 14.74288497 9.97186456 15 14 C10.05 14 5.1 14 0 14 C0.66 13.67 1.32 13.34 2 13 C1.85915204 11.20793453 1.71216299 9.41635083 1.5625 7.625 C1.48128906 6.62726563 1.40007812 5.62953125 1.31640625 4.6015625 C1.15034374 2.02072387 1.15034374 2.02072387 0 0 Z " fill="#EFD3AE" transform="translate(366,287)"/>
<path d="M0 0 C2.375 1.625 2.375 1.625 4 4 C4.61195145 7.6717087 4.48706506 9.28813568 2.375 12.375 C-0.67785921 14.46379841 -2.36968224 14.54068562 -6 14 C-7.875 13 -7.875 13 -9 11 C-9.53967465 7.40216898 -9.68523932 4.21820324 -7.875 1 C-5.05480125 -0.504106 -3.14389944 -0.44912849 0 0 Z " fill="#DFCBAD" transform="translate(322,287)"/>
<path d="M0 0 C2.375 1.625 2.375 1.625 4 4 C4.61195145 7.6717087 4.48706506 9.28813568 2.375 12.375 C-0.67785921 14.46379841 -2.36968224 14.54068562 -6 14 C-7.875 13 -7.875 13 -9 11 C-9.53967465 7.40216898 -9.68523932 4.21820324 -7.875 1 C-5.05480125 -0.504106 -3.14389944 -0.44912849 0 0 Z " fill="#DFCBAD" transform="translate(243,287)"/>
<path d="M0 0 C1 1 1 1 1.09765625 3.50390625 C1.08605469 4.51324219 1.07445312 5.52257812 1.0625 6.5625 C1.05347656 7.57441406 1.04445313 8.58632813 1.03515625 9.62890625 C1.02355469 10.41136719 1.01195312 11.19382812 1 12 C1.66 12.33 2.32 12.66 3 13 C-1.95 13 -6.9 13 -12 13 C-11.34 12.67 -10.68 12.34 -10 12 C-10.33 8.04 -10.66 4.08 -11 0 C-7.37615673 -1.81192163 -3.77763575 -0.91888437 0 0 Z " fill="#DAE4E6" transform="translate(640,363)"/>
<path d="M0 0 C1.875 1 1.875 1 3 3 C3.53967465 6.59783102 3.68523932 9.78179676 1.875 13 C-0.98184051 14.52364827 -2.81775209 14.51955068 -6 14 C-8.62846098 11.57904909 -9.81388233 9.95385308 -10.5 6.4375 C-9.30748787 0.62400335 -5.52836414 -0.82337338 0 0 Z " fill="#F3DBB3" transform="translate(570,287)"/>
<path d="M0 0 C2 2 2 2 2.375 5.375 C2 9 2 9 0.3125 11.4375 C-2 13 -2 13 -4.5 13.5625 C-7 13 -7 13 -9.375 10.875 C-11 8 -11 8 -10.9375 4.875 C-8.85801124 -1.50209887 -6.36703702 -1.50493602 0 0 Z " fill="#2A1D23" transform="translate(588,363)"/>
<path d="M0 0 C1.98 0 3.96 0 6 0 C6 3.96 6 7.92 6 12 C6.66 11.67 7.32 11.34 8 11 C8 7.37 8 3.74 8 0 C9.98 0 11.96 0 14 0 C14.33 4.62 14.66 9.24 15 14 C5.72265625 14.09765625 5.72265625 14.09765625 3 14 C1.28132657 12.28132657 1.67079401 9.90786781 1.5 7.5625 C1.28580817 3.63565085 1.28580817 3.63565085 0 0 Z " fill="#ECD8B7" transform="translate(519,287)"/>
<path d="M0 0 C2.64 0 5.28 0 8 0 C9.14596107 5.1568248 9.04194786 10.14212016 8.9375 15.390625 C8.81437675 17.98347692 8.81437675 17.98347692 10 20 C6.7 20 3.4 20 0 20 C0.66 19.67 1.32 19.34 2 19 C2 13.06 2 7.12 2 1 C1.34 0.67 0.68 0.34 0 0 Z " fill="#ECD9BF" transform="translate(442,149)"/>
<path d="M0 0 C2 2 2 2 2.1953125 4.3828125 C2.17210937 5.28773438 2.14890625 6.19265625 2.125 7.125 C2.10695312 8.03507812 2.08890625 8.94515625 2.0703125 9.8828125 C2.04710937 10.58148438 2.02390625 11.28015625 2 12 C2.66 12.33 3.32 12.66 4 13 C-0.06368679 13.77403558 -3.86425173 14.0984702 -8 14 C-8.33 12.35 -8.66 10.7 -9 9 C-4.25 5 -4.25 5 -2 5 C-2.33 4.01 -2.66 3.02 -3 2 C-3.66 1.67 -4.32 1.34 -5 1 C-5 2.32 -5 3.64 -5 5 C-6.32 4.67 -7.64 4.34 -9 4 C-8.67 3.01 -8.34 2.02 -8 1 C-5.23749964 -0.38125018 -3.05268901 -0.19079306 0 0 Z " fill="#F5DCB6" transform="translate(204,287)"/>
<path d="M0 0 C2.4375 0.4375 2.4375 0.4375 4.25 1.6875 C5.4375 3.4375 5.4375 3.4375 5.4375 7.4375 C3.1275 7.4375 0.8175 7.4375 -1.5625 7.4375 C-0.9025 8.7575 -0.2425 10.0775 0.4375 11.4375 C2.0875 11.1075 3.7375 10.7775 5.4375 10.4375 C4.4375 13.4375 4.4375 13.4375 2.4375 14.4375 C-0.5 14.75 -0.5 14.75 -3.5625 14.4375 C-6.12252346 12.218813 -6.51173191 10.78562407 -7 7.4375 C-6.5625 4.4375 -6.5625 4.4375 -4.875 2.0625 C-2.5625 0.4375 -2.5625 0.4375 0 0 Z " fill="#C6AA90" transform="translate(271.5625,286.5625)"/>
<path d="M0 0 C0.33 0 0.66 0 1 0 C1 6.33333333 1 12.66666667 1 19 C-0.47831221 19.19412181 -1.95769316 19.38012131 -3.4375 19.5625 C-4.26121094 19.66691406 -5.08492188 19.77132812 -5.93359375 19.87890625 C-6.61550781 19.91886719 -7.29742187 19.95882812 -8 20 C-9 19 -9 19 -9.5 15.75 C-9 12 -9 12 -7.5078125 10.42578125 C-2.7765043 7 -2.7765043 7 0 7 C0 4.69 0 2.38 0 0 Z " fill="#D1C6AD" transform="translate(476,150)"/>
<path d="M0 0 C2.66730871 0.34766203 3.74125668 0.6874653 5.484375 2.79296875 C9.69428467 10.75801389 10.66586042 18.9125207 8.265625 27.68359375 C5.28336361 34.93146672 1.13405353 39.96911572 -6.0625 43.25390625 C-8.3485812 44.13423187 -10.56884821 44.69610603 -13 45 C-10.75259369 42.5156467 -8.54505044 41.12381961 -5.5625 39.625 C0.4515274 36.35968529 3.30295778 32.24383747 6 26 C7.27891986 15.42298713 5.80567979 8.70851969 0 0 Z " fill="#DAD7D7" transform="translate(497,347)"/>
<path d="M0 0 C3.69230769 0.69230769 3.69230769 0.69230769 5 2 C5.12617338 4.26818662 5.17580246 6.54083685 5.1875 8.8125 C5.20167969 10.05644531 5.21585937 11.30039063 5.23046875 12.58203125 C5.01852668 15.72523994 4.66475807 17.38771164 3 20 C1.68 19.67 0.36 19.34 -1 19 C-1.02683987 16.02077407 -1.04676037 13.04178705 -1.0625 10.0625 C-1.07087891 9.21236328 -1.07925781 8.36222656 -1.08789062 7.48632812 C-1.09111328 6.67744141 -1.09433594 5.86855469 -1.09765625 5.03515625 C-1.10289307 4.2862915 -1.10812988 3.53742676 -1.11352539 2.76586914 C-1 1 -1 1 0 0 Z " fill="#3E1316" transform="translate(282,149)"/>
<path d="M0 0 C1.32 0.66 2.64 1.32 4 2 C4 7.28 4 12.56 4 18 C2.02 18.99 2.02 18.99 0 20 C-2.55948999 17.44051001 -2.26068731 15.72792805 -2.2734375 12.234375 C-2.26570312 11.49703125 -2.25796875 10.7596875 -2.25 10 C-2.25773438 9.26265625 -2.26546875 8.5253125 -2.2734375 7.765625 C-2.2533196 2.2533196 -2.2533196 2.2533196 0 0 Z " fill="#460707" transform="translate(519,149)"/>
<path d="M0 0 C0 0.66 0 1.32 0 2 C-1.79296875 3.26171875 -1.79296875 3.26171875 -4.1875 4.6875 C-9.56108285 8.14013276 -12.93950011 11.81850034 -15 18 C-15.65256754 25.62755178 -15.24861158 31.91603345 -11.97265625 38.87890625 C-11.03955896 40.91373286 -10.47021917 42.81719311 -10 45 C-15.36587385 40.35924424 -17.59029067 35.77743002 -18.35546875 28.72265625 C-18.67707478 20.71727366 -17.8091543 14.54044985 -13 8 C-9.65597815 4.41711945 -5.1840724 0 0 0 Z " fill="#8E8989" transform="translate(90,340)"/>
<path d="M0 0 C1 1 1 1 1.09765625 3.50390625 C1.08605469 4.51324219 1.07445312 5.52257812 1.0625 6.5625 C1.05347656 7.57441406 1.04445313 8.58632813 1.03515625 9.62890625 C1.02355469 10.41136719 1.01195312 11.19382812 1 12 C1.66 12.33 2.32 12.66 3 13 C-1.0527516 13.98248524 -4.83861737 14.08159574 -9 14 C-9.33 12.35 -9.66 10.7 -10 9 C-8.68 8.34 -7.36 7.68 -6 7 C-5.34 8.32 -4.68 9.64 -4 11 C-2.89651732 7.68955197 -3.00555932 5.34493684 -4 2 C-4.66 1.67 -5.32 1.34 -6 1 C-5.67 1.99 -5.34 2.98 -5 4 C-6.32 4.33 -7.64 4.66 -9 5 C-9 3.68 -9 2.36 -9 1 C-6.01787087 -0.49106457 -3.28390342 -0.11941467 0 0 Z " fill="#F2DCBC" transform="translate(459,287)"/>
<path d="M0 0 C3.5625 0.1875 3.5625 0.1875 5.5625 2.1875 C5.9765625 4.7890625 5.9765625 4.7890625 6.1875 7.8125 C6.26226562 8.81539063 6.33703125 9.81828125 6.4140625 10.8515625 C6.48753906 12.00785156 6.48753906 12.00785156 6.5625 13.1875 C2.80975989 13.99942163 -0.59204314 14.27692923 -4.4375 14.1875 C-4.7675 12.5375 -5.0975 10.8875 -5.4375 9.1875 C-4.1175 8.5275 -2.7975 7.8675 -1.4375 7.1875 C-1.4375 8.8375 -1.4375 10.4875 -1.4375 12.1875 C-0.7775 11.8575 -0.1175 11.5275 0.5625 11.1875 C0.5625 8.2175 0.5625 5.2475 0.5625 2.1875 C-0.0975 1.8575 -0.7575 1.5275 -1.4375 1.1875 C-1.4375 2.5075 -1.4375 3.8275 -1.4375 5.1875 C-2.7575 5.1875 -4.0775 5.1875 -5.4375 5.1875 C-4.31932898 0.23559976 -4.31932898 0.23559976 0 0 Z " fill="#F8DCB4" transform="translate(402.4375,286.8125)"/>
<path d="M0 0 C3.5625 0.1875 3.5625 0.1875 5.5625 2.1875 C5.9765625 4.7890625 5.9765625 4.7890625 6.1875 7.8125 C6.26226562 8.81539063 6.33703125 9.81828125 6.4140625 10.8515625 C6.48753906 12.00785156 6.48753906 12.00785156 6.5625 13.1875 C2.80975989 13.99942163 -0.59204314 14.27692923 -4.4375 14.1875 C-4.7675 12.5375 -5.0975 10.8875 -5.4375 9.1875 C-4.1175 8.5275 -2.7975 7.8675 -1.4375 7.1875 C-1.4375 8.8375 -1.4375 10.4875 -1.4375 12.1875 C-0.7775 11.8575 -0.1175 11.5275 0.5625 11.1875 C0.5625 8.2175 0.5625 5.2475 0.5625 2.1875 C-0.0975 1.8575 -0.7575 1.5275 -1.4375 1.1875 C-1.4375 2.5075 -1.4375 3.8275 -1.4375 5.1875 C-2.7575 5.1875 -4.0775 5.1875 -5.4375 5.1875 C-4.31932898 0.23559976 -4.31932898 0.23559976 0 0 Z " fill="#F8DCB4" transform="translate(172.4375,286.8125)"/>
<path d="M0 0 C0 4.33333333 0 8.66666667 0 13 C-1.47831221 13.19412181 -2.95769316 13.38012131 -4.4375 13.5625 C-5.26121094 13.66691406 -6.08492188 13.77132812 -6.93359375 13.87890625 C-7.61550781 13.91886719 -8.29742187 13.95882812 -9 14 C-10 13 -10 13 -10.3125 10.1875 C-10 7 -10 7 -8.3125 4.8125 C-2.17241379 0 -2.17241379 0 0 0 Z " fill="#F5DAB6" transform="translate(318,156)"/>
<path d="M0 0 C0.66 0 1.32 0 2 0 C4.49118953 3.7367843 4.2065226 5.74451819 4.125 10.1875 C4.10695313 11.45980469 4.08890625 12.73210937 4.0703125 14.04296875 C4.03550781 15.50669922 4.03550781 15.50669922 4 17 C2.02 17.99 2.02 17.99 0 19 C-2.49210439 16.50789561 -2.26015661 14.99639212 -2.2734375 11.58984375 C-2.26570313 10.90019531 -2.25796875 10.21054688 -2.25 9.5 C-2.25773437 8.81035156 -2.26546875 8.12070313 -2.2734375 7.41015625 C-2.25333293 2.25333293 -2.25333293 2.25333293 0 0 Z " fill="#3D0404" transform="translate(496,149)"/>
<path d="M0 0 C3 0.125 3 0.125 4 1.125 C4.07226502 2.97787502 4.0838122 4.83333878 4.0625 6.6875 C4.05347656 7.69941406 4.04445313 8.71132813 4.03515625 9.75390625 C4.02355469 10.53636719 4.01195312 11.31882812 4 12.125 C4.66 12.455 5.32 12.785 6 13.125 C1.90040469 14.21822542 -0.84347947 14.00005695 -5 13.125 C-5.33 11.805 -5.66 10.485 -6 9.125 C-0.25 5.125 -0.25 5.125 2 5.125 C1.67 4.135 1.34 3.145 1 2.125 C0.01 2.125 -0.98 2.125 -2 2.125 C-2.33 3.115 -2.66 4.105 -3 5.125 C-3.66 5.125 -4.32 5.125 -5 5.125 C-3.87924016 0.16163501 -3.87924016 0.16163501 0 0 Z " fill="#30272B" transform="translate(663,361.875)"/>
<path d="M0 0 C0.886875 0.165 1.77375 0.33 2.6875 0.5 C5.99340456 1.17726679 5.99340456 1.17726679 9.25 0.4375 C10.1575 0.293125 11.065 0.14875 12 0 C14 2 14 2 14.1953125 4.6015625 C14.17210937 5.59929687 14.14890625 6.59703125 14.125 7.625 C14.10695313 8.62789063 14.08890625 9.63078125 14.0703125 10.6640625 C14.03550781 11.82035156 14.03550781 11.82035156 14 13 C14.66 13.33 15.32 13.66 16 14 C13.69 14 11.38 14 9 14 C9.66 13.67 10.32 13.34 11 13 C11 9.37 11 5.74 11 2 C9.02 2.33 7.04 2.66 5 3 C5.11409593 4.45922693 5.24165544 5.91740598 5.375 7.375 C5.44460938 8.18710937 5.51421875 8.99921875 5.5859375 9.8359375 C5.82892588 12.20334191 5.82892588 12.20334191 8 14 C5.69 14 3.38 14 1 14 C1.66 13.67 2.32 13.34 3 13 C2.9129995 11.37399059 2.8048219 9.74910322 2.6875 8.125 C2.62949219 7.22007812 2.57148437 6.31515625 2.51171875 5.3828125 C2.2117961 2.63778399 2.2117961 2.63778399 -1 1 C-0.67 0.67 -0.34 0.34 0 0 Z " fill="#16080E" transform="translate(599,362)"/>
<path d="M0 0 C0 1.98 0 3.96 0 6 C-0.721875 5.34 -1.44375 4.68 -2.1875 4 C-4.79410213 1.83752087 -4.79410213 1.83752087 -7.625 1.5625 C-10.48495716 2.08933421 -11.22051038 2.7416109 -13 5 C-13.87255939 9.26846619 -13.67327068 12.9124089 -11.375 16.625 C-9.01490906 18.27460346 -9.01490906 18.27460346 -5.9375 17.875 C-2.84912783 17.11181389 -2.84912783 17.11181389 0 15 C-1.75 18.875 -1.75 18.875 -4 20 C-8.74275933 20.46650092 -10.92860438 20.66962226 -15 18.125 C-17.42854883 14.33039245 -17.79675805 11.83007226 -17.53125 7.3828125 C-16.86231584 4.38244605 -15.62236669 2.51701689 -13.06640625 0.76171875 C-8.85107258 -0.79213771 -4.41236368 -0.35330314 0 0 Z " fill="#1F1F34" transform="translate(575,356)"/>
<path d="M0 0 C2.475 0.495 2.475 0.495 5 1 C7.69045545 5.03568317 7.6773823 8.25832393 7 13 C5.92854121 15.48659303 4.81271457 16.92070975 3 19 C2.34 19 1.68 19 1 19 C0.67 12.73 0.34 6.46 0 0 Z " fill="#FAD9AF" transform="translate(286,150)"/>
<path d="M0 0 C3.63 0 7.26 0 11 0 C9.58707905 4.8274799 7.57025846 8.7162359 5 13 C7.46800047 11.84826645 9.04783565 10.95216435 11 9 C11 10.65 11 12.3 11 14 C7.04 14 3.08 14 -1 14 C0.98 10.04 2.96 6.08 5 2 C4.01 2 3.02 2 2 2 C1.34 2.66 0.68 3.32 0 4 C0 2.68 0 1.36 0 0 Z " fill="#ECD7B6" transform="translate(383,287)"/>
<path d="M0 0 C0.33 1.65 0.66 3.3 1 5 C-1.97 5 -4.94 5 -8 5 C-6.5208389 9.01013465 -6.5208389 9.01013465 -4.0625 9.875 C-1.68671748 10.22738107 -1.68671748 10.22738107 1 8 C-0.875 11.875 -0.875 11.875 -2 13 C-4.375 13.3125 -4.375 13.3125 -7 13 C-9.77334669 10.60918389 -9.98943126 9.100403 -10.375 5.4375 C-10 2 -10 2 -8.9375 0 C-5.86664787 -1.58495594 -3.27813225 -0.68036707 0 0 Z " fill="#2C191D" transform="translate(626,363)"/>
<path d="M0 0 C1.65 0 3.3 0 5 0 C5.96205088 6.37358711 6.10655578 12.55929529 6 19 C4.35 19.33 2.7 19.66 1 20 C0.67 13.4 0.34 6.8 0 0 Z " fill="#E4D3B8" transform="translate(600,281)"/>
<path d="M0 0 C3.63 0 7.26 0 11 0 C11 1.32 11 2.64 11 4 C9.68 3.67 8.36 3.34 7 3 C7 6.63 7 10.26 7 14 C4.69 14 2.38 14 0 14 C0 9.38 0 4.76 0 0 Z " fill="#F2D8B3" transform="translate(412,287)"/>
<path d="M0 0 C3.63 0 7.26 0 11 0 C11 1.32 11 2.64 11 4 C9.68 3.67 8.36 3.34 7 3 C7 6.63 7 10.26 7 14 C4.69 14 2.38 14 0 14 C0 9.38 0 4.76 0 0 Z " fill="#F2D8B3" transform="translate(182,287)"/>
<path d="M0 0 C0.66 0 1.32 0 2 0 C3.6277833 6.14778871 4.20190089 11.64012196 4 18 C-0.75 19.125 -0.75 19.125 -3 18 C-3.42765417 11.58518742 -1.85743168 6.11404596 0 0 Z " fill="#E9D0AC" transform="translate(232,159)"/>
<path d="M0 0 C2.625 0.375 2.625 0.375 5 1 C5.40850553 8.08076251 3.90420731 14.19925959 2 21 C1.67 21 1.34 21 1 21 C0.49356447 18.77228658 -0.0048962 16.54275924 -0.5 14.3125 C-0.7784375 13.07113281 -1.056875 11.82976562 -1.34375 10.55078125 C-1.8979624 7.55209629 -2.30522762 5.02502372 -2 2 C-1.34 1.34 -0.68 0.68 0 0 Z " fill="#F1DAB6" transform="translate(555,139)"/>
<path d="M0 0 C2.68092691 2.68092691 2.38670257 4.39167363 2.625 8.125 C2.69976563 9.22070312 2.77453125 10.31640625 2.8515625 11.4453125 C2.92503906 12.70988281 2.92503906 12.70988281 3 14 C0.69 14 -1.62 14 -4 14 C-3.67 10.04 -3.34 6.08 -3 2 C-3.99 2.495 -3.99 2.495 -5 3 C-5.46651207 5.12576782 -5.46651207 5.12576782 -5.625 7.5625 C-5.69976563 8.38878906 -5.77453125 9.21507812 -5.8515625 10.06640625 C-5.90054688 10.70449219 -5.94953125 11.34257812 -6 12 C-6.33 12 -6.66 12 -7 12 C-7.33 8.37 -7.66 4.74 -8 1 C-5.03104944 0.01034981 -3.0913386 -0.23779528 0 0 Z " fill="#ECCA9D" transform="translate(596,287)"/>
<path d="M0 0 C0.66 0.33 1.32 0.66 2 1 C2 1.99 2 2.98 2 4 C0.68 4 -0.64 4 -2 4 C-2.66 3.34 -3.32 2.68 -4 2 C-4.26932521 6.65052872 -4.26932521 6.65052872 -3 11 C-1.35 10.67 0.3 10.34 2 10 C1.67 10.99 1.34 11.98 1 13 C-2.25 13.8125 -2.25 13.8125 -6 14 C-8.73662467 11.61422465 -9.80498001 9.99947745 -10.5 6.4375 C-9.28570425 0.51780822 -5.55746313 -0.60407208 0 0 Z " fill="#F5D9B2" transform="translate(309,287)"/>
<path d="M0 0 C6.0546875 -0.1953125 6.0546875 -0.1953125 8 0 C8.66 0.66 9.32 1.32 10 2 C9.9375 5 9.9375 5 9 8 C6.6875 9.4375 6.6875 9.4375 4 10 C2.68 9.67 1.36 9.34 0 9 C0 6.03 0 3.06 0 0 Z " fill="#E3C8A4" transform="translate(155,282)"/>
<path d="M0 0 C1.98 0 3.96 0 6 0 C6 5.94 6 11.88 6 18 C6.66 18.33 7.32 18.66 8 19 C6.02 19.33 4.04 19.66 2 20 C2 13.73 2 7.46 2 1 C1.34 0.67 0.68 0.34 0 0 Z " fill="#F9E1BC" transform="translate(256,281)"/>
<path d="M0 0 C4 0 8 0 12 0 C12 1.32 12 2.64 12 4 C10.35 4 8.7 4 7 4 C6.67 6.97 6.34 9.94 6 13 C6.66 13.33 7.32 13.66 8 14 C5.36 14 2.72 14 0 14 C0.66 13.67 1.32 13.34 2 13 C1.85915204 11.20793453 1.71216299 9.41635083 1.5625 7.625 C1.48128906 6.62726563 1.40007812 5.62953125 1.31640625 4.6015625 C1.15034374 2.02072387 1.15034374 2.02072387 0 0 Z " fill="#FAE0BA" transform="translate(279,287)"/>
<path d="M0 0 C4 0 8 0 12 0 C12 1.32 12 2.64 12 4 C10.35 4 8.7 4 7 4 C6.67 6.97 6.34 9.94 6 13 C6.66 13.33 7.32 13.66 8 14 C5.36 14 2.72 14 0 14 C0.66 13.67 1.32 13.34 2 13 C2 9.04 2 5.08 2 1 C1.34 0.67 0.68 0.34 0 0 Z " fill="#F7E1BC" transform="translate(617,287)"/>
<path d="M0 0 C0.99 0.33 1.98 0.66 3 1 C3.08076963 3.45898655 3.14037143 5.91533742 3.1875 8.375 C3.22520508 9.42300781 3.22520508 9.42300781 3.26367188 10.4921875 C3.29296875 12.5234375 3.29296875 12.5234375 3 16 C2.01 16.66 1.02 17.32 0 18 C-0.66 17.67 -1.32 17.34 -2 17 C-2.05383848 14.54137599 -2.09359038 12.0839245 -2.125 9.625 C-2.14175781 8.92632812 -2.15851563 8.22765625 -2.17578125 7.5078125 C-2.19344267 5.67102514 -2.10303261 3.83398037 -2 2 C-1.34 1.34 -0.68 0.68 0 0 Z " fill="#3C1D20" transform="translate(378,151)"/>
<path d="M0 0 C-3 1 -3 1 -5 1 C-5.33 2.32 -5.66 3.64 -6 5 C-4.68 5 -3.36 5 -2 5 C-1.67 4.34 -1.34 3.68 -1 3 C-0.34 3.33 0.32 3.66 1 4 C1 4.66 1 5.32 1 6 C-1.31 6 -3.62 6 -6 6 C-5.34 7.32 -4.68 8.64 -4 10 C-2.02 9.67 -0.04 9.34 2 9 C-1.269813 12.87533393 -1.269813 12.87533393 -4.5625 13.4375 C-7 13 -7 13 -8.8125 12 C-10.71481722 8.79609732 -10.53498173 5.62431285 -10 2 C-7.75198885 -2.36378636 -4.22539083 -0.87696791 0 0 Z " fill="#EDD5B1" transform="translate(640,288)"/>
<path d="M0 0 C-3 1 -3 1 -5 1 C-5.33 2.32 -5.66 3.64 -6 5 C-4.68 5 -3.36 5 -2 5 C-1.67 4.34 -1.34 3.68 -1 3 C-0.34 3.33 0.32 3.66 1 4 C1 4.66 1 5.32 1 6 C-1.31 6 -3.62 6 -6 6 C-5.34 7.32 -4.68 8.64 -4 10 C-2.02 9.67 -0.04 9.34 2 9 C-1.269813 12.87533393 -1.269813 12.87533393 -4.5625 13.4375 C-7 13 -7 13 -8.8125 12 C-10.71481722 8.79609732 -10.53498173 5.62431285 -10 2 C-7.75198885 -2.36378636 -4.22539083 -0.87696791 0 0 Z " fill="#EDD5B1" transform="translate(499,288)"/>
<path d="M0 0 C-3 1 -3 1 -5 1 C-5.33 2.32 -5.66 3.64 -6 5 C-4.68 5 -3.36 5 -2 5 C-1.67 4.34 -1.34 3.68 -1 3 C-0.34 3.33 0.32 3.66 1 4 C1 4.66 1 5.32 1 6 C-1.31 6 -3.62 6 -6 6 C-5.34 7.32 -4.68 8.64 -4 10 C-2.02 9.67 -0.04 9.34 2 9 C-1.269813 12.87533393 -1.269813 12.87533393 -4.5625 13.4375 C-7 13 -7 13 -8.8125 12 C-10.71481722 8.79609732 -10.53498173 5.62431285 -10 2 C-7.75198885 -2.36378636 -4.22539083 -0.87696791 0 0 Z " fill="#EDD5B1" transform="translate(363,288)"/>
<path d="M0 0 C3.3 0 6.6 0 10 0 C8.515 1.485 8.515 1.485 7 3 C6.63729516 5.74243563 6.63729516 5.74243563 6.8125 8.6875 C6.83957031 9.68136719 6.86664063 10.67523438 6.89453125 11.69921875 C6.92933594 12.45847656 6.96414063 13.21773438 7 14 C4.69 14 2.38 14 0 14 C0 9.38 0 4.76 0 0 Z " fill="#E8D1B1" transform="translate(464,287)"/>
<path d="M0 0 C3.3 0 6.6 0 10 0 C8.515 1.485 8.515 1.485 7 3 C6.63729516 5.74243563 6.63729516 5.74243563 6.8125 8.6875 C6.83957031 9.68136719 6.86664063 10.67523438 6.89453125 11.69921875 C6.92933594 12.45847656 6.96414063 13.21773438 7 14 C4.69 14 2.38 14 0 14 C0 9.38 0 4.76 0 0 Z " fill="#E8D1B1" transform="translate(328,287)"/>
<path d="M0 0 C0 1.65 0 3.3 0 5 C0.99 5.33 1.98 5.66 3 6 C2.01 6 1.02 6 0 6 C0 9.63 0 13.26 0 17 C0.99 16.67 1.98 16.34 3 16 C3 16.66 3 17.32 3 18 C1.0085944 18.38133299 -0.99279077 18.71325582 -3 19 C-4 18 -4 18 -4.09765625 15.27734375 C-4.08605469 14.17519531 -4.07445312 13.07304687 -4.0625 11.9375 C-4.05347656 10.83277344 -4.04445313 9.72804688 -4.03515625 8.58984375 C-4.02355469 7.73519531 -4.01195312 6.88054687 -4 6 C-4.66 5.67 -5.32 5.34 -6 5 C-1.125 0 -1.125 0 0 0 Z " fill="#EEDAB9" transform="translate(515,282)"/>
<path d="M0 0 C1.98 0 3.96 0 6 0 C6 5.94 6 11.88 6 18 C6.66 18.33 7.32 18.66 8 19 C5.69 18.67 3.38 18.34 1 18 C1.33 12.39 1.66 6.78 2 1 C1.34 0.67 0.68 0.34 0 0 Z " fill="#F7E3C3" transform="translate(439,281)"/>
<path d="M0 0 C0.66 0 1.32 0 2 0 C2 5.61 2 11.22 2 17 C1.01 17.33 0.02 17.66 -1 18 C-3.68125591 15.31874409 -3.29880654 13.85875084 -3.3125 10.125 C-3.32925781 9.07570312 -3.34601563 8.02640625 -3.36328125 6.9453125 C-2.96231779 3.6944905 -2.28971668 2.30642994 0 0 Z " fill="#551803" transform="translate(453,151)"/>
<path d="M0 0 C3.73229119 -0.34718988 5.59957594 -0.23503152 8.875 1.6875 C11 4 11 4 11 9 C7.7 8.67 4.4 8.34 1 8 C1.020625 7.05125 1.04125 6.1025 1.0625 5.125 C1.22551826 2.09333717 1.22551826 2.09333717 0 0 Z " fill="#F2D5AE" transform="translate(429,148)"/>
<path d="M0 0 C3.53571429 0.53571429 3.53571429 0.53571429 5 2 C5.07179964 3.51928038 5.08392007 5.04167482 5.0625 6.5625 C5.05347656 7.38878906 5.04445313 8.21507812 5.03515625 9.06640625 C5.01775391 10.02353516 5.01775391 10.02353516 5 11 C3.68 11.33 2.36 11.66 1 12 C-1.27183419 9.53884629 -1.9736202 8.26379801 -2.3125 4.875 C-2 2 -2 2 0 0 Z " fill="#D9E0E4" transform="translate(582,363)"/>
<path d="M0 0 C3.3 0 6.6 0 10 0 C8.515 1.485 8.515 1.485 7 3 C6.42428504 5.50203648 6.42428504 5.50203648 6.3125 8.1875 C6.24675781 9.08855469 6.18101562 9.98960937 6.11328125 10.91796875 C6.07589844 11.60503906 6.03851563 12.29210937 6 13 C6.99 13.33 7.98 13.66 9 14 C6.03 14 3.06 14 0 14 C0.66 13.67 1.32 13.34 2 13 C1.85915204 11.20793453 1.71216299 9.41635083 1.5625 7.625 C1.48128906 6.62726563 1.40007812 5.62953125 1.31640625 4.6015625 C1.15034374 2.02072387 1.15034374 2.02072387 0 0 Z " fill="#F4DEBD" transform="translate(366,287)"/>
<path d="M0 0 C3.96 0 7.92 0 12 0 C9.6163187 4.34170523 7.21880117 8.2064129 4 12 C6.31 12 8.62 12 11 12 C11 12.66 11 13.32 11 14 C7.37 14 3.74 14 0 14 C1.94627839 9.13430402 3.92084239 6.13255363 7 2 C4.58354218 1.83312552 4.58354218 1.83312552 2 2 C1.34 2.66 0.68 3.32 0 4 C0 2.68 0 1.36 0 0 Z " fill="#2A2021" transform="translate(644,362)"/>
<path d="M0 0 C1.65 0 3.3 0 5 0 C6.58867866 1.58867866 6.20794039 3.24689516 6.25 5.4375 C6.27578125 6.24058594 6.3015625 7.04367187 6.328125 7.87109375 C6.16570313 8.92490234 6.16570313 8.92490234 6 10 C5.01 10.66 4.02 11.32 3 12 C2.01 11.67 1.02 11.34 0 11 C0 7.37 0 3.74 0 0 Z " fill="#4E110F" transform="translate(515,288)"/>
<path d="M0 0 C0 3.63 0 7.26 0 11 C-1.65 11 -3.3 11 -5 11 C-6 10 -6 10 -6.09765625 7.93359375 C-6.08605469 7.10988281 -6.07445312 6.28617187 -6.0625 5.4375 C-6.05347656 4.61121094 -6.04445313 3.78492188 -6.03515625 2.93359375 C-6.02355469 2.29550781 -6.01195312 1.65742188 -6 1 C-4 0 -4 0 0 0 Z " fill="#CDD7D8" transform="translate(610,364)"/>
<path d="M0 0 C5.625 -0.25 5.625 -0.25 9 2 C9.3984375 4.05859375 9.3984375 4.05859375 9.375 6.4375 C9.38273438 7.21996094 9.39046875 8.00242187 9.3984375 8.80859375 C8.91391529 11.47346589 8.1573658 12.40156432 6 14 C3.8125 13.6875 3.8125 13.6875 2 13 C2.66 12.67 3.32 12.34 4 12 C4 9.03 4 6.06 4 3 C2.68 2.67 1.36 2.34 0 2 C0 1.34 0 0.68 0 0 Z " fill="#F2D8B1" transform="translate(222,287)"/>
<path d="M0 0 C0.33 0.99 0.66 1.98 1 3 C-0.32 3 -1.64 3 -3 3 C-3.33 6.3 -3.66 9.6 -4 13 C-3.34 13.33 -2.68 13.66 -2 14 C-4.31 14 -6.62 14 -9 14 C-8.34 13.67 -7.68 13.34 -7 13 C-7 9.37 -7 5.74 -7 2 C-7.66 1.67 -8.32 1.34 -9 1 C-6.04335481 -0.4783226 -3.25770263 -0.06032783 0 0 Z " fill="#1A0608" transform="translate(679,362)"/>
<path d="M0 0 C1.953125 0.6171875 1.953125 0.6171875 4 2 C4.609375 4.8203125 4.609375 4.8203125 4.75 8.125 C4.80671875 9.22070312 4.8634375 10.31640625 4.921875 11.4453125 C4.94765625 12.28835938 4.9734375 13.13140625 5 14 C2.69 14 0.38 14 -2 14 C-1.67 13.34 -1.34 12.68 -1 12 C-0.95485864 10.14638292 -0.96132958 8.29126337 -1 6.4375 C-1.03770315 4.62539219 -1.04653361 2.81190256 -1 1 C-0.67 0.67 -0.34 0.34 0 0 Z " fill="#FADEB7" transform="translate(474,287)"/>
<path d="M0 0 C1.953125 0.6171875 1.953125 0.6171875 4 2 C4.609375 4.8203125 4.609375 4.8203125 4.75 8.125 C4.80671875 9.22070312 4.8634375 10.31640625 4.921875 11.4453125 C4.94765625 12.28835938 4.9734375 13.13140625 5 14 C2.69 14 0.38 14 -2 14 C-1.67 13.34 -1.34 12.68 -1 12 C-0.95485864 10.14638292 -0.96132958 8.29126337 -1 6.4375 C-1.03770315 4.62539219 -1.04653361 2.81190256 -1 1 C-0.67 0.67 -0.34 0.34 0 0 Z " fill="#FADEB7" transform="translate(338,287)"/>
<path d="M0 0 C1.67542976 0.28604898 3.34385343 0.61781233 5 1 C4.67 2.65 4.34 4.3 4 6 C3.195625 5.814375 2.39125 5.62875 1.5625 5.4375 C0.716875 5.293125 -0.12875 5.14875 -1 5 C-2.87824891 6.87824891 -2.39102397 10.03935276 -2.5625 12.5625 C-2.68818359 14.35880859 -2.68818359 14.35880859 -2.81640625 16.19140625 C-2.87699219 17.11824219 -2.93757812 18.04507813 -3 19 C-3.33 19 -3.66 19 -4 19 C-4.33 13.06 -4.66 7.12 -5 1 C-3.68 1 -2.36 1 -1 1 C-0.67 0.67 -0.34 0.34 0 0 Z " fill="#F1D8B4" transform="translate(544,148)"/>
<path d="M0 0 C1.32 0 2.64 0 4 0 C4 3.96 4 7.92 4 12 C4.66 12.33 5.32 12.66 6 13 C3.36 13 0.72 13 -2 13 C-1.67 12.34 -1.34 11.68 -1 11 C-0.7724985 9.12943209 -0.59037189 7.25314042 -0.4375 5.375 C-0.35371094 4.37210937 -0.26992188 3.36921875 -0.18359375 2.3359375 C-0.12300781 1.56507813 -0.06242188 0.79421875 0 0 Z " fill="#F7DEB7" transform="translate(553,288)"/>
<path d="M0 0 C1.2065625 0.0309375 1.2065625 0.0309375 2.4375 0.0625 C2.4375 1.7125 2.4375 3.3625 2.4375 5.0625 C-0.05314888 5.74957555 -1.94136292 6.0625 -4.5625 6.0625 C-4.8925 10.3525 -5.2225 14.6425 -5.5625 19.0625 C-5.8925 19.0625 -6.2225 19.0625 -6.5625 19.0625 C-6.5625 13.1225 -6.5625 7.1825 -6.5625 1.0625 C-5.5725 1.0625 -4.5825 1.0625 -3.5625 1.0625 C-2.5625 0.0625 -2.5625 0.0625 0 0 Z " fill="#E9C391" transform="translate(419.5625,147.9375)"/>
<path d="M0 0 C0.33 0 0.66 0 1 0 C1.09796875 0.92941406 1.1959375 1.85882813 1.296875 2.81640625 C2.15721017 9.92900474 3.13320221 14.99979654 7 21 C6.67 21.99 6.34 22.98 6 24 C0.28433621 16.47938975 -1.77177294 10.53049839 -1 1 C-0.67 0.67 -0.34 0.34 0 0 Z " fill="#979494" transform="translate(73,361)"/>
<path d="M0 0 C4.70588235 0.70588235 4.70588235 0.70588235 6 2 C6.07226502 3.85287502 6.0838122 5.70833878 6.0625 7.5625 C6.05347656 8.57441406 6.04445313 9.58632813 6.03515625 10.62890625 C6.02355469 11.41136719 6.01195312 12.19382812 6 13 C6.66 13.33 7.32 13.66 8 14 C5.69 14 3.38 14 1 14 C1.66 13.67 2.32 13.34 3 13 C3 9.37 3 5.74 3 2 C1.68 1.67 0.36 1.34 -1 1 C-0.67 0.67 -0.34 0.34 0 0 Z " fill="#251A1F" transform="translate(635,362)"/>
<path d="M0 0 C1.06671952 3.20015856 0.94845472 4.88544294 0.5625 8.1875 C0.46066406 9.08855469 0.35882812 9.98960937 0.25390625 10.91796875 C0.12822266 11.94857422 0.12822266 11.94857422 0 13 C0.66 13.33 1.32 13.66 2 14 C-0.31 14 -2.62 14 -5 14 C-4.34 13.67 -3.68 13.34 -3 13 C-3.33 9.04 -3.66 5.08 -4 1 C-2 0 -2 0 0 0 Z " fill="#2E1F22" transform="translate(633,362)"/>
<path d="M0 0 C3 0.125 3 0.125 4 1.125 C4.07226502 2.97787502 4.0838122 4.83333878 4.0625 6.6875 C4.05347656 7.69941406 4.04445313 8.71132813 4.03515625 9.75390625 C4.02355469 10.53636719 4.01195312 11.31882812 4 12.125 C4.66 12.455 5.32 12.785 6 13.125 C4.68 13.455 3.36 13.785 2 14.125 C1.03929566 11.24288698 0.89418117 9.42649956 0.9375 6.4375 C0.94652344 5.62925781 0.95554687 4.82101562 0.96484375 3.98828125 C0.98224609 3.06595703 0.98224609 3.06595703 1 2.125 C0.01 2.125 -0.98 2.125 -2 2.125 C-2.33 3.115 -2.66 4.105 -3 5.125 C-3.66 5.125 -4.32 5.125 -5 5.125 C-3.87924016 0.16163501 -3.87924016 0.16163501 0 0 Z " fill="#180B10" transform="translate(663,361.875)"/>
<path d="M0 0 C1.32 0.66 2.64 1.32 4 2 C4 4.64 4 7.28 4 10 C3.01 10.33 2.02 10.66 1 11 C-1 9 -1 9 -1.23046875 7.08984375 C-1.11111111 1.11111111 -1.11111111 1.11111111 0 0 Z " fill="#54241B" transform="translate(254,288)"/>
<path d="M0 0 C0.99 0 1.98 0 3 0 C3 3.63 3 7.26 3 11 C1.68 11 0.36 11 -1 11 C-1.02688151 9.35425434 -1.04634123 7.70838587 -1.0625 6.0625 C-1.07410156 5.14597656 -1.08570313 4.22945313 -1.09765625 3.28515625 C-1 1 -1 1 0 0 Z " fill="#5D1D08" transform="translate(318,288)"/>
<path d="M0 0 C0.99 0 1.98 0 3 0 C3 3.63 3 7.26 3 11 C1.68 11 0.36 11 -1 11 C-1.02688151 9.35425434 -1.04634123 7.70838587 -1.0625 6.0625 C-1.07410156 5.14597656 -1.08570313 4.22945313 -1.09765625 3.28515625 C-1 1 -1 1 0 0 Z " fill="#5D1D08" transform="translate(239,288)"/>
<path d="M0 0 C0.99 0.33 1.98 0.66 3 1 C3 4.3 3 7.6 3 11 C1.68 11 0.36 11 -1 11 C-1.02688151 9.35425434 -1.04634123 7.70838587 -1.0625 6.0625 C-1.07410156 5.14597656 -1.08570313 4.22945313 -1.09765625 3.28515625 C-1 1 -1 1 0 0 Z " fill="#400B1B" transform="translate(566,288)"/>
<path d="M0 0 C-3.75 2 -3.75 2 -6 2 C-6 3.65 -6 5.3 -6 7 C-7.65 7.33 -9.3 7.66 -11 8 C-11.33 6.35 -11.66 4.7 -12 3 C-8.2391768 -0.7608232 -5.0273023 -0.25136512 0 0 Z " fill="#E5CDAD" transform="translate(479,148)"/>
<path d="M0 0 C0 1.65 0 3.3 0 5 C-4.75 6.125 -4.75 6.125 -7 5 C-7 3.35 -7 1.7 -7 0 C-4.3333581 -1.33332095 -2.83319697 -0.67102033 0 0 Z " fill="#ECD3B1" transform="translate(236,150)"/>
<path d="M0 0 C0 3.63 0 7.26 0 11 C-1.32 11 -2.64 11 -4 11 C-4 7.7 -4 4.4 -4 1 C-2 0 -2 0 0 0 Z " fill="#5C1D16" transform="translate(585,289)"/>
<path d="M0 0 C0.99 0.33 1.98 0.66 3 1 C3.08096803 2.45742463 3.13917774 3.91612807 3.1875 5.375 C3.22230469 6.18710937 3.25710938 6.99921875 3.29296875 7.8359375 C3.19628906 8.55007813 3.09960938 9.26421875 3 10 C2.01 10.66 1.02 11.32 0 12 C-1 11 -1 11 -1.1328125 8.75 C-1.13023437 7.8425 -1.12765625 6.935 -1.125 6 C-1.12757813 5.0925 -1.13015625 4.185 -1.1328125 3.25 C-1 1 -1 1 0 0 Z " fill="#412223" transform="translate(471,289)"/>
<path d="M0 0 C0.99 0.33 1.98 0.66 3 1 C3.08096803 2.45742463 3.13917774 3.91612807 3.1875 5.375 C3.22230469 6.18710937 3.25710938 6.99921875 3.29296875 7.8359375 C3.19628906 8.55007813 3.09960938 9.26421875 3 10 C2.01 10.66 1.02 11.32 0 12 C-1 11 -1 11 -1.1328125 8.75 C-1.13023437 7.8425 -1.12765625 6.935 -1.125 6 C-1.12757813 5.0925 -1.13015625 4.185 -1.1328125 3.25 C-1 1 -1 1 0 0 Z " fill="#412223" transform="translate(335,289)"/>
<path d="M0 0 C1.32 0 2.64 0 4 0 C4 3.63 4 7.26 4 11 C2.68 10.67 1.36 10.34 0 10 C0 6.7 0 3.4 0 0 Z " fill="#E7E3CF" transform="translate(668,364)"/>
<path d="M0 0 C1.67542976 0.28604898 3.34385343 0.61781233 5 1 C5 2.65 5 4.3 5 6 C2.625 6.625 2.625 6.625 0 7 C-0.66 6.34 -1.32 5.68 -2 5 C-1.46428571 1.46428571 -1.46428571 1.46428571 0 0 Z " fill="#F2D8B5" transform="translate(555,163)"/>
<path d="M0 0 C0.99 0.33 1.98 0.66 3 1 C3 3.97 3 6.94 3 10 C1.68 10 0.36 10 -1 10 C-1.02689216 8.52093108 -1.04634621 7.04172517 -1.0625 5.5625 C-1.07410156 4.73878906 -1.08570313 3.91507812 -1.09765625 3.06640625 C-1 1 -1 1 0 0 Z " fill="#4A0608" transform="translate(607,289)"/>
<path d="M0 0 C0.66 0.33 1.32 0.66 2 1 C2 3.97 2 6.94 2 10 C0.68 10.33 -0.64 10.66 -2 11 C-2 7.7 -2 4.4 -2 1 C-1.34 0.67 -0.68 0.34 0 0 Z " fill="#4B171D" transform="translate(480,289)"/>
<path d="M0 0 C0.66 0.33 1.32 0.66 2 1 C2 3.97 2 6.94 2 10 C0.68 10.33 -0.64 10.66 -2 11 C-2 7.7 -2 4.4 -2 1 C-1.34 0.67 -0.68 0.34 0 0 Z " fill="#4B171D" transform="translate(344,289)"/>
<path d="M0 0 C0.99 0.33 1.98 0.66 3 1 C3 3.97 3 6.94 3 10 C1.68 10 0.36 10 -1 10 C-1.02689216 8.52093108 -1.04634621 7.04172517 -1.0625 5.5625 C-1.07410156 4.73878906 -1.08570313 3.91507812 -1.09765625 3.06640625 C-1 1 -1 1 0 0 Z " fill="#3D0D1A" transform="translate(224,289)"/>
<path d="M0 0 C0 0.33 0 0.66 0 1 C-2.31 1.33 -4.62 1.66 -7 2 C-7 3.65 -7 5.3 -7 7 C-8.65 7.33 -10.3 7.66 -12 8 C-12.33 6.68 -12.66 5.36 -13 4 C-8.62340682 -0.37659318 -5.88808394 -0.39919213 0 0 Z " fill="#E8D2B3" transform="translate(321,148)"/>
<path d="M0 0 C0.56847656 0.33773438 1.13695313 0.67546875 1.72265625 1.0234375 C6.43753048 3.74688739 10.69613469 5.75866982 16 7 C16 7.66 16 8.32 16 9 C9.74833938 8.66508961 4.72487256 7.34788805 0 3 C0 2.01 0 1.02 0 0 Z " fill="#D4CFCF" transform="translate(80,383)"/>
<path d="M0 0 C1.485 0.99 1.485 0.99 3 2 C3.40843923 4.71203652 3.13336867 7.2437142 3 10 C1.68 10 0.36 10 -1 10 C-1.02689216 8.52093108 -1.04634621 7.04172517 -1.0625 5.5625 C-1.07410156 4.73878906 -1.08570313 3.91507812 -1.09765625 3.06640625 C-1 1 -1 1 0 0 Z " fill="#3A0619" transform="translate(438,288)"/>
<path d="M0 0 C0.66 0.33 1.32 0.66 2 1 C2 1.99 2 2.98 2 4 C0.68 4 -0.64 4 -2 4 C-2.66 3.34 -3.32 2.68 -4 2 C-4.33 3.65 -4.66 5.3 -5 7 C-5.66 6.01 -6.32 5.02 -7 4 C-7.66 5.65 -8.32 7.3 -9 9 C-9.33 9 -9.66 9 -10 9 C-10.35882213 5.77060081 -10.27258004 4.38790237 -8.375 1.6875 C-5.36349317 -0.45225485 -3.6216958 -0.39366259 0 0 Z " fill="#D4BB98" transform="translate(309,287)"/>
<path d="M0 0 C1.828125 0.203125 1.828125 0.203125 4 1 C5.484375 3.109375 5.484375 3.109375 6.75 5.75 C7.17796875 6.61109375 7.6059375 7.4721875 8.046875 8.359375 C9.03636629 11.10075251 9.18702237 13.11154335 9 16 C8.34 16 7.68 16 7 16 C6.74476563 15.02160156 6.74476563 15.02160156 6.484375 14.0234375 C4.98961902 8.63277496 3.39793098 4.45246128 0 0 Z " fill="#D1CCCC" transform="translate(497,347)"/>
<path d="M0 0 C0 4.29 0 8.58 0 13 C0.99 13.33 1.98 13.66 3 14 C0.69 14 -1.62 14 -4 14 C-3.34 13.67 -2.68 13.34 -2 13 C-2 9.37 -2 5.74 -2 2 C-2.66 1.67 -3.32 1.34 -4 1 C-2 0 -2 0 0 0 Z " fill="#0F0607" transform="translate(596,362)"/>
<path d="M0 0 C0.33 0 0.66 0 1 0 C1.09796875 0.61488281 1.1959375 1.22976563 1.296875 1.86328125 C2.13291046 6.99409305 2.13291046 6.99409305 5.125 11.0625 C5.74375 11.371875 6.3625 11.68125 7 12 C4.75 12.3125 4.75 12.3125 2 12 C-0.375 9.875 -0.375 9.875 -2 7 C-1.69387755 1.69387755 -1.69387755 1.69387755 0 0 Z " fill="#24171A" transform="translate(579,364)"/>
<path d="M0 0 C0.66 0 1.32 0 2 0 C2 3.63 2 7.26 2 11 C-1.89847716 7.7106599 -1.89847716 7.7106599 -2.375 4.375 C-2 2 -2 2 0 0 Z " fill="#E7D8C1" transform="translate(562,289)"/>
<path d="M0 0 C0.66 0 1.32 0 2 0 C2 3.63 2 7.26 2 11 C1.01 11 0.02 11 -1 11 C-1.02688151 9.35425434 -1.04634123 7.70838587 -1.0625 6.0625 C-1.07410156 5.14597656 -1.08570313 4.22945313 -1.09765625 3.28515625 C-1 1 -1 1 0 0 Z " fill="#3E0509" transform="translate(591,289)"/>
<path d="M0 0 C0.66 0 1.32 0 2 0 C2 3.63 2 7.26 2 11 C1.01 11 0.02 11 -1 11 C-1.02688151 9.35425434 -1.04634123 7.70838587 -1.0625 6.0625 C-1.07410156 5.14597656 -1.08570313 4.22945313 -1.09765625 3.28515625 C-1 1 -1 1 0 0 Z " fill="#672308" transform="translate(373,289)"/>
<path d="M0 0 C1.32 0.33 2.64 0.66 4 1 C4 3.31 4 5.62 4 8 C2.68 8.33 1.36 8.66 0 9 C0 6.03 0 3.06 0 0 Z " fill="#530508" transform="translate(155,282)"/>
<path d="M0 0 C0.33 0.66 0.66 1.32 1 2 C1.66 2 2.32 2 3 2 C3 4.97 3 7.94 3 11 C2.01 11.33 1.02 11.66 0 12 C0 8.04 0 4.08 0 0 Z " fill="#6C2404" transform="translate(525,287)"/>
<path d="M0 0 C-0.66 0.66 -1.32 1.32 -2 2 C-2.66 1.67 -3.32 1.34 -4 1 C-4.33 3.31 -4.66 5.62 -5 8 C-5.33 8 -5.66 8 -6 8 C-6.33 6.02 -6.66 4.04 -7 2 C-8.96822886 3.96822886 -8.66248381 7.34808709 -9 10 C-9.33 10 -9.66 10 -10 10 C-10.35915493 2.6971831 -10.35915493 2.6971831 -8.9375 -0.0625 C-5.8584134 -1.55238061 -3.25143042 -0.67482518 0 0 Z " fill="#CDB48B" transform="translate(442,288)"/>
<path d="M0 0 C1.32 0.66 2.64 1.32 4 2 C4 3.65 4 5.3 4 7 C2.35 7 0.7 7 -1 7 C-1.04254356 5.00045254 -1.04080783 2.99958364 -1 1 C-0.67 0.67 -0.34 0.34 0 0 Z " fill="#411619" transform="translate(431,149)"/>
<path d="M0 0 C-5.00649985 3.96347905 -8.7311841 5.79022851 -15 7 C-12.7360039 4.53282476 -10.40939756 2.89865861 -7.5 1.25 C-6.7265625 0.80140625 -5.953125 0.3528125 -5.15625 -0.109375 C-3 -1 -3 -1 0 0 Z " fill="#D5D1D1" transform="translate(499,385)"/>
<path d="M0 0 C0.70125 0.680625 1.4025 1.36125 2.125 2.0625 C4.85489676 4.3143966 4.85489676 4.3143966 8.125 3.875 C11.15814267 3.10286484 11.15814267 3.10286484 14 1 C12.25 4.875 12.25 4.875 10 6 C2.53333333 6.35555556 2.53333333 6.35555556 -1 4 C-0.67 2.68 -0.34 1.36 0 0 Z " fill="#383741" transform="translate(561,370)"/>
<path d="M0 0 C0.66 0 1.32 0 2 0 C3 2 4 4 5 6 C3.02 6.33 1.04 6.66 -1 7 C-1.625 4.625 -1.625 4.625 -2 2 C-1.34 1.34 -0.68 0.68 0 0 Z " fill="#E0CFB6" transform="translate(451,294)"/>
<path d="M0 0 C0.66 0.33 1.32 0.66 2 1 C2 3.97 2 6.94 2 10 C1.01 10.33 0.02 10.66 -1 11 C-1.02688151 9.35425434 -1.04634123 7.70838587 -1.0625 6.0625 C-1.07410156 5.14597656 -1.08570313 4.22945313 -1.09765625 3.28515625 C-1 1 -1 1 0 0 Z " fill="#3C1C26" transform="translate(551,289)"/>
<path d="M0 0 C0.33 0 0.66 0 1 0 C1.33 3.63 1.66 7.26 2 11 C0.68 10.67 -0.64 10.34 -2 10 C-2.1953125 3.9453125 -2.1953125 3.9453125 -2 2 C-1.34 1.34 -0.68 0.68 0 0 Z " fill="#FBE2BD" transform="translate(316,289)"/>
<path d="M0 0 C0.33 0 0.66 0 1 0 C1.33 3.63 1.66 7.26 2 11 C0.68 10.67 -0.64 10.34 -2 10 C-2.1953125 3.9453125 -2.1953125 3.9453125 -2 2 C-1.34 1.34 -0.68 0.68 0 0 Z " fill="#FBE2BD" transform="translate(237,289)"/>
<path d="M0 0 C0.66 0.66 1.32 1.32 2 2 C-0.31 2 -2.62 2 -5 2 C-5.33 6.95 -5.66 11.9 -6 17 C-6.33 17 -6.66 17 -7 17 C-7 12.05 -7 7.1 -7 2 C-7.66 1.67 -8.32 1.34 -9 1 C-5.98675805 -0.50662097 -3.31713623 -0.17770373 0 0 Z " fill="#E4B06C" transform="translate(287,148)"/>
<path d="M0 0 C0.66 0 1.32 0 2 0 C1.34 1.65 0.68 3.3 0 5 C2.31 5 4.62 5 7 5 C7 5.66 7 6.32 7 7 C3.37 7 -0.26 7 -4 7 C-2 2 -2 2 0 0 Z " fill="#170B0D" transform="translate(648,369)"/>
<path d="M0 0 C2.97 0.495 2.97 0.495 6 1 C6.33 2.65 6.66 4.3 7 6 C6.67 5.34 6.34 4.68 6 4 C3.69 4.33 1.38 4.66 -1 5 C-0.67 3.35 -0.34 1.7 0 0 Z " fill="#8B5C45" transform="translate(635,288)"/>
<path d="M0 0 C2.97 0.495 2.97 0.495 6 1 C6.33 2.65 6.66 4.3 7 6 C6.67 5.34 6.34 4.68 6 4 C3.69 4.33 1.38 4.66 -1 5 C-0.67 3.35 -0.34 1.7 0 0 Z " fill="#8B5C45" transform="translate(494,288)"/>
<path d="M0 0 C2.97 0.495 2.97 0.495 6 1 C6.33 2.65 6.66 4.3 7 6 C6.67 5.34 6.34 4.68 6 4 C3.69 4.33 1.38 4.66 -1 5 C-0.67 3.35 -0.34 1.7 0 0 Z " fill="#8B5C45" transform="translate(358,288)"/>
<path d="M0 0 C0.66 0 1.32 0 2 0 C2.04898438 0.62648438 2.09796875 1.25296875 2.1484375 1.8984375 C2.22320313 2.71570313 2.29796875 3.53296875 2.375 4.375 C2.44460938 5.18710937 2.51421875 5.99921875 2.5859375 6.8359375 C2.82892588 9.20334191 2.82892588 9.20334191 5 11 C2.69 11 0.38 11 -2 11 C-1.34 10.67 -0.68 10.34 0 10 C0 6.7 0 3.4 0 0 Z " fill="#18040A" transform="translate(610,365)"/>
<path d="M0 0 C0 2.64 0 5.28 0 8 C-1.32 8 -2.64 8 -4 8 C-4.36780384 3.46375267 -4.36780384 3.46375267 -2.5625 1.1875 C-1 0 -1 0 0 0 Z " fill="#500A1E" transform="translate(318,158)"/>
<path d="M0 0 C0.66 0 1.32 0 2 0 C2.66 1.32 3.32 2.64 4 4 C3.67 4.33 3.34 4.66 3 5 C2.76518307 7.18292774 2.58636677 9.37203174 2.4375 11.5625 C2.31181641 13.35880859 2.31181641 13.35880859 2.18359375 15.19140625 C2.12300781 16.11824219 2.06242188 17.04507813 2 18 C1.67 18 1.34 18 1 18 C0.67 12.06 0.34 6.12 0 0 Z " fill="#D48D46" transform="translate(539,149)"/>
<path d="M0 0 C0.66 0.33 1.32 0.66 2 1 C2 2.65 2 4.3 2 6 C1.01 6.33 0.02 6.66 -1 7 C-1.33 6.01 -1.66 5.02 -2 4 C-2.99 4.66 -3.98 5.32 -5 6 C-3.63016497 2.83884224 -3.0109362 2.0072908 0 0 Z " fill="#A28571" transform="translate(200,292)"/>
<path d="M0 0 C0 0.99 0 1.98 0 3 C-0.94875 3.598125 -1.8975 4.19625 -2.875 4.8125 C-6.4606082 7.32242574 -7.05058924 8.82259265 -8 13 C-8.33 13 -8.66 13 -9 13 C-9.48795181 7.63253012 -9.48795181 7.63253012 -7.3125 4.8125 C-4.9705302 2.97690205 -2.59979929 1.44433294 0 0 Z " fill="#D6C6AD" transform="translate(317,156)"/>
<path d="M0 0 C2.97 0.495 2.97 0.495 6 1 C6.33 2.65 6.66 4.3 7 6 C4.03 6 1.06 6 -2 6 C-2 5.67 -2 5.34 -2 5 C-0.02 5 1.96 5 4 5 C3.24849977 1.72226496 3.24849977 1.72226496 0 0 Z " fill="#0E0B14" transform="translate(620,362)"/>
<path d="M0 0 C2.375 0.75 2.375 0.75 3.375 1.75 C3.44705511 3.43608966 3.45886068 5.12500659 3.4375 6.8125 C3.42847656 7.73160156 3.41945313 8.65070313 3.41015625 9.59765625 C3.39855469 10.30792969 3.38695312 11.01820313 3.375 11.75 C3.045 11.75 2.715 11.75 2.375 11.75 C2.375 8.78 2.375 5.81 2.375 2.75 C-0.265 2.75 -2.905 2.75 -5.625 2.75 C-3.73358522 0.26129634 -3.21105313 -0.30581458 0 0 Z " fill="#203F64" transform="translate(609.625,362.25)"/>
<path d="M0 0 C1.65 0 3.3 0 5 0 C5.33 0.99 5.66 1.98 6 3 C4.68 3 3.36 3 2 3 C1.67 5.97 1.34 8.94 1 12 C0.67 12 0.34 12 0 12 C0 8.04 0 4.08 0 0 Z " fill="#355886" transform="translate(674,362)"/>
<path d="M0 0 C0.33 0 0.66 0 1 0 C1 2.97 1 5.94 1 9 C0.01 9.33 -0.98 9.66 -2 10 C-2.33 8.02 -2.66 6.04 -3 4 C-2.34 3.67 -1.68 3.34 -1 3 C-0.67 2.01 -0.34 1.02 0 0 Z " fill="#816D64" transform="translate(403,289)"/>
<path d="M0 0 C0.33 0 0.66 0 1 0 C1 2.97 1 5.94 1 9 C0.01 9.33 -0.98 9.66 -2 10 C-2.33 8.02 -2.66 6.04 -3 4 C-2.34 3.67 -1.68 3.34 -1 3 C-0.67 2.01 -0.34 1.02 0 0 Z " fill="#816D64" transform="translate(173,289)"/>
<path d="M0 0 C1.134375 0.020625 2.26875 0.04125 3.4375 0.0625 C2.4475 0.7225 1.4575 1.3825 0.4375 2.0625 C-0.2225 1.7325 -0.8825 1.4025 -1.5625 1.0625 C-1.5625 2.3825 -1.5625 3.7025 -1.5625 5.0625 C-2.8825 5.0625 -4.2025 5.0625 -5.5625 5.0625 C-4.43693182 0.07784091 -4.43693182 0.07784091 0 0 Z " fill="#DFC8A8" transform="translate(402.5625,286.9375)"/>
<path d="M0 0 C1.134375 0.020625 2.26875 0.04125 3.4375 0.0625 C2.4475 0.7225 1.4575 1.3825 0.4375 2.0625 C-0.2225 1.7325 -0.8825 1.4025 -1.5625 1.0625 C-1.5625 2.3825 -1.5625 3.7025 -1.5625 5.0625 C-2.8825 5.0625 -4.2025 5.0625 -5.5625 5.0625 C-4.43693182 0.07784091 -4.43693182 0.07784091 0 0 Z " fill="#DFC8A8" transform="translate(172.5625,286.9375)"/>
<path d="M0 0 C0 1.65 0 3.3 0 5 C-1.32 5.33 -2.64 5.66 -4 6 C-4.33 4.68 -4.66 3.36 -5 2 C-1.125 0 -1.125 0 0 0 Z " fill="#D6D6C8" transform="translate(665,368)"/>
<path d="M0 0 C-0.33 0.66 -0.66 1.32 -1 2 C-2.32 1.67 -3.64 1.34 -5 1 C-5 2.32 -5 3.64 -5 5 C-6.32 4.67 -7.64 4.34 -9 4 C-8.67 3.01 -8.34 2.02 -8 1 C-5.29120665 -0.35439668 -2.99066732 -0.06501451 0 0 Z " fill="#E6D0B2" transform="translate(204,287)"/>
<path d="M0 0 C0.33 0 0.66 0 1 0 C1 2.97 1 5.94 1 9 C0.01 8.67 -0.98 8.34 -2 8 C-1.125 1.125 -1.125 1.125 0 0 Z " fill="#4E0F07" transform="translate(475,158)"/>
<path d="M0 0 C1.98 0.495 1.98 0.495 4 1 C4 1.99 4 2.98 4 4 C2.35 4.33 0.7 4.66 -1 5 C-0.67 3.35 -0.34 1.7 0 0 Z " fill="#CDD1D0" transform="translate(661,363)"/>
<path d="M0 0 C-1.875 1.0625 -1.875 1.0625 -4 2 C-4.66 1.67 -5.32 1.34 -6 1 C-5.67 1.99 -5.34 2.98 -5 4 C-6.32 4.33 -7.64 4.66 -9 5 C-9 3.68 -9 2.36 -9 1 C-6.04335481 -0.4783226 -3.25770263 -0.06032783 0 0 Z " fill="#E3CBA9" transform="translate(459,287)"/>
<path d="M0 0 C1.32 0.33 2.64 0.66 4 1 C4 1.99 4 2.98 4 4 C2.02 4 0.04 4 -2 4 C-1.34 2.68 -0.68 1.36 0 0 Z " fill="#D4DAD7" transform="translate(620,363)"/>
<path d="M0 0 C0.99 0.66 1.98 1.32 3 2 C3 3.32 3 4.64 3 6 C0.69 6 -1.62 6 -4 6 C-2.68 5.67 -1.36 5.34 0 5 C0 3.35 0 1.7 0 0 Z " fill="#FDDDB0" transform="translate(274,288)"/>
<path d="M0 0 C1.32 0 2.64 0 4 0 C4 1.32 4 2.64 4 4 C2.02 4 0.04 4 -2 4 C-1.34 2.68 -0.68 1.36 0 0 Z " fill="#D8BD98" transform="translate(287,287)"/>
<path d="M0 0 C-0.96679688 0.35191406 -0.96679688 0.35191406 -1.953125 0.7109375 C-4.2077908 1.81161073 -4.2077908 1.81161073 -4.609375 4.1640625 C-4.65578125 4.97617187 -4.7021875 5.78828125 -4.75 6.625 C-4.80671875 7.44226563 -4.8634375 8.25953125 -4.921875 9.1015625 C-4.94765625 9.72804688 -4.9734375 10.35453125 -5 11 C-5.33 11 -5.66 11 -6 11 C-6 8.03 -6 5.06 -6 2 C-6.66 1.67 -7.32 1.34 -8 1 C-5.29120665 -0.35439668 -2.99066732 -0.06501451 0 0 Z " fill="#EEC086" transform="translate(570,287)"/>
<path d="M0 0 C1.98 0 3.96 0 6 0 C6 1.32 6 2.64 6 4 C3.03 3.505 3.03 3.505 0 3 C0 2.01 0 1.02 0 0 Z " fill="#E0BD8D" transform="translate(417,287)"/>
<path d="M0 0 C1.98 0 3.96 0 6 0 C6 1.32 6 2.64 6 4 C3.03 3.505 3.03 3.505 0 3 C0 2.01 0 1.02 0 0 Z " fill="#E0BD8D" transform="translate(187,287)"/>
<path d="M0 0 C1.32 0 2.64 0 4 0 C4 1.32 4 2.64 4 4 C1.03 3.505 1.03 3.505 -2 3 C-1.34 2.01 -0.68 1.02 0 0 Z " fill="#D3BA9F" transform="translate(625,287)"/>
<path d="M0 0 C0.33 0 0.66 0 1 0 C1.33 2.64 1.66 5.28 2 8 C1.01 7.67 0.02 7.34 -1 7 C-1.04254356 5.00045254 -1.04080783 2.99958364 -1 1 C-0.67 0.67 -0.34 0.34 0 0 Z " fill="#0C0302" transform="translate(559,364)"/>
<path d="M0 0 C1.32 0.33 2.64 0.66 4 1 C3.34 2.65 2.68 4.3 2 6 C1.34 5.67 0.68 5.34 0 5 C0 3.35 0 1.7 0 0 Z " fill="#9B614F" transform="translate(453,293)"/>
</svg>
