<?xml version="1.0" encoding="UTF-8"?>
<!-- Generator: visioncortex VTracer 0.6.3 -->
<svg version="1.1" xmlns="http://www.w3.org/2000/svg" width="1280" height="932">
<path d="M0 0 C422.4 0 844.8 0 1280 0 C1280 307.56 1280 615.12 1280 932 C857.6 932 435.2 932 0 932 C0 624.44 0 316.88 0 0 Z " fill="#101317" transform="translate(0,0)"/>
<path d="M0 0 C1.54 -0 3.08 -0.01 4.62 -0.02 C8.81 -0.03 13 -0.03 17.19 -0.02 C21.72 -0.01 26.26 -0.03 30.79 -0.04 C39.66 -0.05 48.53 -0.06 57.4 -0.05 C64.61 -0.05 71.82 -0.05 79.03 -0.05 C80.06 -0.05 81.09 -0.05 82.15 -0.05 C84.24 -0.06 86.33 -0.06 88.42 -0.06 C108 -0.07 127.57 -0.07 147.15 -0.06 C165.03 -0.05 182.92 -0.06 200.8 -0.08 C219.19 -0.11 237.59 -0.12 255.98 -0.11 C266.29 -0.11 276.61 -0.11 286.92 -0.13 C295.7 -0.14 304.48 -0.14 313.26 -0.12 C317.74 -0.12 322.21 -0.11 326.68 -0.13 C330.79 -0.14 334.9 -0.14 339 -0.12 C340.48 -0.12 341.95 -0.12 343.43 -0.13 C364.52 -0.27 380.82 6.04 396.38 20.34 C400.75 24.8 403.75 29.69 406.58 35.2 C406.9 35.83 407.23 36.45 407.56 37.1 C412.84 47.96 413.7 58.89 413.65 70.81 C413.66 72.34 413.66 73.87 413.67 75.4 C413.68 79.58 413.68 83.75 413.67 87.93 C413.67 92.44 413.68 96.95 413.69 101.47 C413.71 110.3 413.71 119.13 413.7 127.96 C413.7 135.14 413.7 142.32 413.7 149.5 C413.7 150.53 413.71 151.55 413.71 152.6 C413.71 154.68 413.71 156.76 413.71 158.84 C413.72 178.33 413.72 197.82 413.71 217.31 C413.7 235.11 413.71 252.92 413.73 270.73 C413.76 289.04 413.77 307.35 413.76 325.65 C413.76 335.92 413.76 346.19 413.78 356.46 C413.79 365.2 413.79 373.95 413.78 382.69 C413.77 387.14 413.77 391.6 413.78 396.05 C413.79 400.14 413.79 404.23 413.77 408.32 C413.77 409.79 413.77 411.26 413.78 412.73 C413.91 432.23 408.09 450.13 394.26 464.39 C379.09 478.18 361.92 481.7 341.97 481.66 C340.43 481.66 338.89 481.66 337.35 481.67 C333.14 481.68 328.93 481.68 324.72 481.68 C320.17 481.68 315.62 481.69 311.07 481.7 C302.16 481.72 293.26 481.72 284.35 481.72 C277.11 481.72 269.86 481.73 262.62 481.73 C242.07 481.75 221.51 481.76 200.95 481.76 C199.29 481.76 199.29 481.76 197.6 481.76 C196.49 481.76 195.38 481.76 194.24 481.76 C176.28 481.76 158.32 481.78 140.36 481.8 C121.9 481.83 103.44 481.85 84.98 481.85 C74.62 481.84 64.27 481.85 53.91 481.87 C45.09 481.89 36.28 481.89 27.46 481.88 C22.96 481.87 18.47 481.87 13.97 481.89 C9.85 481.91 5.73 481.9 1.6 481.89 C0.12 481.88 -1.36 481.89 -2.84 481.9 C-21.98 482.03 -39.2 477.25 -53.48 463.93 C-67.1 450.39 -72.92 433.45 -73.01 414.54 C-73.01 413.14 -73.01 411.73 -73 410.33 C-73.01 408.81 -73.01 407.3 -73.02 405.79 C-73.03 401.65 -73.03 397.5 -73.03 393.36 C-73.03 388.89 -73.04 384.42 -73.05 379.94 C-73.06 371.18 -73.07 362.43 -73.07 353.67 C-73.07 346.54 -73.08 339.42 -73.08 332.3 C-73.1 312.08 -73.11 291.86 -73.11 271.64 C-73.11 270.55 -73.11 269.46 -73.11 268.34 C-73.11 266.7 -73.11 266.7 -73.11 265.04 C-73.11 247.38 -73.13 229.71 -73.15 212.05 C-73.18 193.9 -73.2 175.74 -73.19 157.58 C-73.19 147.4 -73.2 137.22 -73.22 127.03 C-73.24 118.36 -73.24 109.68 -73.23 101.01 C-73.22 96.59 -73.22 92.17 -73.24 87.75 C-73.26 83.7 -73.25 79.64 -73.24 75.58 C-73.23 74.13 -73.24 72.67 -73.25 71.21 C-73.39 51.32 -68.52 34.18 -54.74 19.39 C-38.97 4.17 -21.39 -0.1 0 0 Z " fill="#27303A" transform="translate(459.7364196777344,231.61231994628906)"/>
<path d="M0 0 C1.52 -0 3.04 -0.01 4.56 -0.02 C8.71 -0.04 12.87 -0.03 17.02 -0.01 C21.51 -0.01 26 -0.02 30.48 -0.03 C39.27 -0.05 48.05 -0.04 56.84 -0.03 C63.98 -0.02 71.12 -0.02 78.26 -0.03 C79.78 -0.03 79.78 -0.03 81.34 -0.03 C83.4 -0.03 85.47 -0.03 87.54 -0.03 C106.9 -0.04 126.27 -0.03 145.64 -0.01 C162.24 0.01 178.85 0 195.46 -0.01 C214.76 -0.03 234.06 -0.04 253.36 -0.03 C255.41 -0.03 257.47 -0.03 259.53 -0.03 C261.05 -0.03 261.05 -0.03 262.6 -0.03 C269.73 -0.02 276.86 -0.03 283.99 -0.04 C292.68 -0.05 301.37 -0.05 310.06 -0.02 C314.5 -0.01 318.93 -0.01 323.36 -0.02 C327.42 -0.03 331.48 -0.03 335.55 -0.01 C337.01 -0 338.48 -0 339.94 -0.01 C349.24 -0.07 357.98 0.25 365.3 6.59 C370.72 14.26 374.11 20.91 372.89 30.51 C371.21 38.06 367.13 43.4 360.71 47.58 C354.42 50.64 347.64 50.06 340.8 50.02 C339.26 50.03 337.72 50.03 336.17 50.04 C331.95 50.06 327.72 50.06 323.49 50.05 C318.93 50.04 314.37 50.05 309.8 50.07 C300.87 50.09 291.93 50.09 283 50.08 C275.73 50.07 268.47 50.08 261.21 50.08 C260.17 50.08 259.14 50.08 258.07 50.08 C255.97 50.09 253.87 50.09 251.77 50.09 C232.08 50.11 212.38 50.1 192.68 50.08 C174.67 50.07 156.65 50.08 138.64 50.11 C120.13 50.14 101.63 50.15 83.13 50.14 C81.03 50.14 78.94 50.14 76.85 50.14 C75.82 50.14 74.79 50.14 73.73 50.14 C66.47 50.13 59.22 50.14 51.97 50.16 C43.13 50.18 34.29 50.18 25.45 50.15 C20.94 50.14 16.43 50.14 11.92 50.16 C7.79 50.17 3.65 50.17 -0.48 50.14 C-1.97 50.14 -3.46 50.14 -4.95 50.16 C-14.58 50.23 -22.66 49.5 -30 42.77 C-34.4 38.1 -37.15 32.77 -37.67 26.32 C-37.42 19.49 -33.92 13.04 -29.72 7.77 C-21.43 0.09 -10.63 -0.07 0 0 Z " fill="#F09845" transform="translate(462.10595703125,624.4920654296875)"/>
<path d="M0 0 C1.58 -0.05 3.17 -0.09 4.75 -0.12 C5.63 -0.15 6.51 -0.17 7.42 -0.2 C10.11 0.01 11.7 0.63 14 2 C13.01 2.66 12.02 3.32 11 4 C10.75 7.58 10.75 7.58 11 11 C13.64 11.33 16.28 11.66 19 12 C18.5 7.05 18.5 7.05 18 2 C17.34 2 16.68 2 16 2 C16 1.34 16 0.68 16 0 C17.75 -0.05 19.5 -0.09 21.25 -0.12 C22.22 -0.15 23.2 -0.17 24.2 -0.2 C27.02 0 28.61 0.55 31 2 C30.01 2.33 29.02 2.66 28 3 C26.82 5.37 26.87 6.83 26.87 9.46 C26.87 10.35 26.86 11.23 26.86 12.14 C26.87 13.52 26.87 13.52 26.88 14.94 C26.87 15.86 26.87 16.78 26.86 17.72 C26.87 19.05 26.87 19.05 26.87 20.4 C26.87 21.21 26.87 22.02 26.87 22.86 C26.92 25.19 26.92 25.19 28 28 C21.85 28.1 21.85 28.1 20 28 C18.26 26.26 18.63 23.81 18.44 21.44 C18.31 19.92 18.31 19.92 18.18 18.37 C18.12 17.59 18.06 16.81 18 16 C16 15.96 14 15.96 12 16 C10.71 17.06 10.71 17.06 10.9 19.5 C10.91 20.51 10.93 21.52 10.94 22.56 C10.95 23.57 10.96 24.59 10.96 25.63 C10.98 26.41 10.99 27.19 11 28 C8.36 28 5.72 28 3 28 C1.7 25.39 1.89 23.47 1.9 20.55 C1.91 19.48 1.91 18.4 1.91 17.29 C1.92 16.17 1.93 15.04 1.94 13.88 C1.94 12.74 1.95 11.6 1.95 10.43 C1.96 7.62 1.98 4.81 2 2 C1.34 2 0.68 2 0 2 C0 1.34 0 0.68 0 0 Z " fill="#F09845" transform="translate(426,366)"/>
<path d="M0 0 C2.33 -0.04 4.67 -0.04 7 0 C8.77 1.77 8.23 4.38 8.32 6.79 C8.36 7.95 8.4 9.12 8.44 10.33 C8.48 11.56 8.52 12.79 8.56 14.06 C8.61 15.3 8.65 16.53 8.69 17.81 C8.8 20.87 8.9 23.94 9 27 C9.66 27.33 10.32 27.66 11 28 C8.27 28.14 5.55 28.23 2.81 28.31 C2.04 28.35 1.27 28.4 0.48 28.44 C-3.83 28.53 -5.48 28.4 -9.02 25.66 C-11 23 -11 23 -11.56 20.06 C-10.84 16.14 -9.61 14.02 -7 11 C-3.88 9.56 -3.88 9.56 -1 9 C-0.34 9.33 0.32 9.66 1 10 C0.67 6.7 0.34 3.4 0 0 Z " fill="#F09845" transform="translate(529,366)"/>
<path d="M0 0 C2.33 -0.04 4.67 -0.04 7 0 C8.77 1.77 8.23 4.38 8.32 6.79 C8.36 7.95 8.4 9.12 8.44 10.33 C8.48 11.56 8.52 12.79 8.56 14.06 C8.61 15.3 8.65 16.53 8.69 17.81 C8.8 20.87 8.9 23.94 9 27 C9.66 27.33 10.32 27.66 11 28 C8.25 28.11 5.5 28.19 2.75 28.25 C1.58 28.3 1.58 28.3 0.39 28.35 C-5.39 28.45 -5.39 28.45 -8.48 26.16 C-10.51 23.27 -11 21.54 -11 18 C-9.71 14.54 -8 11.75 -5 9.5 C-3 9 -3 9 1 10 C0.67 6.7 0.34 3.4 0 0 Z " fill="#F09845" transform="translate(563,366)"/>
<path d="M0 0 C2.33 -0.04 4.67 -0.04 7 0 C8.77 1.77 8.23 4.38 8.32 6.79 C8.36 7.95 8.4 9.12 8.44 10.33 C8.48 11.56 8.52 12.79 8.56 14.06 C8.61 15.3 8.65 16.53 8.69 17.81 C8.8 20.87 8.9 23.94 9 27 C9.66 27.33 10.32 27.66 11 28 C8.25 28.11 5.5 28.19 2.75 28.25 C1.58 28.3 1.58 28.3 0.39 28.35 C-5.39 28.45 -5.39 28.45 -8.48 26.16 C-10.51 23.27 -11 21.54 -11 18 C-9.72 14.57 -8 11.77 -5.06 9.5 C-3 9 -3 9 2 10 C1.34 6.7 0.68 3.4 0 0 Z " fill="#F09845" transform="translate(654,366)"/>
<path d="M0 0 C2 -0.04 4 -0.04 6 0 C7 1 7 1 7.06 3.56 C7.04 4.37 7.02 5.17 7 6 C7.66 6 8.32 6 9 6 C9.33 6.66 9.66 7.32 10 8 C9.98 6.87 9.96 5.73 9.94 4.56 C10 1 10 1 11 0 C13 -0.04 15 -0.04 17 0 C17.42 0.85 17.42 0.85 17.84 1.71 C18.2 2.45 18.56 3.18 18.94 3.94 C19.3 4.67 19.66 5.4 20.03 6.15 C20.86 7.96 20.86 7.96 22 9 C22.66 7.02 23.32 5.04 24 3 C23.34 3 22.68 3 22 3 C22.33 2.01 22.66 1.02 23 0 C24.32 0.33 25.64 0.66 27 1 C25.06 7.2 22.74 13.11 20 19 C19.34 19 18.68 19 18 19 C18 18.34 18 17.68 18 17 C17.34 17 16.68 17 16 17 C15.01 14.69 14.02 12.38 13 10 C11.35 12.97 9.7 15.94 8 19 C3.88 15.91 3.06 14.64 1.19 10.06 C0.75 9.02 0.31 7.98 -0.14 6.91 C-1 4 -1.09 2.77 0 0 Z " fill="#F09845" transform="translate(479,375)"/>
<path d="M0 0 C3 1 3 1 5 4 C7.55 5.2 7.55 5.2 10 6 C10 9.86 9.42 11.55 8 15 C8 15.99 8 16.98 8 18 C3.71 18 -0.58 18 -5 18 C-9.12 9.38 -9.12 9.38 -8 6 C-6.01 4.98 -4.01 3.98 -2 3 C-1.34 2.01 -0.68 1.02 0 0 Z " fill="#F09845" transform="translate(454,290)"/>
<path d="M0 0 C2.6 2.19 3.81 3.8 4.35 7.19 C4.49 10.92 4.41 13.3 2.5 16.56 C2 17.04 1.51 17.51 1 18 C-0.32 17.67 -1.64 17.34 -3 17 C-3 12.05 -3 7.1 -3 2 C-3.99 2.33 -4.98 2.66 -6 3 C-6.76 8.23 -7.21 12.77 -6 18 C-8.22 17.62 -9.8 17.13 -11.69 15.88 C-13.76 12.92 -13.94 10.58 -14 7 C-12.38 3.83 -10.95 1.73 -8.12 -0.44 C-5.02 -1.26 -3.06 -0.96 0 0 Z " fill="#F09845" transform="translate(680,376)"/>
<path d="M0 0 C1.81 1.81 1.81 1.81 3 4 C3 5.32 3 6.64 3 8 C0.03 8.66 -2.94 9.32 -6 10 C-6 10.99 -6 11.98 -6 13 C-1.88 14.83 -1.88 14.83 2.38 14.12 C3.18 13.57 3.18 13.57 4 13 C2.25 16.88 2.25 16.88 0 18 C-7.02 18.69 -7.02 18.69 -11 15.88 C-13 13 -13 13 -13.56 10.06 C-12.73 5.52 -10.79 2.33 -7.06 -0.44 C-4.29 -1.19 -2.7 -0.97 0 0 Z " fill="#D98C43" transform="translate(628,376)"/>
<path d="M0 0 C2.98 3.07 3.41 5.35 3.38 9.56 C3.38 10.51 3.39 11.46 3.4 12.44 C2.95 15.34 2.27 16.22 0 18 C-0.99 17.67 -1.98 17.34 -3 17 C-3.33 12.38 -3.66 7.76 -4 3 C-4.66 3 -5.32 3 -6 3 C-7.22 5.43 -7.32 7.42 -7.56 10.12 C-7.65 11.04 -7.73 11.95 -7.82 12.88 C-7.88 13.58 -7.94 14.28 -8 15 C-7.01 15.33 -6.02 15.66 -5 16 C-5.33 16.66 -5.66 17.32 -6 18 C-8.63 17.62 -10.07 16.95 -12.25 15.38 C-14.7 12.05 -14.57 10.04 -14 6 C-10.32 0.09 -6.82 -2.03 0 0 Z " fill="#F09845" transform="translate(472,376)"/>
<path d="M0 0 C3.12 0.25 3.12 0.25 5 1.75 C5.37 2.25 5.74 2.74 6.12 3.25 C5.47 3.25 4.8 3.25 4.12 3.25 C5.12 5.23 6.11 7.21 7.12 9.25 C9 5.38 9 5.38 8.12 1.25 C9.12 0.92 10.11 0.59 11.12 0.25 C11.78 0.58 12.45 0.91 13.12 1.25 C11.77 5.47 10.22 9.54 8.5 13.62 C8.05 14.68 7.61 15.74 7.15 16.84 C6.81 17.63 6.47 18.43 6.12 19.25 C5.47 19.25 4.8 19.25 4.12 19.25 C4.12 18.59 4.12 17.93 4.12 17.25 C3.47 17.25 2.8 17.25 2.12 17.25 C0.87 14.34 0.12 12.45 0.12 9.25 C-0.87 9.58 -1.86 9.91 -2.88 10.25 C-3.07 8.77 -3.26 7.29 -3.44 5.81 C-3.54 4.99 -3.65 4.17 -3.75 3.32 C-3.79 2.63 -3.83 1.95 -3.88 1.25 C-2.88 0.25 -2.88 0.25 0 0 Z " fill="#F09845" transform="translate(599.875,374.75)"/>
<path d="M0 0 C4.06 -0.47 5.56 -0.33 8.88 2.19 C11 5 11 5 11.62 7.5 C10.73 11.09 8.79 12.67 6 15 C5.34 15 4.68 15 4 15 C3.67 16.65 3.34 18.3 3 20 C1.98 16.83 2.21 15.17 3 12 C3.09 9.33 3.04 6.68 3 4 C2.01 4 1.02 4 0 4 C0 5.98 0 7.96 0 10 C-1.65 9.67 -3.3 9.34 -5 9 C-4.67 7.02 -4.34 5.04 -4 3 C-3.01 2.67 -2.02 2.34 -1 2 C-0.67 1.34 -0.34 0.68 0 0 Z " fill="#F09845" transform="translate(693,366)"/>
<path d="M0 0 C1.45 0.03 1.45 0.03 2.94 0.06 C3.65 1.79 4.37 3.51 5.09 5.24 C6.01 7.33 6.01 7.33 7.94 10.06 C7.7 12.32 7.7 12.32 7.06 14.75 C6.86 15.56 6.66 16.37 6.45 17.2 C6.19 18.12 6.19 18.12 5.94 19.06 C2.91 18.02 2.04 17.25 0.49 14.38 C-0.12 12.8 -0.12 12.8 -0.75 11.19 C-1.17 10.14 -1.58 9.09 -2.01 8.01 C-3.65 3.4 -3.65 3.4 -4.06 1.06 C-3.06 0.06 -3.06 0.06 0 0 Z " fill="#F09845" transform="translate(589.0625,374.9375)"/>
<path d="M0 0 C1.21 0.03 1.21 0.03 2.44 0.06 C4.09 3.36 3.82 7.05 4 10.69 C4.04 11.49 4.09 12.29 4.13 13.12 C4.24 15.1 4.34 17.08 4.44 19.06 C2.44 19.11 0.44 19.1 -1.56 19.06 C-3.68 16.94 -3.03 12.5 -3.19 9.56 C-3.26 8.37 -3.26 8.37 -3.34 7.14 C-3.46 5.12 -3.52 3.09 -3.56 1.06 C-2.56 0.06 -2.56 0.06 0 0 Z " fill="#F09845" transform="translate(545.5625,374.9375)"/>
<path d="M0 0 C5.46 0.35 5.46 0.35 8 1 C9.5 3.06 9.5 3.06 10 5 C9.01 6.49 9.01 6.49 8 8 C6.68 8 5.36 8 4 8 C4.33 9.98 4.66 11.96 5 14 C3.35 14 1.7 14 0 14 C0.33 13.34 0.66 12.68 1 12 C0.91 9.96 0.76 7.91 0.56 5.88 C0.46 4.78 0.36 3.68 0.25 2.55 C0.17 1.71 0.09 0.87 0 0 Z " fill="#C38142" transform="translate(426,437)"/>
<path d="M0 0 C0.99 0 1.98 0 3 0 C4.5 3 4.09 5.79 4.06 9.12 C4.05 10.41 4.04 11.69 4.04 13.01 C4.02 14 4.01 14.98 4 16 C2.68 16 1.36 16 0 16 C-1.63 10.52 -2.28 6.71 -1 1 C-0.67 0.67 -0.34 0.34 0 0 Z " fill="#26303A" transform="translate(674,378)"/>
<path d="M0 0 C1.94 0.38 1.94 0.38 4 1 C5.26 3.52 5.1 5.31 5.06 8.12 C5.05 9.04 5.04 9.95 5.04 10.88 C5.02 11.58 5.01 12.28 5 13 C1 13 1 13 -1 12 C-1.03 10.38 -1.05 8.75 -1.06 7.12 C-1.07 6.22 -1.09 5.32 -1.1 4.38 C-1 2 -1 2 0 0 Z " fill="#26303A" transform="translate(651,378)"/>
<path d="M0 0 C0.99 0.33 1.98 0.66 3 1 C3.19 3.29 3.38 5.58 3.56 7.88 C3.67 9.15 3.77 10.43 3.88 11.74 C4 15 4 15 3 17 C2.01 17 1.02 17 0 17 C0 16.01 0 15.02 0 14 C-0.66 13.67 -1.32 13.34 -2 13 C-2.05 11.4 -2.09 9.79 -2.12 8.19 C-2.15 7.29 -2.17 6.4 -2.2 5.48 C-2 3 -2 3 0 0 Z " fill="#31353A" transform="translate(466,378)"/>
<path d="M0 0 C2.06 1.69 2.06 1.69 4 4 C3.7 8.3 3.7 8.3 2 10 C0.33 10.04 -1.33 10.04 -3 10 C-3.33 11.32 -3.66 12.64 -4 14 C-5.38 4.77 -5.38 4.77 -4 2 C-1.94 0.75 -1.94 0.75 0 0 Z " fill="#F09845" transform="translate(453,488)"/>
<path d="M0 0 C2.47 1.15 4.05 2.05 6 4 C5.01 5.98 4.02 7.96 3 10 C1.35 10 -0.3 10 -2 10 C-2.33 10.66 -2.66 11.32 -3 12 C-3.95 8.3 -3.95 5.7 -3 2 C-2.01 2 -1.02 2 0 2 C0 1.34 0 0.68 0 0 Z " fill="#F09845" transform="translate(801,441)"/>
<path d="M0 0 C1.32 0.33 2.64 0.66 4 1 C4 5.62 4 10.24 4 15 C1 14 1 14 -1 12 C-2.27 7.35 -1.8 4.44 0 0 Z " fill="#26303A" transform="translate(560,378)"/>
<path d="M0 0 C0.99 0 1.98 0 3 0 C4.32 2.64 4.1 4.68 4.06 7.62 C4.05 8.63 4.04 9.63 4.04 10.66 C4.02 11.43 4.01 12.21 4 13 C1 13 1 13 -0.75 12 C-2.76 8.79 -1.82 5.57 -1 2 C-0.67 1.34 -0.34 0.68 0 0 Z " fill="#26303A" transform="translate(526,378)"/>
<path d="M0 0 C2.97 0.5 2.97 0.5 6 1 C6.93 4.01 7.04 4.87 6 8 C4.02 8.33 2.04 8.66 0 9 C-0.99 7.35 -1.98 5.7 -3 4 C-2.34 4 -1.68 4 -1 4 C-0.67 2.68 -0.34 1.36 0 0 Z " fill="#F09845" transform="translate(502,489)"/>
<path d="M0 0 C0.93 2.61 1.15 3.64 0.06 6.25 C-0.29 6.83 -0.64 7.4 -1 8 C-2.65 8 -4.3 8 -6 8 C-8.12 3.38 -8.12 3.38 -7 0 C-4.33 -1.33 -2.83 -0.67 0 0 Z " fill="#F09845" transform="translate(473,490)"/>
<path d="M0 0 C0.99 0 1.98 0 3 0 C3 3.96 3 7.92 3 12 C2.34 12 1.68 12 1 12 C0.34 10.02 -0.32 8.04 -1 6 C-1.33 6 -1.66 6 -2 6 C-2.17 8.42 -2.17 8.42 -2 11 C-1.34 11.66 -0.68 12.32 0 13 C-1.88 12.75 -1.88 12.75 -4 12 C-5.25 9.94 -5.25 9.94 -6 8 C-5.34 8 -4.68 8 -4 8 C-3.9 7.36 -3.79 6.72 -3.69 6.06 C-3.46 5.38 -3.23 4.7 -3 4 C-2.01 3.67 -1.02 3.34 0 3 C0 2.01 0 1.02 0 0 Z " fill="#F09845" transform="translate(674,438)"/>
<path d="M0 0 C-0.99 0.5 -0.99 0.5 -2 1 C-2.66 3.53 -2.66 3.53 -3 6 C-4.32 6 -5.64 6 -7 6 C-7.33 6.66 -7.66 7.32 -8 8 C-9 3.25 -9 3.25 -9 1 C-5.65 -1.11 -3.78 -1.05 0 0 Z " fill="#B27841" transform="translate(597,489)"/>
<path d="M0 0 C0.19 0.96 0.19 0.96 0.38 1.94 C0.68 2.96 0.68 2.96 1 4 C1.66 4.33 2.32 4.66 3 5 C2.34 5 1.68 5 1 5 C1.33 7.64 1.66 10.28 2 13 C0.68 12.67 -0.64 12.34 -2 12 C-2.25 10.57 -2.47 9.13 -2.69 7.69 C-2.82 6.89 -2.94 6.09 -3.07 5.26 C-3 3 -3 3 -1.52 1.21 C-1.02 0.81 -0.52 0.41 0 0 Z " fill="#F09845" transform="translate(552,485)"/>
<path d="M0 0 C0.99 0 1.98 0 3 0 C3 2.31 3 4.62 3 7 C3.99 7.33 4.98 7.66 6 8 C5.01 8 4.02 8 3 8 C3.33 9.32 3.66 10.64 4 12 C3.01 12 2.02 12 1 12 C-0.26 9.48 -0.1 7.69 -0.06 4.88 C-0.05 3.96 -0.04 3.05 -0.04 2.12 C-0.02 1.42 -0.01 0.72 0 0 Z " fill="#F09845" transform="translate(770,467)"/>
<path d="M0 0 C0.99 0 1.98 0 3 0 C3 2.31 3 4.62 3 7 C3.99 7.33 4.98 7.66 6 8 C5.01 8 4.02 8 3 8 C3.33 9.32 3.66 10.64 4 12 C3.01 12 2.02 12 1 12 C-0.26 9.48 -0.1 7.69 -0.06 4.88 C-0.05 3.96 -0.04 3.05 -0.04 2.12 C-0.02 1.42 -0.01 0.72 0 0 Z " fill="#F09845" transform="translate(634,467)"/>
<path d="M0 0 C0.99 0 1.98 0 3 0 C3.33 4.29 3.66 8.58 4 13 C3.01 13 2.02 13 1 13 C-0.32 10.36 -0.1 8.32 -0.06 5.38 C-0.05 4.37 -0.04 3.37 -0.04 2.34 C-0.02 1.57 -0.01 0.79 0 0 Z " fill="#F09845" transform="translate(765,462)"/>
<path d="M0 0 C0.99 0 1.98 0 3 0 C3.33 4.29 3.66 8.58 4 13 C3.01 13 2.02 13 1 13 C-0.32 10.36 -0.1 8.32 -0.06 5.38 C-0.05 4.37 -0.04 3.37 -0.04 2.34 C-0.02 1.57 -0.01 0.79 0 0 Z " fill="#F09845" transform="translate(511,462)"/>
<path d="M0 0 C0.99 0 1.98 0 3 0 C3.33 4.29 3.66 8.58 4 13 C3.01 13 2.02 13 1 13 C-0.32 10.36 -0.1 8.32 -0.06 5.38 C-0.05 4.37 -0.04 3.37 -0.04 2.34 C-0.02 1.57 -0.01 0.79 0 0 Z " fill="#F09845" transform="translate(710,438)"/>
<path d="M0 0 C0.99 0 1.98 0 3 0 C3.33 4.29 3.66 8.58 4 13 C3.01 13 2.02 13 1 13 C-0.32 10.36 -0.1 8.32 -0.06 5.38 C-0.05 4.37 -0.04 3.37 -0.04 2.34 C-0.02 1.57 -0.01 0.79 0 0 Z " fill="#F09845" transform="translate(484,438)"/>
<path d="M0 0 C0.99 0 1.98 0 3 0 C3.33 4.29 3.66 8.58 4 13 C3.01 13 2.02 13 1 13 C-0.32 10.36 -0.1 8.32 -0.06 5.38 C-0.05 4.37 -0.04 3.37 -0.04 2.34 C-0.02 1.57 -0.01 0.79 0 0 Z " fill="#F09845" transform="translate(438,438)"/>
<path d="M0 0 C0.19 0.96 0.19 0.96 0.38 1.94 C0.68 2.96 0.68 2.96 1 4 C1.66 4.33 2.32 4.66 3 5 C2.34 5 1.68 5 1 5 C1 7.31 1 9.62 1 12 C1.66 12.33 2.32 12.66 3 13 C1.68 13 0.36 13 -1 13 C-2.61 9.79 -2.06 6.56 -2 3 C-1.34 3 -0.68 3 0 3 C0 2.01 0 1.02 0 0 Z " fill="#F09845" transform="translate(545,485)"/>
<path d="M0 0 C0.99 0 1.98 0 3 0 C3.05 0.77 3.1 1.54 3.15 2.34 C3.22 3.34 3.3 4.34 3.38 5.38 C3.44 6.37 3.51 7.37 3.59 8.4 C3.76 11.16 3.76 11.16 6 13 C4.12 12.69 4.12 12.69 2 12 C-0.14 8.8 -0.23 7.98 -0.12 4.31 C-0.11 3.5 -0.09 2.7 -0.07 1.86 C-0.05 1.25 -0.02 0.63 0 0 Z " fill="#F09845" transform="translate(562,462)"/>
<path d="M0 0 C0.99 0 1.98 0 3 0 C3 2.31 3 4.62 3 7 C3.99 7.33 4.98 7.66 6 8 C5.01 8 4.02 8 3 8 C3.33 9.32 3.66 10.64 4 12 C3.01 12 2.02 12 1 12 C0.37 7.96 -0.12 4.09 0 0 Z " fill="#F09845" transform="translate(644,467)"/>
<path d="M0 0 C0.33 1.98 0.66 3.96 1 6 C-1.94 5.62 -1.94 5.62 -5 5 C-5.33 4.34 -5.66 3.68 -6 3 C-3.38 0 -3.38 0 0 0 Z " fill="#F09845" transform="translate(697,388)"/>
<path d="M0 0 C1.56 1.25 1.56 1.25 3 3 C2.69 5.19 2.69 5.19 2 7 C-0.87 6.43 -1.86 6.14 -4 4 C-2.68 2.68 -1.36 1.36 0 0 Z " fill="#F09845" transform="translate(546,366)"/>
<path d="M0 0 C4.88 0.88 4.88 0.88 6 2 C6.04 3.67 6.04 5.33 6 7 C5.6 6.04 5.6 6.04 5.19 5.06 C4.11 2.67 4.11 2.67 1 2 C0.75 4.42 0.75 4.42 1 7 C1.99 7.66 2.98 8.32 4 9 C1.62 8.81 1.62 8.81 -1 8 C-2.31 5.44 -2.31 5.44 -3 3 C-2.34 3 -1.68 3 -1 3 C-0.67 2.01 -0.34 1.02 0 0 Z " fill="#F09845" transform="translate(738,442)"/>
<path d="M0 0 C1.32 0.66 2.64 1.32 4 2 C3.67 3.65 3.34 5.3 3 7 C1.68 6.67 0.36 6.34 -1 6 C-1.04 4.33 -1.04 2.67 -1 1 C-0.67 0.67 -0.34 0.34 0 0 Z " fill="#26303A" transform="translate(468,490)"/>
<path d="M0 0 C0.99 0.66 1.98 1.32 3 2 C1.02 2.33 -0.96 2.66 -3 3 C-2.67 5.31 -2.34 7.62 -2 10 C-2.99 10 -3.98 10 -5 10 C-6 4.25 -6 4.25 -6 2 C-3.19 0.88 -3.19 0.88 0 0 Z " fill="#F09845" transform="translate(823,441)"/>
<path d="M0 0 C0.66 0 1.32 0 2 0 C2 0.66 2 1.32 2 2 C2.66 2 3.32 2 4 2 C3.67 3.65 3.34 5.3 3 7 C1.68 6.67 0.36 6.34 -1 6 C-1.04 4.33 -1.04 2.67 -1 1 C-0.67 0.67 -0.34 0.34 0 0 Z " fill="#26303A" transform="translate(503,490)"/>
<path d="M0 0 C1.56 1.25 1.56 1.25 3 3 C2.69 5.19 2.69 5.19 2 7 C0.68 7 -0.64 7 -2 7 C-2 5.02 -2 3.04 -2 1 C-1.34 0.67 -0.68 0.34 0 0 Z " fill="#26303A" transform="translate(452,490)"/>
<path d="M0 0 C4.18 3.46 5.33 6.98 7 12 C5.12 11.44 5.12 11.44 3 10 C2.27 7.69 1.6 5.35 1 3 C0.34 2.67 -0.32 2.34 -1 2 C-0.67 1.34 -0.34 0.68 0 0 Z " fill="#F09845" transform="translate(501,462)"/>
<path d="M0 0 C1.94 0.31 1.94 0.31 4 1 C4.33 1.99 4.66 2.98 5 4 C3.35 4.66 1.7 5.32 0 6 C0 6.66 0 7.32 0 8 C1.32 8.33 2.64 8.66 4 9 C3.01 9.33 2.02 9.66 1 10 C0.01 9.34 -0.98 8.68 -2 8 C-2 6.68 -2 5.36 -2 4 C-0.35 4 1.3 4 3 4 C2.01 3.34 1.02 2.68 0 2 C0 1.34 0 0.68 0 0 Z " fill="#F09845" transform="translate(558,488)"/>
<path d="M0 0 C0.66 0.66 1.32 1.32 2 2 C1.01 2 0.02 2 -1 2 C-0.67 4.31 -0.34 6.62 0 9 C-0.99 9 -1.98 9 -3 9 C-4.35 6.29 -4.07 3.99 -4 1 C-2.12 0.38 -2.12 0.38 0 0 Z " fill="#F09845" transform="translate(524,489)"/>
<path d="M0 0 C0.33 0 0.66 0 1 0 C1.08 1.24 1.16 2.48 1.25 3.75 C1.63 6.99 1.9 7.88 4.06 10.5 C4.7 11 5.34 11.49 6 12 C5.01 12 4.02 12 3 12 C3 11.34 3 10.68 3 10 C2.34 10 1.68 10 1 10 C0.67 10.99 0.34 11.98 0 13 C-1.29 4.57 -1.29 4.57 0 0 Z " fill="#F09845" transform="translate(592,461)"/>
<path d="M0 0 C1.94 0.31 1.94 0.31 4 1 C4.33 1.99 4.66 2.98 5 4 C3.35 4.66 1.7 5.32 0 6 C0 6.66 0 7.32 0 8 C1.32 8.33 2.64 8.66 4 9 C3.01 9.33 2.02 9.66 1 10 C0.01 9.34 -0.98 8.68 -2 8 C-2 6.68 -2 5.36 -2 4 C-0.35 4 1.3 4 3 4 C2.01 3.34 1.02 2.68 0 2 C0 1.34 0 0.68 0 0 Z " fill="#F09845" transform="translate(641,441)"/>
<path d="M0 0 C1.94 0.31 1.94 0.31 4 1 C4.33 1.99 4.66 2.98 5 4 C3.35 4.66 1.7 5.32 0 6 C0 6.66 0 7.32 0 8 C1.32 8.33 2.64 8.66 4 9 C3.01 9.33 2.02 9.66 1 10 C0.01 9.34 -0.98 8.68 -2 8 C-2 6.68 -2 5.36 -2 4 C-0.35 4 1.3 4 3 4 C2.01 3.34 1.02 2.68 0 2 C0 1.34 0 0.68 0 0 Z " fill="#F09845" transform="translate(492,441)"/>
<path d="M0 0 C1.94 0.31 1.94 0.31 4 1 C4.33 1.99 4.66 2.98 5 4 C3.35 4.66 1.7 5.32 0 6 C0 6.66 0 7.32 0 8 C1.32 8.33 2.64 8.66 4 9 C3.01 9.33 2.02 9.66 1 10 C0.01 9.34 -0.98 8.68 -2 8 C-2 6.68 -2 5.36 -2 4 C-0.35 4 1.3 4 3 4 C2.01 3.34 1.02 2.68 0 2 C0 1.34 0 0.68 0 0 Z " fill="#F09845" transform="translate(472,441)"/>
<path d="M0 0 C1.56 1.25 1.56 1.25 3 3 C2.69 5.19 2.69 5.19 2 7 C0.68 7 -0.64 7 -2 7 C-2 5.02 -2 3.04 -2 1 C-1.34 0.67 -0.68 0.34 0 0 Z " fill="#26303A" transform="translate(801,443)"/>
<path d="M0 0 C0.99 0 1.98 0 3 0 C3.33 2.64 3.66 5.28 4 8 C1.69 8 -0.62 8 -3 8 C-2.01 7.34 -1.02 6.68 0 6 C0.25 2.92 0.25 2.92 0 0 Z " fill="#F09845" transform="translate(543,443)"/>
<path d="M0 0 C0.33 0 0.66 0 1 0 C1.08 1.26 1.16 2.52 1.25 3.81 C1.67 7.34 1.67 7.34 4.06 10 C4.7 10.33 5.34 10.66 6 11 C5.67 11.66 5.34 12.32 5 13 C4.01 12.34 3.02 11.68 2 11 C1.01 11.5 1.01 11.5 0 12 C-0.93 7.67 -0.93 4.33 0 0 Z " fill="#F09845" transform="translate(534,437)"/>
</svg>
